<svg width="105" height="169" viewBox="0 0 105 169" fill="none" xmlns="http://www.w3.org/2000/svg">
<path d="M87.6633 63.4769C88.1878 63.2286 88.4651 62.6581 88.7587 62.1913C89.0669 61.7158 89.2921 61.1926 89.5368 60.7064C89.9953 59.7848 90.4603 58.8756 90.9187 57.9541C91.8422 56.1233 92.7591 54.2802 93.6972 52.4406C93.9338 51.9755 93.6853 51.3949 93.2817 51.2147C92.8359 51.0273 92.2399 51.1401 91.808 51.5274C91.3909 51.906 90.9525 52.2811 90.5012 52.6315C90.405 52.7051 90.3089 52.7786 90.2128 52.8522C90.0873 52.9433 90.0873 52.9433 90.2128 52.8522C90.146 52.9083 90.0873 52.9433 90.0205 52.9994C89.7989 53.164 89.5562 53.3251 89.3346 53.4898C88.4352 54.1238 87.5229 54.7332 86.565 55.2564C86.0894 55.5241 85.6007 55.7672 85.112 56.0103C84.9882 56.068 84.8498 56.1345 84.726 56.1921C85.0176 56.0505 84.682 56.2184 84.6169 56.2411C84.3628 56.3442 84.1005 56.4683 83.84 56.5591C82.7227 56.9992 81.2653 57.2699 80.5023 58.3084C80.1892 58.7383 80.3597 59.171 80.7046 59.3863C81.2285 59.7214 82.0312 59.5986 82.7168 59.3999C83.2656 59.2343 83.8096 59.0229 84.3536 58.8116C85.4644 58.3591 86.5639 57.8486 87.639 57.2554C89.76 56.0866 91.6321 54.6289 93.3661 52.946C92.7413 52.6387 92.1018 52.3401 91.477 52.0328C90.617 53.8743 89.7636 55.7281 88.889 57.5783C88.4517 58.5034 88.029 59.4198 87.5982 60.3572C87.391 60.8049 87.1561 61.2367 87.0123 61.695C86.9437 61.9303 86.8539 62.1621 86.7853 62.3974C86.6677 62.7592 86.656 62.9929 86.8038 63.3096C86.9158 63.6315 87.3212 63.6325 87.6633 63.4769Z" fill="#0A71CC" fill-opacity="0.45"/>
<path d="M8.19574 109.63C10.8318 109.598 13.4695 109.534 16.1306 109.27C18.806 108.998 21.4908 108.673 24.166 108.261C29.5306 107.429 34.9216 106.192 40.209 104.379C45.3557 102.617 50.4605 100.289 55.1023 97.2374C58.9157 94.7312 62.8375 91.5557 64.5887 87.5032C65.4691 85.4509 65.5439 83.325 64.8011 81.5211C63.9916 79.5231 62.1275 78.1719 60.1311 77.2709C58.0602 76.3357 55.713 75.826 53.328 75.5247C50.9573 75.2152 48.473 75.1119 45.9502 75.9477C44.8256 76.3246 43.3801 76.9045 42.5141 77.7985C41.6782 78.644 41.5213 79.7456 42.0429 80.5443C43.0846 82.1737 45.5043 82.4701 47.5314 82.5918C52.13 82.8748 56.9737 81.8026 61.5172 79.7869C66.9368 77.384 71.7743 73.8603 76.3218 70.0398C78.6279 68.1028 80.8612 66.0997 83.0945 64.0965C85.2124 62.1918 87.2702 60.2445 89.1156 58.1103C89.9799 57.1085 90.7555 56.0807 91.4441 54.995C92.2905 53.6462 90.3794 52.6953 89.457 54.0419C86.5351 58.2807 82.4681 61.743 78.5246 65.2264C74.2777 68.9802 69.8976 72.6252 65.012 75.571C61.0528 77.9448 56.7449 79.8074 52.3185 80.5427C50.1575 80.9032 48.0168 80.9877 45.9847 80.6824C45.1744 80.5651 44.3814 80.3754 43.8475 79.8326C43.7286 79.7155 43.651 79.6054 43.5827 79.4433C43.5573 79.3959 43.5239 79.229 43.5302 79.2408C43.5235 78.9495 43.8476 78.6826 44.2097 78.4867C45.1268 77.9668 46.2657 77.7214 47.2672 77.6028C48.3383 77.4747 49.4332 77.4259 50.4681 77.4743C52.704 77.5673 54.9324 77.9599 56.957 78.5648C58.8723 79.1402 60.758 80.0437 61.9102 81.5308C62.4174 82.1981 62.7713 83.0325 62.8722 83.9526C62.9281 84.3706 62.9283 84.5103 62.8767 85.0066C62.8282 85.4389 62.7637 85.7718 62.6881 86.049C62.4155 86.9696 62.1014 87.6036 61.6151 88.3693C61.3608 88.7663 61.0939 89.1397 60.7921 89.5179C60.6594 89.6886 60.5267 89.8593 60.3734 90.0265C60.1017 90.3561 60.5409 89.851 60.2486 90.1771C60.1538 90.2791 60.0732 90.3727 59.9784 90.4747C59.2705 91.2454 58.5103 91.9534 57.6963 92.6307C57.3074 92.951 56.9122 93.2594 56.517 93.5678C56.2941 93.7446 56.438 93.6295 56.4886 93.5844C56.3811 93.6628 56.2736 93.7411 56.1661 93.8194C55.9368 93.9843 55.7076 94.1492 55.472 94.3023C51.1465 97.2473 46.4959 99.6208 41.7354 101.406C36.8752 103.249 31.9115 104.516 26.9458 105.535C21.9454 106.559 16.9823 107.094 11.9958 107.83C10.7697 108.018 9.55155 108.185 8.33338 108.353C7.45056 108.449 7.30332 109.638 8.19574 109.63Z" fill="#0A71CC" fill-opacity="0.45"/>
</svg>
