<svg width="121" height="177" viewBox="0 0 121 177" fill="none" xmlns="http://www.w3.org/2000/svg">
<path d="M106.957 81.8398C106.656 81.9032 106.355 81.9824 106.054 81.9666C106.355 81.4436 106.656 80.9048 106.957 80.3818C107.544 81.7447 108.13 83.1077 108.7 84.4547C108.986 85.1045 109.223 85.8811 109.525 86.4516C109.873 87.1172 110.206 87.7987 110.555 88.4643C110.967 89.2884 110.46 90.2393 109.525 90.271C108.257 90.3185 106.973 90.3027 105.705 90.271C105.087 90.2551 104.469 90.2393 103.867 90.2234C103.534 90.2076 103.217 90.2076 102.884 90.1918C102.488 90.1759 102.06 90.2076 101.68 90.065C101.157 89.8748 100.682 89.3993 100.713 88.7971C100.745 88.2107 101.11 87.6877 101.68 87.5293C102.361 87.3391 103.17 87.4817 103.883 87.5134C104.501 87.5451 105.119 87.5768 105.721 87.5927C106.989 87.6561 108.273 87.7353 109.54 87.8779C109.16 88.3851 108.764 88.8922 108.383 89.3993C108.146 88.702 107.908 88.0047 107.67 87.3074C107.448 86.6735 107.068 85.9445 106.783 85.263C106.212 83.9001 105.642 82.5371 105.056 81.1742C104.897 80.7938 105.135 80.2867 105.436 80.0648C105.769 79.8112 106.244 79.7637 106.609 79.9856C106.878 80.1441 107.084 80.3659 107.306 80.5878C107.655 80.984 107.496 81.7447 106.957 81.8398Z" fill="#0A71CC" fill-opacity="0.45"/>
<path d="M12.0483 109.702C14.0611 103.983 17.0247 98.6127 20.5429 93.6698C24.0928 88.711 28.2132 84.1798 32.8883 80.282C37.5792 76.3843 42.7138 73.025 48.2287 70.4101C54.3141 67.5258 61.6356 64.6095 68.4023 66.7463C71.3182 67.6643 73.9963 69.4536 75.6602 72.051C77.641 75.1235 77.6251 78.8776 76.6583 82.2993C75.7866 85.3724 74.3127 88.319 72.5378 90.9806C70.8104 93.5629 68.7026 95.9077 66.3096 97.8725C65.1052 98.8548 63.8374 99.7422 62.4745 100.503C61.0482 101.295 59.4793 102.167 57.8312 102.31C56.4208 102.421 55.058 101.693 54.44 100.41C53.9012 99.2693 53.8854 97.9229 54.1231 96.7032C54.4243 95.2458 55.185 93.8675 56.0091 92.6477C56.9441 91.2694 58.0534 90.0019 59.2579 88.8611C61.6508 86.5954 64.4875 84.7415 67.4035 83.236C73.378 80.1299 80.0022 78.481 86.7373 78.4953C93.1395 78.4938 100.192 79.791 105.453 83.6389C106.118 84.1298 106.736 84.6682 107.291 85.27C107.814 85.8401 108.432 86.6953 108.638 87.4556C108.559 87.3131 108.479 87.1705 108.384 87.028C108.416 87.0596 108.448 87.1072 108.479 87.1388C108.812 87.5348 108.876 88.105 108.479 88.5011C108.131 88.8496 107.449 88.8973 107.117 88.5014C106.942 88.2955 106.609 88.1213 106.388 87.9788C105.944 87.678 105.643 87.4563 105.278 87.1713C105.199 87.1079 105.12 87.0446 105.041 86.9812C105.072 86.9971 105.167 87.0763 105.041 86.9812C104.898 86.8704 104.755 86.7754 104.629 86.6804C104.296 86.4587 103.995 86.2053 103.662 85.9836C102.458 85.1286 101.142 84.4319 99.7794 83.8461C99.5417 83.7512 99.9537 83.9095 99.716 83.8145C99.6526 83.7828 99.5734 83.7512 99.51 83.7353C99.3198 83.6562 99.1297 83.5929 98.9395 83.5137C98.5909 83.3871 98.2264 83.2604 97.8619 83.1338C97.1329 82.8964 96.404 82.6906 95.6591 82.5007C94.9302 82.3108 94.1854 82.1684 93.4405 82.026C93.0761 81.9628 92.7274 81.8995 92.3629 81.8521C92.1886 81.8204 91.9985 81.8046 91.8241 81.773C91.8875 81.7888 92.0618 81.8046 91.7607 81.773C91.6498 81.7572 91.5547 81.7413 91.4438 81.7414C88.3377 81.3778 85.1841 81.3785 82.0622 81.7436C81.8879 81.7595 81.6977 81.7912 81.5234 81.8071C81.4442 81.8229 81.365 81.823 81.2857 81.8388C81.5076 81.8071 81.254 81.8388 81.2223 81.8547C80.8103 81.9181 80.3983 81.9816 79.9862 82.045C79.2414 82.1719 78.4966 82.3147 77.7518 82.4733C76.2146 82.8063 74.7091 83.2184 73.2194 83.7098C70.3193 84.6768 67.6253 85.9288 64.9629 87.5767C62.3956 89.1614 59.86 90.9994 57.8949 93.3283C57.0232 94.3582 56.1674 95.5464 55.7395 96.8453C55.4226 97.8117 55.2165 98.9997 55.6919 99.95C56.3575 101.28 57.9897 100.805 59.0357 100.266C60.351 99.5846 61.603 98.7764 62.7915 97.905C67.3556 94.53 71.1591 90.1572 73.2194 84.8662C74.3605 81.9513 75.2322 78.5772 74.3606 75.5361C74.3131 75.3619 74.2497 75.1718 74.1863 74.9976C74.1705 74.9501 73.9962 74.5383 74.0596 74.6808C73.9169 74.364 73.7743 74.0631 73.6 73.778C73.2197 73.1287 72.982 72.8278 72.5224 72.321C71.5875 71.3075 70.7159 70.6899 69.4482 70.0408C69.2897 69.9616 69.1154 69.8825 68.941 69.8033C68.8777 69.7716 68.8143 69.74 68.7509 69.7241C68.5449 69.6292 68.8935 69.7875 68.6716 69.6925C68.3547 69.5658 68.0219 69.4392 67.6891 69.3442C67.0235 69.1385 66.358 68.9644 65.6607 68.8695C65.5656 68.8537 65.4864 68.8379 65.3913 68.822C65.423 68.822 65.5656 68.8378 65.3754 68.822C65.1694 68.8063 64.9634 68.7746 64.7574 68.7588C64.2978 68.7273 63.8224 68.7115 63.3628 68.7116C62.5388 68.7118 61.7306 68.7754 60.9224 68.8865C59.195 69.1245 57.4993 69.5842 55.8512 70.139C54.3616 70.6304 52.7927 71.2644 51.4773 71.8191C46.2318 74.1013 41.2715 77.0487 36.7233 80.5187C34.6314 82.1191 32.3652 84.0838 30.3842 86.0167C28.3082 88.0289 26.3272 90.1202 24.4889 92.3541C20.8914 96.6951 17.8011 101.543 15.3605 106.66C14.7582 107.911 14.1402 109.163 13.5855 110.43C13.221 111.238 11.7155 110.621 12.0483 109.702Z" fill="#0A71CC" fill-opacity="0.45"/>
</svg>
