<svg width="117" height="117" viewBox="0 0 117 117" fill="none" xmlns="http://www.w3.org/2000/svg">
<path d="M74.1121 101.196C97.7273 92.5378 109.853 66.3753 101.195 42.76C92.5372 19.1448 66.3747 7.01934 42.7595 15.6771C19.1442 24.3349 7.01879 50.4973 15.6766 74.1126C24.3343 97.7279 50.4968 109.853 74.1121 101.196Z" fill="#FDDF6D"/>
<path d="M80.9602 91.524C57.345 100.182 31.1827 88.0564 22.5249 64.4412C17.8994 51.8244 19.2079 38.482 25.0298 27.4689C13.7818 39.6219 9.5848 57.4977 15.6762 74.1128C24.3339 97.728 50.4963 109.853 74.1114 101.196C85.11 97.1633 93.6145 89.3332 98.6895 79.7328C93.9505 84.8529 87.9605 88.9576 80.9602 91.524Z" fill="#FCC56B"/>
<path d="M84.6926 43.7505C84.0819 43.9747 83.3714 43.8703 82.8439 43.4158C80.9939 41.8231 78.4219 41.3556 76.1309 42.196C73.8966 43.0156 72.214 45.0645 71.7393 47.5435C71.5468 48.5481 70.5761 49.2073 69.5713 49.0161C68.5661 48.8247 67.9075 47.8552 68.0999 46.8505C68.8178 43.1003 71.407 39.9847 74.8571 38.7191C78.4094 37.4161 82.3969 38.1401 85.2639 40.6088C86.0388 41.2759 86.1252 42.4453 85.457 43.2202C85.2438 43.4679 84.9791 43.6454 84.6926 43.7505Z" fill="#7F184C"/>
<path d="M55.0165 54.6305C54.4058 54.8547 53.6953 54.7502 53.1678 54.2958C51.3178 52.703 48.7458 52.2355 46.4548 53.0759C44.2209 53.8954 42.5379 55.9445 42.0632 58.4235C41.8711 59.4279 40.9005 60.0871 39.8952 59.8961C38.8904 59.7046 38.2313 58.735 38.424 57.7304C39.1419 53.9802 41.731 50.8646 45.1811 49.599C48.7335 48.2959 52.721 49.0199 55.5879 51.4886C56.3628 52.1557 56.4492 53.3251 55.7811 54.1001C55.5677 54.3478 55.303 54.5254 55.0165 54.6305Z" fill="#7F184C"/>
<path d="M76.4323 87.6601C64.0915 92.1871 50.4248 85.8607 45.9067 73.5297L90.596 57.1363C95.1143 69.4673 88.7729 83.1332 76.4323 87.6601Z" fill="#7F184C"/>
<path d="M51.3573 71.5181L52.6358 75.0053C53.1749 76.4758 54.8038 77.2307 56.2743 76.6916L84.7279 66.26C86.1981 65.721 86.9534 64.092 86.4142 62.6215L85.1358 59.1343L51.3573 71.5181Z" fill="#F2F2F2"/>
<path d="M73.5079 78.2261C66.4408 77.6346 59.8885 80.4989 55.5216 85.401C61.5562 89.2259 69.2363 90.3061 76.463 87.6567C79.6473 86.4892 82.428 84.7088 84.7292 82.503C81.5767 80.1284 77.7375 78.5805 73.5079 78.2261Z" fill="#FC4C59"/>
<path d="M45.1685 78.98C43.6029 82.7916 39.244 84.6157 35.4319 83.0542C31.6198 81.4927 29.7992 77.1371 31.3647 73.3252C32.9302 69.5135 43.9146 62.401 43.9146 62.401C43.9146 62.401 46.7342 75.1686 45.1685 78.98Z" fill="#3FA9F5"/>
<path d="M92.6639 59.7991C96.3205 61.6948 100.825 60.2675 102.725 56.6105C104.625 52.9536 103.201 48.4525 99.5439 46.5564C95.8872 44.6606 82.9114 46.3378 82.9114 46.3378C82.9114 46.3378 89.0073 57.9031 92.6639 59.7991Z" fill="#3FA9F5"/>
<path d="M62.4859 26.0373C62.2644 23.1125 57.839 21.0632 52.6016 21.46C47.3641 21.8567 43.298 24.5494 43.5196 27.4741C43.7412 30.3989 48.1666 32.4482 53.404 32.0515C58.6414 31.6547 62.7075 28.962 62.4859 26.0373Z" fill="#FCEB88"/>
</svg>
