<svg width="94" height="98" viewBox="0 0 94 98" fill="none" xmlns="http://www.w3.org/2000/svg">
<path fill-rule="evenodd" clip-rule="evenodd" d="M38.6446 31.6953L35.5035 30.5531L31.0299 35.2171L32.648 37.7871L31.0299 41.5944L28.2695 42.8318V48.7332L31.0299 50.8273L32.648 53.9683L31.0299 57.0142L35.5035 61.9638L38.6446 60.536L42.452 61.9638L43.8797 65.2001H50.1619L51.1137 61.9638L55.1114 60.536L57.6814 61.9638L62.3454 57.6805L61.4888 54.5395L62.8214 50.8273L65.5817 49.5899V43.4029L63.4876 42.0703L61.4888 37.7871L62.3454 35.2171L58.5381 30.5531L55.1114 31.6953L51.8752 30.5531L50.1619 27.0312H43.8797L42.452 29.8868L38.6446 31.6953ZM45.4027 37.7871L39.7868 41.2137L38.6446 46.9247L40.6435 52.3502L45.4027 55.0154L51.4944 53.9683L55.1114 48.7332L54.7307 42.0703L51.1137 38.263L45.4027 37.7871Z" fill="#F32478"/>
<path d="M54.0574 53.1646C57.9523 49.2422 57.9303 42.882 54.0077 38.9867C50.0797 35.0863 43.7343 35.1042 39.8297 39.0362C35.9254 42.9677 35.9471 49.3094 39.8794 53.2141C43.8025 57.1101 50.1631 57.0863 54.0574 53.1646V53.1646ZM41.8916 51.1882C39.0798 48.396 39.0634 43.8607 41.856 41.0486C44.6452 38.2399 49.1834 38.2205 51.9955 41.0132C54.8008 43.7988 54.8168 48.3475 52.0311 51.1528H52.0313C49.2451 53.9576 44.6964 53.9736 41.8916 51.1882V51.1882Z" fill="white"/>
<path d="M52.4012 63.314C52.4005 63.1291 52.5168 62.9652 52.6906 62.906C53.437 62.6515 54.1728 62.3437 54.8775 61.9917C55.0399 61.9106 55.2371 61.9435 55.3683 62.0737C56.6543 63.3507 58.7393 63.3429 60.0163 62.0573L62.9908 59.0619C64.2676 57.776 64.2604 55.6909 62.9743 54.4137C62.8433 54.2837 62.809 54.0866 62.889 53.9239C63.2358 53.2174 63.5383 52.4794 63.7881 51.7304C63.8464 51.5563 64.0095 51.4388 64.1951 51.438C66.0074 51.4316 67.4763 49.952 67.4702 48.1399L67.4554 43.9185C67.4489 42.1064 65.9811 40.6434 64.1683 40.6434C64.1639 40.6434 64.1597 40.6436 64.1549 40.6434C63.9709 40.6434 63.8077 40.5275 63.7485 40.354C63.4938 39.6076 63.1862 38.8718 62.834 38.1669C62.7529 38.0045 62.7858 37.8075 62.9162 37.6763C64.193 36.3904 64.1856 34.3053 62.8998 33.0283L59.9044 30.0538C58.6169 28.7751 56.5364 28.781 55.2566 30.07C55.1262 30.2009 54.9295 30.2354 54.7666 30.1554C54.0597 29.8084 53.3217 29.5059 52.5729 29.2563C52.3989 29.1983 52.2815 29.0351 52.2809 28.8497C52.2746 27.006 50.7561 25.5541 48.9828 25.5744L44.7614 25.5893C42.9493 25.5958 41.48 27.0753 41.4863 28.8882C41.4869 29.0728 41.3707 29.2369 41.1969 29.2961C40.4499 29.551 39.7141 29.8589 39.0102 30.2105C38.8474 30.2916 38.6502 30.2586 38.5194 30.1286C37.2317 28.8499 35.1514 28.8558 33.8712 30.1448L30.8967 33.14C29.6168 34.4288 29.6237 36.5082 30.9129 37.7883C31.0438 37.9185 31.0783 38.1153 30.9981 38.2785C30.6509 38.9862 30.3484 39.7243 30.0992 40.4717C30.0412 40.6459 29.878 40.7631 29.6926 40.7639C27.8765 40.7702 26.4112 42.2452 26.4175 44.062L26.4322 48.2834C26.4384 50.095 27.9062 51.5585 29.7192 51.5585C29.7236 51.5585 29.7286 51.5591 29.7328 51.5585C29.9168 51.5585 30.08 51.6747 30.1392 51.8479C30.3939 52.5943 30.7017 53.3301 31.0535 54.0349C31.1346 54.1974 31.1017 54.3946 30.9717 54.5256C29.6947 55.8116 29.7021 57.8967 30.9879 59.1737L33.9831 62.1482C35.2711 63.427 37.3513 63.421 38.6311 62.132C38.7614 62.0008 38.9584 61.9664 39.1213 62.0467C39.8284 62.3937 40.5662 62.696 41.3146 62.9456C41.4888 63.0037 41.6062 63.1668 41.6068 63.3522C41.6131 65.1628 43.0799 66.6275 44.8929 66.6275H44.9049L49.1261 66.6127C50.9381 66.6066 52.4073 65.127 52.4012 63.314V63.314ZM44.8946 63.7722C44.8941 63.7722 44.8935 63.7722 44.8929 63.7722C44.6548 63.7722 44.4627 63.5807 44.4619 63.3418C44.457 61.9306 43.555 60.6829 42.2175 60.2369C41.59 60.0276 40.9715 59.7741 40.3791 59.4834C39.1116 58.8611 37.5953 59.1223 36.6045 60.12C36.4387 60.2871 36.1661 60.2919 35.9949 60.1221L32.9997 57.1476C32.8308 56.98 32.8299 56.7065 32.9974 56.5378C33.9913 55.5369 34.2367 54.0185 33.6077 52.759C33.3126 52.1683 33.0547 51.5515 32.8413 50.9258C32.3871 49.5951 31.1388 48.7032 29.7318 48.7032C29.7272 48.7032 29.7225 48.7028 29.7185 48.7032C29.4828 48.7032 29.2884 48.5138 29.2875 48.2737L29.2728 44.0523C29.2719 43.8147 29.4623 43.6206 29.7033 43.6198C31.1143 43.6149 32.3619 42.7129 32.808 41.3754C33.017 40.7489 33.2706 40.1302 33.5616 39.5368C34.1817 38.2733 33.9258 36.7565 32.9249 35.7624C32.756 35.5946 32.7541 35.3224 32.9228 35.1526L35.8973 32.1574C36.0715 31.982 36.3448 31.994 36.507 32.1553C37.508 33.1494 39.0265 33.3944 40.286 32.7656C40.8762 32.4707 41.4928 32.2129 42.1191 31.9992C43.4534 31.5438 44.3466 30.2898 44.3416 28.8779C44.3409 28.6401 44.5335 28.4459 44.7713 28.4452L48.9925 28.4303C49.209 28.4231 49.4243 28.606 49.4252 28.8608C49.4302 30.2718 50.3321 31.5194 51.6696 31.9655C52.2973 32.1749 52.9158 32.4283 53.508 32.7191C54.7725 33.3394 56.2884 33.0831 57.2827 32.0824C57.4466 31.9171 57.7184 31.9074 57.8922 32.0803L60.8875 35.0548C61.0563 35.2223 61.0573 35.4958 60.8898 35.6645C59.8956 36.6657 59.6504 38.1842 60.2794 39.4433C60.5747 40.034 60.8324 40.6508 61.0458 41.2762C61.4997 42.6071 62.7479 43.4991 64.1553 43.4991C64.1597 43.4991 64.1641 43.4993 64.1687 43.4991C64.4074 43.4991 64.5987 43.6912 64.5996 43.9286L64.6145 48.1498C64.6153 48.3876 64.4226 48.5818 64.1841 48.5825C62.7731 48.5875 61.5254 49.4894 61.079 50.827C60.8696 51.4548 60.616 52.0733 60.3253 52.6655C59.7053 53.9292 59.9613 55.4461 60.9623 56.4398C61.1309 56.6073 61.1319 56.8809 60.9644 57.0495L57.9899 60.045C57.8227 60.214 57.549 60.2146 57.3803 60.0471C56.3792 59.053 54.8608 58.8078 53.6013 59.4367C53.0106 59.7318 52.3938 59.9898 51.7683 60.2032C50.4338 60.6585 49.5406 61.9125 49.5455 63.3244C49.5463 63.5622 49.3536 63.7564 49.1159 63.7571L44.8946 63.7722Z" fill="white"/>
<path d="M91.9494 47.8003V34.7338C91.9494 15.5816 76.3677 0 57.2155 0H36.6714C17.519 0 1.93738 15.5816 1.93738 34.734V36.9158C1.93738 37.7043 2.57663 38.3436 3.36514 38.3436C4.15364 38.3436 4.7929 37.7043 4.7929 36.9158V34.734C4.7929 17.1562 19.0935 2.85552 36.6714 2.85552H57.2155C74.7934 2.85552 89.0938 17.1562 89.0938 34.734V46.5797C88.8802 46.5545 88.6636 46.5401 88.4433 46.5401H84.5937V34.7346C84.5937 19.6978 72.3603 7.46434 57.3235 7.46434H36.5634C21.5266 7.46434 9.2932 19.6978 9.2932 34.7346V46.5401C5.48451 46.5559 5.43977 46.5039 4.79309 46.5892V43.5519C4.79309 42.7634 4.15383 42.1241 3.36533 42.1241C2.57682 42.1241 1.93757 42.7634 1.93757 43.5519V47.8643C0.753097 48.877 0 50.3806 0 52.0573V70.7833C0 73.8253 2.47498 76.3005 5.51725 76.3005H9.46891C10.1057 78.8376 12.405 80.7222 15.1369 80.7222C18.9984 80.7222 22.1398 77.5807 22.1398 73.7193V49.1268C22.1398 45.2654 18.9984 42.1239 15.1369 42.1239C14.0456 42.1239 13.0237 42.4255 12.1487 42.9482V34.7344C12.1487 21.2721 23.1012 10.3197 36.5634 10.3197H57.3237C70.7861 10.3197 81.7384 21.2721 81.7384 34.7344V42.9482C80.8635 42.4253 79.8416 42.1239 78.7502 42.1239C74.8887 42.1239 71.7473 45.2654 71.7473 49.1268V73.7191C71.7473 77.5806 74.8887 80.722 78.7502 80.722C81.482 80.722 83.7812 78.8376 84.4182 76.3003H85.5497V80.8124C85.5497 86.5282 80.8994 91.1786 75.1836 91.1786H67.3039C66.6924 89.1921 64.8402 87.7441 62.6559 87.7441H52.8938C50.2128 87.7441 48.0316 89.9254 48.0316 92.6063C48.0316 95.2873 50.2128 97.4685 52.8938 97.4685H62.6559C64.8402 97.4685 66.6924 96.0206 67.3039 94.0341H75.1834C82.474 94.0341 88.4051 88.103 88.4051 80.8124V76.3003H88.4433C91.4854 76.3003 93.9604 73.8253 93.9604 70.7831V52.0571C93.9604 50.3453 93.1768 48.8131 91.9494 47.8003V47.8003ZM2.85552 70.7833V52.0573C2.85552 50.5898 4.04951 49.3956 5.51725 49.3956H9.29301V73.445H5.51725C4.04951 73.445 2.85552 72.2508 2.85552 70.7833ZM15.1367 44.9794C17.4236 44.9794 19.2841 46.8399 19.2841 49.1268V73.7191C19.2841 76.006 17.4236 77.8665 15.1367 77.8665C13.4891 77.8665 12.1485 76.5259 12.1485 74.8783V47.9714C12.1485 47.9699 12.1485 47.9682 12.1485 47.9667C12.1493 46.3194 13.4895 44.9794 15.1367 44.9794ZM62.6559 94.613H52.8938C51.7874 94.613 50.8871 93.7127 50.8871 92.6063C50.8871 91.4999 51.7874 90.5996 52.8938 90.5996H62.6559C63.7623 90.5996 64.6626 91.4999 64.6626 92.6063C64.6626 93.7127 63.7623 94.613 62.6559 94.613V94.613ZM91.1049 70.7833C91.1049 72.2508 89.9109 73.445 88.4433 73.445H84.5937V71.1057C84.5937 70.3172 83.9547 69.678 83.166 69.678C82.3773 69.678 81.7382 70.3172 81.7382 71.1057V74.8783C81.7382 76.5259 80.3976 77.8665 78.75 77.8665C76.4631 77.8665 74.6026 76.006 74.6026 73.7191V49.1268C74.6026 46.8399 76.4631 44.9794 78.75 44.9794C80.3976 44.9794 81.7382 46.32 81.7382 47.9676V64.4859C81.7382 65.2744 82.3773 65.9137 83.166 65.9137C83.9547 65.9137 84.5937 65.2744 84.5937 64.4859V49.3954H88.4433C89.9109 49.3954 91.1049 50.5894 91.1049 52.0571V70.7833Z" fill="white"/>
</svg>
