<svg width="98" height="98" viewBox="0 0 98 98" fill="none" xmlns="http://www.w3.org/2000/svg">
<path d="M69.0843 77.836L61.1083 84.8084L58.4431 74.0526L63.1071 72.8152L69.0843 77.836L75.4811 72.2441L79.7643 74.0526L77.3847 84.8084L69.0843 77.836Z" fill="#F32478"/>
<path d="M89.5137 74.7333L77.0316 71.1332V67.9683C78.6934 66.6342 80.0076 64.8871 80.822 62.8829H81.7478C85.2159 62.8829 88.0361 60.0627 88.0361 56.5946V44.018C88.0361 34.0951 80.33 25.9546 70.5905 25.2253C65.8605 10.3236 51.8815 0 36.1577 0C16.2204 0 0 16.2204 0 36.1577C0 56.0949 16.2204 72.3153 36.1577 72.3153C44.246 72.3153 52.0526 69.5765 58.3931 64.6154C59.163 65.8981 60.1494 67.0349 61.3108 67.9683V71.1332L48.8287 74.7349C44.1455 76.0836 40.8739 80.4321 40.8739 85.3072V97.4685H97.4685V85.3072C97.4685 80.4321 94.1969 76.0836 89.5137 74.7333V74.7333ZM78.2889 74.7679L76.1688 82.1876L71.5247 78.4731L75.9154 74.0824L78.2889 74.7679ZM68.7329 88.0361H69.6095L71.7051 94.3244H66.6358L68.7329 88.0361ZM70.0923 84.8919H68.2501L66.285 82.9268L69.1712 80.6171L72.0574 82.9268L70.0923 84.8919ZM81.7478 59.7388H81.6395C81.704 59.2229 81.7478 58.6994 81.7478 58.1667V53.4505C83.4818 53.4505 84.8919 54.8606 84.8919 56.5946C84.8919 58.3287 83.4818 59.7388 81.7478 59.7388ZM84.8919 44.018V51.1806C83.9631 50.6395 82.8984 50.3063 81.7478 50.3063H81.4584C80.8074 48.4809 79.078 47.1622 77.0316 47.1622H71.3988C70.1852 47.1622 68.9701 46.8743 67.8839 46.3324L64.392 44.5868C63.6451 44.2145 62.8138 44.018 61.9817 44.018C59.0126 44.018 56.5946 46.436 56.5946 49.4051V50.3063C55.444 50.3063 54.3793 50.6395 53.4505 51.1806V39.5567C53.4505 37.2615 54.9143 35.2319 57.0913 34.5058L57.5564 34.3499L57.852 33.9569C60.511 30.4136 64.7413 28.2973 69.1712 28.2973C77.8399 28.2973 84.8919 35.3494 84.8919 44.018V44.018ZM50.3063 39.5567V56.5946C50.3063 57.2847 50.446 57.9387 50.6525 58.5612C46.3132 61.3799 41.3345 62.8829 36.1577 62.8829C21.421 62.8829 9.43244 50.8943 9.43244 36.1577C9.43244 21.421 21.421 9.43244 36.1577 9.43244C47.5491 9.43244 57.4659 16.4799 61.2763 27.0914C59.1101 28.2044 57.1665 29.7542 55.6259 31.6932C52.4257 32.9744 50.3063 36.0725 50.3063 39.5567ZM53.4505 56.5946C53.4505 54.8606 54.8606 53.4505 56.5946 53.4505V58.1667C56.5946 58.6994 56.6384 59.2229 56.7028 59.7388H56.5946C54.8606 59.7388 53.4505 58.3287 53.4505 56.5946ZM3.14415 36.1577C3.14415 17.9529 17.9529 3.14415 36.1577 3.14415C50.1896 3.14415 62.7056 12.149 67.2959 25.2614C66.2374 25.3781 65.2049 25.6137 64.194 25.92C59.9084 14.1172 48.8509 6.28829 36.1577 6.28829C19.687 6.28829 6.28829 19.687 6.28829 36.1577C6.28829 52.6284 19.687 66.0271 36.1577 66.0271C41.9416 66.0271 47.503 64.3513 52.3497 61.2041C53.2509 62.0339 54.3862 62.595 55.6512 62.787C50.0139 66.9198 43.1959 69.1712 36.1577 69.1712C17.9529 69.1712 3.14415 54.3624 3.14415 36.1577V36.1577ZM59.7388 58.1667V49.4051C59.7388 48.1685 60.7451 47.1622 61.9817 47.1622C62.3279 47.1622 62.6756 47.2435 62.985 47.3994L66.4769 49.1449C67.9967 49.9056 69.6978 50.3063 71.3988 50.3063H77.0316C77.8974 50.3063 78.6036 51.0125 78.6036 51.8784V58.1667C78.6036 63.3688 74.3733 67.5991 69.1712 67.5991C63.9691 67.5991 59.7388 63.3688 59.7388 58.1667ZM69.1712 70.7433C70.8392 70.7433 72.4305 70.4101 73.8874 69.8175V71.6644L69.1712 76.3806L64.455 71.6644V69.8175C65.9119 70.4101 67.5032 70.7433 69.1712 70.7433ZM62.4269 74.0824L66.8177 78.4731L62.1736 82.1876L60.0535 74.7679L62.4269 74.0824ZM44.018 85.3072C44.018 81.8245 46.3539 78.7203 49.6991 77.7547L57.0314 75.6406L60.448 87.5962L63.8133 84.9027L65.7991 86.8885L63.3212 94.3244H53.4505V86.464H50.3063V94.3244H44.018V85.3072ZM94.3244 94.3244H88.0361V86.464H84.8919V94.3244H75.0212L72.5418 86.8885L74.5276 84.9027L77.8928 87.5962L81.3095 75.6406L88.6409 77.7547C91.9885 78.7203 94.3244 81.8245 94.3244 85.3072V94.3244Z" fill="white"/>
<path d="M37.7297 31.7304V12.5762H34.5856V31.7304C32.7602 32.3814 31.4414 34.1108 31.4414 36.1573C31.4414 36.9372 31.6502 37.6633 31.9872 38.3127L22.3989 49.2712L24.7647 51.3422L34.2724 40.4759C34.8512 40.7292 35.4867 40.8735 36.1576 40.8735C38.7575 40.8735 40.8738 38.7572 40.8738 36.1573C40.8738 34.1108 39.5551 32.3814 37.7297 31.7304ZM36.1576 37.7293C35.2918 37.7293 34.5856 37.0231 34.5856 36.1573C34.5856 35.2914 35.2918 34.5852 36.1576 34.5852C37.0235 34.5852 37.7297 35.2914 37.7297 36.1573C37.7297 37.0231 37.0235 37.7293 36.1576 37.7293Z" fill="#F32478"/>
<path d="M2.90235 57.0921L0 52.4941V67.6H3.14415V62.8316C11.1665 72.7891 23.1804 78.6045 36.1577 78.6045V75.4604C22.5909 75.4604 10.1571 68.5933 2.90235 57.0921V57.0921Z" fill="white"/>
<path d="M44.0181 34.5859H47.1622V37.7301H44.0181V34.5859Z" fill="#F32478"/>
<path d="M25.1531 34.5859H28.2972V37.7301H25.1531V34.5859Z" fill="#F32478"/>
</svg>
