<svg width="78" height="98" viewBox="0 0 78 98" fill="none" xmlns="http://www.w3.org/2000/svg">
<path d="M17.0607 57.7109C11.183 55.111 8.04385 39.7998 11.7519 31.7109C17.4399 32.1924 28.1523 32.1924 28.1523 32.1924L27.7731 57.0369C26.9515 57.1011 22.6539 57.7109 17.0607 57.7109Z" fill="#F32478"/>
<path d="M77.7929 48.5618L75.1926 38.8894L77.7763 29.2132C77.9078 28.7203 77.7666 28.1947 77.4056 27.8343L70.3167 20.7584L67.7167 11.086C67.5842 10.5933 67.1989 10.2088 66.706 10.0772L57.03 7.49354L49.9409 0.417379C49.5798 0.057013 49.054 -0.0836688 48.5617 0.0492079L38.8891 2.64925L29.2131 0.0657699C28.7206 -0.0655838 28.1948 0.0752883 27.8343 0.436606L20.7585 7.52533L11.0859 10.1256C10.5932 10.2579 10.2089 10.6432 10.0771 11.136L7.49346 20.8122L0.417487 27.9012C0.0569305 28.2621 -0.0833707 28.7879 0.0489349 29.2806L2.64917 38.9512L1.0478 44.9494C0.844482 45.7112 1.29718 46.4936 2.05903 46.6971C2.82088 46.901 3.60329 46.4477 3.80679 45.6859L5.50697 39.3181C5.57169 39.0759 5.5715 38.821 5.5064 38.5791L3.02077 29.335L9.78453 22.5589C9.96177 22.3814 10.0889 22.1606 10.1535 21.9187L12.6235 12.6691L21.8693 10.1836C22.1112 10.1185 22.3321 9.99098 22.5091 9.81355L29.2729 3.03741L38.5221 5.50705C38.764 5.57178 39.0189 5.5714 39.2611 5.50648L48.5071 3.02104L55.2832 9.785C55.4606 9.96204 55.6814 10.0892 55.9234 10.1539L65.1728 12.6236L67.6582 21.8694C67.7234 22.1113 67.8511 22.3321 68.0283 22.5092L74.8047 29.2731L72.3348 38.5223C72.2701 38.7645 72.2703 39.0194 72.3354 39.2614L74.821 48.5073L68.0571 55.2837C67.88 55.4611 67.7529 55.6819 67.6881 55.9239L65.2183 65.1731L55.9729 67.6583C55.7308 67.7234 55.5097 67.8512 55.3327 68.0286L48.5689 74.8047L39.3205 72.3336C39.0778 72.2687 38.8227 72.2688 38.5801 72.3341L29.3347 74.8213L22.5586 68.0573C22.381 67.8803 22.1602 67.7529 21.9182 67.6884L19.9833 67.1714C19.982 67.171 19.9808 67.1704 19.9795 67.1702C19.9782 67.1698 19.9768 67.1697 19.9755 67.1693L12.6692 65.2171L10.1835 55.973C10.1182 55.7308 9.9907 55.5102 9.81328 55.3332L4.99888 50.5283C4.44053 49.9713 3.53647 49.9722 2.97984 50.5304C2.42282 51.0885 2.42377 51.9924 2.98193 52.5494L7.52544 57.084L10.1255 66.7543C10.258 67.2468 10.6431 67.6313 11.1358 67.7628L17.8611 69.5599L12.0973 91.0661C11.9622 91.57 12.1129 92.1078 12.4902 92.4682C12.8675 92.8286 13.4114 92.9548 13.9089 92.7964L23.104 89.8735L29.6052 97.0028C29.8792 97.3032 30.2639 97.4684 30.6603 97.4684C30.7726 97.4684 30.886 97.4551 30.9978 97.4278C31.5049 97.3045 31.9043 96.9142 32.0393 96.4101L37.6298 75.5464L38.9527 75.1906L40.2053 75.5253L45.8019 96.4101C45.9369 96.9141 46.3363 97.3043 46.8434 97.4278C46.9554 97.4551 47.0686 97.4684 47.181 97.4684C47.5773 97.4684 47.962 97.3032 48.236 97.0028L54.7376 89.8733L63.9329 92.7964C64.4304 92.9548 64.9744 92.8286 65.3516 92.4682C65.7289 92.1078 65.8796 91.5702 65.7445 91.0661L63.4296 82.4273C63.2257 81.6658 62.4426 81.2138 61.6809 81.4177C60.9192 81.6218 60.4673 82.4048 60.6714 83.1665L62.3106 89.2845L54.7313 86.875C54.2004 86.7061 53.6194 86.8617 53.2438 87.2736L47.8846 93.1505L43.3894 76.3764L48.6285 77.7762C49.1208 77.9077 49.647 77.7667 50.0075 77.4054L57.0833 70.3166L57.2187 70.2803L59.0039 76.945C59.1747 77.5832 59.7517 78.0039 60.382 78.0039C60.5044 78.0039 60.6287 77.9881 60.7523 77.9549C61.5139 77.7509 61.9661 76.9681 61.762 76.2064L59.976 69.5392L66.7557 67.7166C67.2484 67.5841 67.6327 67.199 67.7645 66.7061L70.3481 57.0299L77.4243 49.941C77.7849 49.58 77.9252 49.0543 77.7929 48.5618V48.5618ZM29.9567 93.1503L24.598 87.2738C24.2222 86.8621 23.6416 86.7065 23.1105 86.8752L15.5312 89.2843L20.6199 70.2968L20.8124 70.3482L27.9011 77.4242C28.1723 77.6949 28.5365 77.8415 28.9098 77.8415C29.0334 77.8415 29.1581 77.8255 29.2805 77.7926L34.4442 76.4036L29.9567 93.1503Z" fill="white"/>
<path d="M38.9211 11.8633C42.8905 11.8633 46.7133 12.7027 50.2833 14.3579C50.9992 14.6899 51.8475 14.3785 52.1791 13.6633C52.511 12.9479 52.1999 12.099 51.4847 11.7674C47.5353 9.93624 43.3086 9.00781 38.9213 9.00781C25.4121 9.00781 13.5434 18.099 10.0364 31.1231C10.0351 31.1275 10.0339 31.132 10.0326 31.1366C10.0286 31.1514 10.0242 31.1661 10.0202 31.1808C9.34917 33.6929 9.00879 36.2969 9.00879 38.9204C9.00879 45.7611 11.2557 52.198 15.5062 57.5344C15.5091 57.538 15.5121 57.5414 15.5148 57.5448C15.519 57.55 15.5232 57.5553 15.5276 57.5605C21.2398 64.7246 29.7642 68.8329 38.9211 68.8329C55.415 68.8329 68.8337 55.4142 68.8337 38.9204C68.8337 29.997 64.8919 21.6054 58.0193 15.8972C57.4127 15.3935 56.5125 15.4767 56.0086 16.0834C55.5047 16.6901 55.5881 17.5902 56.1948 18.0941C62.4122 23.258 65.9782 30.8489 65.9782 38.9206C65.9782 53.8399 53.8405 65.9776 38.9211 65.9776C31.6712 65.9776 24.8592 63.1303 19.8072 58.0735H28.4728C29.2615 58.0735 29.9006 57.4342 29.9006 56.6457V55.0274C31.1846 55.2005 32.1777 55.5304 33.1277 56.2585C34.0041 56.9305 35.0866 57.3006 36.1753 57.3006H51.8449C54.2431 57.3006 56.1942 55.3495 56.1942 52.9513C56.1942 52.1104 55.9543 51.3244 55.5395 50.6583C56.6517 49.8696 57.3787 48.5722 57.3787 47.1083C57.3787 46.2219 57.1122 45.3967 56.6551 44.7083C57.6852 43.9122 58.3497 42.6649 58.3497 41.2653C58.3497 40.383 58.0855 39.561 57.6321 38.8747C58.669 38.0791 59.3389 36.8275 59.3389 35.4223C59.3389 33.0241 57.3878 31.073 54.9895 31.073H46.2833C47.3238 27.2885 47.1498 23.3338 45.7653 18.7958C45.2496 17.1053 43.71 15.9696 41.9341 15.9696C40.8401 15.9696 39.7805 16.4247 39.027 17.2182C38.2735 18.0118 37.8737 19.0939 37.9305 20.1868C38.1918 25.2167 35.9569 26.8847 32.5737 29.4094C31.7239 30.0435 30.8149 30.7227 29.8981 31.5032C29.8729 30.7368 29.2453 30.1227 28.4726 30.1227H13.3269C17.0456 19.2827 27.3134 11.8633 38.9211 11.8633ZM34.2815 31.6976C37.7995 29.072 41.1228 26.5923 40.7822 20.0385C40.7656 19.7194 40.8776 19.416 41.0976 19.1841C41.3175 18.9525 41.6145 18.8249 41.9339 18.8249C42.4372 18.8249 42.8896 19.1554 43.0337 19.6288C44.4599 24.3033 44.4414 28.2283 42.9754 31.9813C42.8039 32.4206 42.8604 32.9163 43.1264 33.3058C43.3923 33.6953 43.8338 33.9283 44.3053 33.9283H54.9892C55.8129 33.9283 56.483 34.5984 56.483 35.4222C56.483 36.2459 55.8129 36.916 54.9892 36.916H51.3549C50.5662 36.916 49.9271 37.5552 49.9271 38.3437C49.9271 39.1322 50.5662 39.7715 51.3549 39.7715H54C54.8235 39.7715 55.4938 40.4416 55.4938 41.2651C55.4938 42.0889 54.8235 42.7589 54 42.7589H51.3549C50.5662 42.7589 49.9271 43.3982 49.9271 44.1867C49.9271 44.9752 50.5662 45.6145 51.3549 45.6145H53.0288C53.8525 45.6145 54.5226 46.2846 54.5226 47.1083C54.5226 47.932 53.8525 48.6021 53.0288 48.6021H50.3834C49.5947 48.6021 48.9556 49.2414 48.9556 50.0299C48.9556 50.8184 49.5947 51.4576 50.3834 51.4576H51.8443C52.668 51.4576 53.3381 52.1277 53.3381 52.9515C53.3381 53.7752 52.668 54.4453 51.8443 54.4453H36.1747C35.7106 54.4453 35.2451 54.2844 34.8644 53.9926C33.2474 52.7525 31.5524 52.3324 29.9 52.1492V35.4361C31.3064 33.9192 32.8168 32.7909 34.2815 31.6976V31.6976ZM27.045 35.2145C27.045 35.2158 27.0448 35.2169 27.0448 35.2181V53.7957C27.0448 53.7971 27.045 53.7982 27.045 53.7993V55.2176H17.3231C13.7497 50.4993 11.8641 44.8796 11.8641 38.9202C11.8641 36.9127 12.0867 34.919 12.5215 32.9778H27.045V35.2145Z" fill="white"/>
</svg>
