<svg width="90" height="98" viewBox="0 0 90 98" fill="none" xmlns="http://www.w3.org/2000/svg">
<path d="M63.9892 47.9755C63.7337 47.3872 63.5581 46.7668 63.4667 46.1315C63.2292 44.481 62.7728 42.8669 62.1105 41.3337C61.798 40.6103 60.9585 40.2767 60.2341 40.5896C59.5104 40.9023 59.1773 41.7423 59.49 42.4659C60.0522 43.7673 60.4395 45.1374 60.6411 46.538C60.7688 47.4245 61.0141 48.2905 61.3702 49.1115L64.4686 56.2561C65.7772 59.2734 65.3593 62.6295 63.3506 65.2338C61.6393 67.4526 59.1061 68.6881 56.384 68.6984C57.173 67.0362 57.6163 65.179 57.6163 63.2199V50.0842C57.6163 48.4922 56.3695 47.2121 54.7777 47.17L46.7019 46.9573C43.9478 46.8846 41.2544 45.8871 39.1174 44.1487L38.5859 43.7161C38.0899 43.3125 37.4668 43.1282 36.8308 43.1956C36.1949 43.2635 35.6247 43.5759 35.2252 44.0751C33.13 46.6929 31.9761 49.9811 31.9761 53.3339V63.2199C31.9761 65.179 32.4193 67.036 33.2084 68.6984C30.4865 68.6883 27.9531 67.4528 26.2419 65.2338C24.2331 62.6295 23.8152 59.2736 25.1238 56.2561L28.2222 49.1117C28.5783 48.2905 28.8236 47.4245 28.9513 46.538C29.4996 42.7274 31.4042 39.2402 34.3138 36.7192C37.2234 34.1983 40.9462 32.8099 44.796 32.8099C49.1467 32.8099 53.2178 34.5271 56.2591 37.6455C56.8094 38.2102 57.7132 38.221 58.2775 37.6708C58.8418 37.1206 58.8532 36.2166 58.3028 35.6525C54.7196 31.9784 49.9228 29.9551 44.7958 29.9551C40.2594 29.9551 35.8727 31.5911 32.4443 34.5616C29.0159 37.5321 26.7716 41.6411 26.1255 46.1313C26.0341 46.7668 25.8585 47.3872 25.603 47.9755L22.5046 55.1201C20.7764 59.1052 21.3283 63.5377 23.9813 66.9773C26.2507 69.9197 29.6129 71.5595 33.2252 71.5593C33.7984 71.5593 34.3789 71.5163 34.9614 71.4323C35.9684 72.6361 37.192 73.652 38.5714 74.4217V77.1764L31.2732 80.1043C26.1597 82.1559 22.8556 87.042 22.8556 92.5517V96.0401C22.8556 96.8286 23.4945 97.4675 24.283 97.4675C25.0715 97.4675 25.7104 96.8286 25.7104 96.0401V92.5517C25.7104 88.2147 28.3113 84.3687 32.3364 82.7539L38.9056 80.1183C39.7261 82.4775 41.9707 84.1758 44.6057 84.1758C47.2407 84.1758 49.4853 82.4773 50.3058 80.1183L56.8758 82.7543C57.0482 82.8233 57.2303 82.9035 57.4492 83.0064C57.6456 83.0987 57.8523 83.1425 58.0559 83.1425C58.5917 83.1425 59.1054 82.8393 59.3486 82.3222C59.6841 81.6089 59.3777 80.7586 58.6644 80.423C58.394 80.2959 58.1631 80.1947 57.9383 80.1044L50.6401 77.1764V74.6244C52.1754 73.8344 53.5322 72.7457 54.6308 71.4323C55.2135 71.5165 55.7934 71.5593 56.367 71.5593C59.9791 71.5593 63.3417 69.9195 65.6109 66.9773C68.2637 63.5379 68.8158 59.1054 67.0876 55.1201L63.9892 47.9755ZM47.7854 78.1419C47.7854 79.8949 46.3591 81.3212 44.6059 81.3212C42.8527 81.3212 41.4264 79.8949 41.4264 78.1419V75.5872C42.5009 75.8803 43.6301 76.0398 44.7962 76.0398C45.8254 76.0398 46.8256 75.9146 47.7854 75.6843V78.1419ZM44.7962 73.185C39.3015 73.185 34.8311 68.7148 34.8311 63.2201V53.3341C34.8311 50.7869 35.6559 48.2861 37.1627 46.2388L37.3159 46.3635C39.9392 48.4975 43.2459 49.7218 46.6267 49.8111L54.7023 50.0239C54.7356 50.0248 54.7617 50.0515 54.7617 50.0844V63.2201C54.7613 68.7148 50.2909 73.185 44.7962 73.185V73.185Z" fill="white"/>
<path d="M61.8992 84.4638C61.2558 84.9192 61.1033 85.8101 61.5589 86.4534C62.8297 88.2487 63.5013 90.3576 63.5013 92.5526V96.0409C63.5013 96.8294 64.1403 97.4683 64.9287 97.4683C65.7172 97.4683 66.3561 96.8294 66.3561 96.0409V92.5526C66.3561 89.7634 65.5031 87.0841 63.8888 84.8041C63.4334 84.1604 62.5425 84.0082 61.8992 84.4638V84.4638Z" fill="white"/>
<path d="M17.8152 21.3773C14.6355 19.2046 10.6582 18.7979 6.90248 20.2631C4.16283 21.3316 1.97244 23.5081 0.892189 26.2342C0.18934 28.0086 -0.100708 29.8231 0.0308032 31.6275C0.0882797 32.4137 0.769623 33.0052 1.55812 32.9475C2.34433 32.8903 2.93527 32.2064 2.87817 31.4202C2.77826 30.0482 3.00302 28.6572 3.54638 27.2859C4.33545 25.2944 5.93699 23.7043 7.9401 22.9229C10.8033 21.8061 13.8158 22.1018 16.2047 23.7344C18.5396 25.3296 19.9333 27.9676 19.9333 30.7908C19.9333 32.5627 19.3956 34.2615 18.3786 35.7043C18.3668 35.7211 18.3553 35.7382 18.3441 35.7553L13.5482 43.2216C13.4006 43.4519 13.322 43.7194 13.322 43.9931V44.6433H12.8212V37.4973C14.2711 37.3671 15.4115 36.1468 15.4115 34.6637V32.3214C15.4115 30.7518 14.1344 29.4748 12.5649 29.4748H10.2226C8.65304 29.4748 7.37599 30.7518 7.37599 32.3214V34.6637C7.37599 36.1466 8.51658 37.3671 9.96624 37.4973V44.6434H9.46551V43.9933C9.46551 43.7196 9.38691 43.452 9.23922 43.2218L4.87481 36.4272C4.44888 35.7639 3.5658 35.5717 2.90234 35.9976C2.23927 36.4235 2.04686 37.3068 2.47279 37.9701L6.61072 44.4122V45.4348C6.61072 45.843 6.73138 46.2229 6.93674 46.5436V48.0216C6.93674 50.3178 8.80491 52.1862 11.1015 52.1862H11.6858C13.9822 52.1862 15.8505 50.318 15.8505 48.0216V46.5436C16.0559 46.2229 16.1766 45.843 16.1766 45.4348V44.4122L20.7299 37.3234C22.0763 35.4023 22.7879 33.1441 22.7879 30.791C22.7879 27.024 20.929 23.505 17.8152 21.3773V21.3773ZM12.5565 32.3214L12.5656 34.6555L11.4696 34.6593C11.4443 34.658 11.4191 34.6555 11.3934 34.6555C11.3639 34.6555 11.335 34.6581 11.3061 34.6599L10.2306 34.6637L10.2224 32.3296L12.5565 32.3214ZM12.9957 48.0214C12.9957 48.7437 12.408 49.3312 11.6858 49.3312H11.1015C10.3792 49.3312 9.79153 48.7437 9.79153 48.0214V47.498H12.9957V48.0214Z" fill="white"/>
<path d="M44.6058 25.3443C51.5934 25.3443 57.2781 19.6596 57.2781 12.672C57.2781 5.68465 51.5934 0 44.6058 0C37.6182 0 31.9336 5.68465 31.9336 12.672C31.9336 19.6596 37.6182 25.3443 44.6058 25.3443ZM44.6058 2.85479C50.0191 2.85479 54.4233 7.25878 54.4233 12.672C54.4233 18.0853 50.0191 22.4895 44.6058 22.4895C39.1926 22.4895 34.7884 18.0853 34.7884 12.672C34.7884 7.25878 39.1926 2.85479 44.6058 2.85479Z" fill="white"/>
<path d="M42.096 17.4352C42.3746 17.7138 42.74 17.8531 43.1052 17.8531C43.4705 17.8531 43.8359 17.7138 44.1147 17.4352L50.7831 10.7667C51.3406 10.2091 51.3406 9.30547 50.7831 8.74802C50.2255 8.19076 49.3218 8.19076 48.7644 8.74802L43.1054 14.4072L42.1451 13.447C41.5878 12.8898 40.684 12.8896 40.1266 13.4472C39.5691 14.0046 39.5691 14.9085 40.1267 15.4657L42.096 17.4352Z" fill="white"/>
<path d="M72.6255 27.2236L65.8674 28.4609L70.9122 34.2672V35.1238V41.9771L76.9088 38.7408L84.4283 41.2156L83.3813 34.2672L88.1405 28.4609L80.9065 27.2236L76.9088 20.9414L72.6255 27.2236Z" fill="#F32478"/>
<path d="M89.4986 28.3914C89.2348 27.5789 88.5459 26.9982 87.7007 26.8753L81.7686 26.0133L79.1157 20.6377C78.7378 19.8721 77.9725 19.3965 77.1187 19.3965C76.2651 19.3965 75.4999 19.8721 75.1219 20.6377L72.4688 26.0133L66.5366 26.8753C65.6916 26.9982 65.0026 27.5789 64.739 28.3912C64.4752 29.2033 64.6912 30.0778 65.3025 30.6737L69.5952 34.8578L68.5817 40.7663C68.4377 41.6079 68.7772 42.4425 69.4679 42.9441C70.1585 43.4462 71.057 43.5111 71.813 43.1137L77.1189 40.3242L82.425 43.1137C82.7537 43.2865 83.1094 43.3718 83.4632 43.3718C83.923 43.3718 84.3798 43.2275 84.7703 42.944C85.461 42.4419 85.8003 41.6075 85.6559 40.7661L84.6426 34.858L88.9349 30.6739C89.5462 30.078 89.7624 29.2033 89.4986 28.3914ZM82.4134 33.0437C81.8885 33.5553 81.6489 34.2922 81.7728 35.0151L82.6268 39.9948L78.155 37.6437C77.8305 37.4732 77.4746 37.3878 77.1187 37.3878C76.7628 37.3878 76.4067 37.473 76.0822 37.6436L71.6103 39.9948L72.4645 35.0147C72.5882 34.292 72.3487 33.5551 71.824 33.0439L68.2061 29.5175L73.2063 28.791C73.9318 28.6852 74.5585 28.2298 74.8825 27.5728L77.1185 23.0421L79.3542 27.572C79.6783 28.2296 80.3052 28.6852 81.0313 28.7908L86.031 29.5173L82.4134 33.0437Z" fill="white"/>
<path d="M59.7415 18.3105C61.9197 19.1601 64.0302 20.2007 66.0405 21.4091C65.4121 21.7043 65.0758 22.4208 65.28 23.1065C65.4646 23.726 66.0323 24.1267 66.6475 24.1267C66.7824 24.1267 66.9196 24.1072 67.0557 24.0669L69.7598 23.2615C70.3648 23.0814 70.7795 22.5249 70.7795 21.8934V18.9686C70.7795 18.1801 70.1406 17.5412 69.3521 17.5412C68.5636 17.5412 67.9247 18.1801 67.9247 18.9686V19.2153C65.653 17.8159 63.2573 16.6176 60.779 15.6508C60.0445 15.3642 59.217 15.7273 58.9304 16.4619C58.6441 17.1964 59.0071 18.0239 59.7415 18.3105Z" fill="white"/>
<path d="M22.0816 21.8252C22.3365 21.8252 22.5945 21.7571 22.8275 21.6139C24.1601 20.7952 25.5477 20.0487 26.9658 19.3845L26.8916 19.6624C26.6879 20.4239 27.1403 21.2063 27.902 21.4101C28.0253 21.443 28.1494 21.4588 28.2714 21.4588C28.9017 21.4588 29.479 21.0376 29.6495 20.3997L30.5212 17.138C30.7153 16.4123 30.3133 15.6602 29.6021 15.4183L26.9863 14.528C26.2407 14.2733 25.4292 14.6728 25.1753 15.4194C24.9916 15.9588 25.1503 16.5307 25.5336 16.903C24.0952 17.5864 22.6876 18.3496 21.3333 19.1816C20.6617 19.5945 20.4515 20.4733 20.8642 21.145C21.1336 21.5835 21.602 21.8252 22.0816 21.8252V21.8252Z" fill="white"/>
</svg>
