<svg width="90" height="98" viewBox="0 0 90 98" fill="none" xmlns="http://www.w3.org/2000/svg">
<path d="M88.3372 0H22.589C21.7927 0 21.1472 0.64554 21.1472 1.44185V21.6276C21.1472 22.4239 21.7927 23.0694 22.589 23.0694C23.3853 23.0694 24.0309 22.4239 24.0309 21.6276V2.8837H86.8953V82.762C86.8953 89.2813 81.5915 94.5852 75.0721 94.5852C68.5527 94.5852 63.2489 89.2813 63.2489 82.762C63.2489 81.9657 62.6033 81.3201 61.807 81.3201H50.849C50.0527 81.3201 49.4072 81.9657 49.4072 82.762C49.4072 83.5583 50.0527 84.2038 50.849 84.2038H60.4354C60.8381 88.3101 63.0218 92.1308 66.3346 94.5852H18.9364C12.905 94.5852 7.91388 90.0458 7.20076 84.2038H22.589H44.1206C44.917 84.2038 45.5625 83.5583 45.5625 82.762C45.5625 81.9657 44.917 81.3201 44.1206 81.3201H24.0309V30.0864C24.0309 29.2901 23.3853 28.6446 22.589 28.6446C21.7927 28.6446 21.1472 29.2901 21.1472 30.0864V81.3199H5.67134C4.87503 81.3199 4.22949 81.9655 4.22949 82.7618C4.22949 90.8711 10.8269 97.4685 18.9362 97.4685H75.0721C83.1814 97.4685 89.7788 90.8711 89.7788 82.7618V1.44185C89.779 0.64554 89.1335 0 88.3372 0Z" fill="white"/>
<path d="M11.4221 42.7383H1.61816V48.3541H11.4221V42.7383Z" fill="#F32478" stroke="black"/>
<path d="M45.5933 21.1318L55.302 32.078L66.6289 19.4185V16.9437L65.3915 12.4701L60.442 10.5664L57.0153 12.4701L55.302 15.4208L53.6839 12.4701L49.0199 10.5664L45.5933 12.4701L44.0703 16.9437L45.5933 21.1318Z" fill="#F32478"/>
<path d="M55.4542 33.3545H55.4717C55.4731 33.3545 55.4742 33.3545 55.4755 33.3545C55.8974 33.3545 56.2768 33.1735 56.5405 32.8847C57.0571 32.4516 58.6277 31.1069 60.4542 29.2715C65.543 24.1586 68.1232 19.8534 68.1232 16.4753C68.1232 16.202 68.1074 15.9265 68.0762 15.6571C67.6648 12.1013 64.6519 9.41992 61.0678 9.41992C58.7918 9.41992 56.756 10.5012 55.463 12.1886C54.17 10.5012 52.134 9.41992 49.8582 9.41992C45.9678 9.41992 42.8027 12.585 42.8027 16.4753C42.8027 22.9557 52.6853 31.4691 54.4047 32.9013C54.6716 33.1845 55.0482 33.3545 55.4542 33.3545ZM45.6862 16.4753C45.6862 14.1751 47.5576 12.3036 49.858 12.3036C52.048 12.3036 53.8624 13.9964 54.0188 16.17C54.0145 16.2713 54.0124 16.3731 54.0124 16.4753C54.0124 17.2717 54.6754 17.9172 55.4717 17.9172C56.268 17.9172 56.9136 17.2717 56.9136 16.4753C56.9136 16.3731 56.9115 16.2713 56.9071 16.17C57.0636 13.9962 58.8778 12.3036 61.068 12.3036C63.1872 12.3036 64.9686 13.8879 65.2117 15.9888C65.2302 16.1485 65.2395 16.3122 65.2395 16.4753C65.2395 18.9907 62.8142 22.8125 58.4104 27.2372C57.2439 28.4093 56.1763 29.3802 55.4599 30.0098C52.0657 27.0358 45.6862 20.5953 45.6862 16.4753Z" fill="white"/>
<path d="M33.1623 62.0946H55.4628C56.2591 62.0946 56.9046 61.4491 56.9046 60.6528C56.9046 59.8565 56.2591 59.2109 55.4628 59.2109H33.1623C32.366 59.2109 31.7205 59.8565 31.7205 60.6528C31.7205 61.4491 32.366 62.0946 33.1623 62.0946Z" fill="white"/>
<path d="M33.1623 52.4833H77.7633C78.5596 52.4833 79.2051 51.8378 79.2051 51.0415C79.2051 50.2451 78.5596 49.5996 77.7633 49.5996H33.1623C32.366 49.5996 31.7205 50.2451 31.7205 51.0415C31.7205 51.8378 32.366 52.4833 33.1623 52.4833Z" fill="white"/>
<path d="M77.7634 74.5918H65.4597C64.6634 74.5918 64.0178 75.2373 64.0178 76.0336C64.0178 76.83 64.6634 77.4755 65.4597 77.4755H77.7634C78.5597 77.4755 79.2052 76.83 79.2052 76.0336C79.2052 75.2373 78.5597 74.5918 77.7634 74.5918Z" fill="white"/>
<path d="M33.1623 77.4755H45.466C46.2623 77.4755 46.9078 76.83 46.9078 76.0336C46.9078 75.2373 46.2623 74.5918 45.466 74.5918H33.1623C32.366 74.5918 31.7205 75.2373 31.7205 76.0336C31.7205 76.83 32.366 77.4755 33.1623 77.4755Z" fill="white"/>
<path d="M31.7205 41.4282C31.7205 42.2245 32.366 42.87 33.1623 42.87H77.7633C78.5596 42.87 79.2051 42.2245 79.2051 41.4282C79.2051 40.6319 78.5596 39.9863 77.7633 39.9863H33.1623C32.366 39.9863 31.7205 40.6319 31.7205 41.4282Z" fill="white"/>
<path d="M6.41674 74.3989C6.42454 74.3989 6.43254 74.3991 6.44034 74.3991C6.93778 74.3991 7.40094 74.1423 7.66441 73.7191L13.0475 65.0678C13.1897 64.8392 13.265 64.5753 13.265 64.3061V39.9272C15.2245 39.6043 16.7256 37.9032 16.7256 35.8537V19.1283C16.7256 17.2732 15.2163 15.764 13.3612 15.764H13.265V11.4386C13.265 8.09956 10.5485 5.38281 7.20924 5.38281H6.0558C2.71674 5.38281 0 8.09937 0 11.4386V64.3061C0 64.5593 0.066819 64.8081 0.193414 65.0274L5.19191 73.6785C5.44529 74.1171 5.91036 74.3905 6.41674 74.3989ZM2.8837 25.1841H8.45882V35.8537C8.45882 37.3194 9.22791 38.6059 10.3813 39.3401V41.525H2.8837V25.1841ZM2.8837 44.4087H10.3813V47.2924H2.8837V44.4087ZM13.8417 19.1283V35.8537C13.8417 36.5427 13.281 37.1033 12.5921 37.1033C11.9031 37.1033 11.3425 36.5427 11.3425 35.8537V23.7423C11.3425 22.946 10.697 22.3004 9.90067 22.3004H2.8837V18.6479H11.8232H13.3612C13.6262 18.6479 13.8417 18.8634 13.8417 19.1283ZM2.8837 11.4386C2.8837 9.68951 4.3067 8.26651 6.0558 8.26651H7.20924C8.95834 8.26651 10.3813 9.68951 10.3813 11.4386V15.7642H2.8837V11.4386ZM2.8837 50.1761H10.3813V63.8942L6.48622 70.1544L2.8837 63.9197V50.1761Z" fill="white"/>
</svg>
