<svg width="80" height="83" viewBox="0 0 80 83" fill="none" xmlns="http://www.w3.org/2000/svg">
<path d="M28.2136 28.7282L26.1488 22.375H19.9546L11.6956 28.7282L4.91147 37.0149L1.66687 47.2353L2.84672 58.5605L6.97621 66.571L11.6956 71.8193H14.0553L18.1848 58.5605L14.0553 53.3122L11.6956 47.2353L12.8755 40.3296L19.9546 31.4904L28.2136 28.7282Z" fill="#008BD2"/>
<path d="M63.5756 69.7746H59.3636V66.6382C59.3636 64.9259 57.876 63.5329 56.0475 63.5329H44.6595C42.831 63.5329 41.3435 64.9259 41.3435 66.6382V69.7746H37.4984V59.9934H58.1841C61.5788 59.9934 64.3407 57.4069 64.3407 54.2277C64.3407 51.0485 61.5788 48.4621 58.1841 48.4621H22.9288C20.877 48.4621 19.0602 49.686 18.4079 51.5078C18.3963 51.54 18.3859 51.5725 18.3766 51.6052L17.293 55.4067C15.2931 52.7725 14.1111 49.5391 14.1111 46.0461C14.1111 38.4775 19.653 32.1246 27.0702 30.4683L27.6602 32.2604C28.4457 34.6458 30.7991 36.1814 33.3351 36.1814C33.5123 36.1814 33.6905 36.1712 33.8691 36.1559L35.6172 41.4647C36.0457 42.7663 36.9899 43.8338 38.2756 44.4702C39.0711 44.8641 39.9385 45.0638 40.8137 45.0638C41.3529 45.0638 41.895 44.988 42.4247 44.835L46.9768 43.5205C49.8458 42.6919 51.4601 39.8321 50.5757 37.1454L48.8281 31.8383C51.2272 30.5898 52.4558 27.8952 51.6158 25.3432L47.7267 13.5316C47.2597 12.1129 46.2305 10.9495 44.8291 10.2558C43.4279 9.56208 41.8216 9.42072 40.3067 9.85823L37.7882 10.5854L32.2031 2.22332C31.2731 0.831359 29.6706 0 27.9167 0H24.0163C22.1511 0 20.4979 0.91223 19.5939 2.44005C18.6899 3.96804 18.7409 5.76436 19.73 7.24527L24.9959 15.1291C24.6881 15.4562 24.4189 15.8191 24.1959 16.2142C23.4551 17.5266 23.3043 19.0308 23.7714 20.4493L23.7717 20.4503C10.3093 23.4076 0.192993 35.5705 0.192993 50.0845C0.192993 59.2995 4.27235 67.5655 10.6953 73.1313C10.1376 74.0686 9.81857 75.1466 9.81857 76.2935C9.81857 79.8881 12.9413 82.8124 16.7797 82.8124H63.5756C67.414 82.8124 70.5367 79.8881 70.5367 76.2935C70.5367 72.6989 67.414 69.7746 63.5756 69.7746V69.7746ZM44.8079 66.7773H55.8989V69.7746H44.8079V66.7773ZM60.8762 54.2277C60.8762 55.6179 59.6686 56.7488 58.1841 56.7488H37.4982V52.9278C37.4982 52.5043 37.4336 52.095 37.3155 51.7065H58.1841C59.6684 51.7066 60.8762 52.8377 60.8762 54.2277ZM21.7069 52.5016C21.8965 52.0245 22.3822 51.7066 22.9288 51.7066H32.7297C33.4487 51.7066 34.0337 52.2544 34.0337 52.9279V69.7746H16.7835L21.7069 52.5016ZM47.4431 23.6814L30.1247 28.734L27.9048 21.9919L45.2232 16.9393L47.4431 23.6814ZM30.9711 31.3049L30.7371 30.5943L48.0556 25.5418L48.3052 26.2996C48.7066 27.5186 47.9741 28.8161 46.6725 29.192L34.0596 32.834C33.4294 33.0159 32.7608 32.9572 32.1774 32.6685C31.594 32.3796 31.1656 31.8952 30.9711 31.3049V31.3049ZM45.9561 40.4205L41.404 41.735C40.8985 41.8809 40.3627 41.834 39.895 41.6022C39.4273 41.3708 39.0839 40.9824 38.928 40.5092L37.2184 35.3171L45.5554 32.9097L47.2649 38.1019C47.5868 39.0789 46.9996 40.119 45.9561 40.4205V40.4205ZM41.3277 12.959C41.9553 12.7777 42.6254 12.8349 43.2101 13.1246C44.027 13.491 44.407 14.2971 44.6108 15.0793L27.2923 20.1317C26.9878 19.3643 26.7921 18.4788 27.2588 17.7306C27.5673 17.1844 28.0842 16.7833 28.7148 16.601L41.3277 12.959ZM22.6245 4.01236C22.7611 3.78155 23.1703 3.24456 24.0164 3.24456H27.9169C28.4689 3.24456 28.973 3.5061 29.2658 3.94442L34.3626 11.5751L27.9462 13.4279L22.6675 5.52482C22.2186 4.85293 22.4879 4.24333 22.6245 4.01236V4.01236ZM3.65766 50.0845C3.65766 37.0191 12.7475 26.0865 24.7952 23.5587L26.0462 27.3582C17.2149 29.4299 10.6466 37.0225 10.6466 46.0466C10.6466 51.1607 12.7578 55.8138 16.1935 59.2644L12.9444 70.6632C7.26532 65.6929 3.65766 58.313 3.65766 50.0845V50.0845ZM63.5756 79.568H16.7797C14.8517 79.568 13.2832 78.099 13.2832 76.2935C13.2832 74.488 14.8518 73.019 16.7797 73.019H63.5756C65.5036 73.019 67.0722 74.488 67.0722 76.2935C67.0722 78.099 65.5036 79.568 63.5756 79.568Z" fill="black"/>
<path d="M23.2559 63.894C23.1221 63.894 22.9861 63.8795 22.8502 63.8489C21.92 63.6398 21.3469 62.7641 21.57 61.893L22.1308 59.7049C22.3542 58.8338 23.2896 58.2971 24.2195 58.5061C25.1497 58.7152 25.7228 59.5909 25.4997 60.462L24.9388 62.6501C24.7483 63.3941 24.0385 63.894 23.2559 63.894Z" fill="black"/>
<path d="M24.9866 57.1477C24.8529 57.1477 24.717 57.1331 24.5812 57.1027C23.6508 56.8937 23.0776 56.0182 23.3007 55.1469L23.4061 54.7357C23.6296 53.8646 24.5652 53.3286 25.4951 53.5372C26.4253 53.7465 26.9984 54.6224 26.7749 55.4935L26.6697 55.9034C26.4792 56.6475 25.7693 57.1477 24.9866 57.1477Z" fill="black"/>
<path d="M77.4439 18.54C77.4439 20.2017 76.0055 21.5487 74.231 21.5487C72.4566 21.5487 71.0182 20.2017 71.0182 18.54C71.0182 16.8782 72.4566 15.5313 74.231 15.5313C76.0053 15.5311 77.4439 16.8782 77.4439 18.54Z" fill="black"/>
<path d="M62.4258 29.6023C62.4258 30.3061 61.8167 30.8765 61.0652 30.8765C60.3137 30.8765 59.7045 30.3061 59.7045 29.6023C59.7045 28.8986 60.3137 28.3281 61.0652 28.3281C61.8167 28.3281 62.4258 28.8986 62.4258 29.6023Z" fill="black"/>
<path d="M58.0616 6.4921L59.153 9.36611C59.1996 9.4892 59.2922 9.58673 59.4089 9.6359L62.1356 10.7864C62.5207 10.9489 62.5207 11.5236 62.1356 11.6862L59.4089 12.8366C59.2922 12.886 59.1996 12.9833 59.153 13.1064L58.0616 15.9804C57.9074 16.3864 57.3621 16.3864 57.2079 15.9804L56.1165 13.1064C56.0697 12.9833 55.9773 12.8858 55.8605 12.8366L53.1339 11.6862C52.7487 11.5236 52.7487 10.9488 53.1339 10.7864L55.8605 9.6359C55.9773 9.58657 56.0699 9.48904 56.1165 9.36611L57.2079 6.4921C57.3621 6.08597 57.9075 6.08597 58.0616 6.4921Z" fill="black"/>
<path d="M73.121 31.6605L74.6207 35.5349C74.685 35.7008 74.8121 35.8322 74.9725 35.8987L78.7192 37.4496C79.2486 37.6688 79.2486 38.4435 78.7192 38.6627L74.9725 40.2136C74.8121 40.2799 74.685 40.4114 74.6207 40.5774L73.121 44.4518C72.9091 44.9991 72.1599 44.9991 71.9479 44.4518L70.4482 40.5774C70.384 40.4114 70.2569 40.2801 70.0964 40.2136L66.3497 38.6627C65.8204 38.4435 65.8204 37.6688 66.3497 37.4496L70.0964 35.8987C70.2569 35.8322 70.384 35.7008 70.4482 35.5349L71.9479 31.6605C72.1599 31.1132 72.9091 31.1132 73.121 31.6605Z" fill="black"/>
</svg>
