<svg width="90" height="83" viewBox="0 0 90 83" fill="none" xmlns="http://www.w3.org/2000/svg">
<path d="M7.28146 50.5485C4.92305 50.5485 3.35077 47.4179 2.85944 45.8526V42.5379L7.28146 40.3281H84.2247C84.8143 40.9727 86.3473 42.7037 87.7624 44.4715C89.1774 46.2393 85.0109 49.2594 82.7507 50.5485H7.28146Z" fill="#008BD2"/>
<path d="M89.0436 45.1878C89.0436 41.4407 85.7901 38.3922 81.791 38.3922H73.4175V26.1942C73.4175 22.0851 69.85 18.7422 65.4645 18.7422H51.5001C47.1146 18.7422 43.5471 22.0851 43.5471 26.1942V38.3922H35.0583C35.1512 38.0726 35.2016 37.737 35.2016 37.3902V34.2352C35.2016 33.4166 34.9247 32.6582 34.4554 32.0357C34.9247 31.4131 35.2016 30.6547 35.2016 29.8363V26.6815C35.2016 24.5738 33.3716 22.8592 31.1224 22.8592H14.5647C11.3871 22.8592 8.8019 25.2816 8.8019 28.259C8.8019 29.7281 9.43213 31.0615 10.4515 32.0358C9.43196 33.0105 8.8019 34.3437 8.8019 35.8129C8.8019 36.7464 9.05634 37.6255 9.50325 38.3923H8.04824C4.04914 38.3923 0.795593 41.4409 0.795593 45.188C0.795593 48.5904 3.47829 51.4164 6.96574 51.9074V77.451C6.96574 80.4078 9.53312 82.8132 12.6888 82.8132H29.5747C32.7304 82.8132 35.2977 80.4078 35.2977 77.451V71.5545L70.0538 71.0253V77.3821C70.0538 80.3769 72.654 82.8132 75.8502 82.8132H77.0767C80.2729 82.8132 82.8731 80.3769 82.8731 77.3821V51.9076C86.3609 51.4162 89.0436 48.5904 89.0436 45.1878V45.1878ZM14.5647 33.6584H31.1224C31.4618 33.6584 31.7378 33.9172 31.7378 34.2352V37.39C31.7378 37.7082 31.4618 37.9668 31.1224 37.9668H14.5647C13.2969 37.9668 12.2657 37.0004 12.2657 35.8127C12.2655 34.6249 13.2969 33.6584 14.5647 33.6584V33.6584ZM14.5647 26.1046H31.1224C31.4618 26.1046 31.7378 26.3634 31.7378 26.6813V29.8361C31.7378 30.1541 31.4618 30.4129 31.1224 30.4129H14.5647C13.2969 30.4129 12.2657 29.4465 12.2657 28.2588C12.2655 27.0708 13.2969 26.1046 14.5647 26.1046V26.1046ZM47.0109 26.1942C47.0109 23.8748 49.0247 21.9877 51.5001 21.9877H65.4645C67.9399 21.9877 69.9537 23.8748 69.9537 26.1942V38.3922H47.0107V26.1942H47.0109ZM29.5747 79.5676H12.6888C11.443 79.5676 10.4295 78.618 10.4295 77.4508V51.9833H31.8339V77.4508C31.8339 78.618 30.8205 79.5676 29.5747 79.5676ZM35.2977 68.3083V51.9833H70.0538V67.7789L35.2977 68.3083ZM77.0769 79.5676H75.8504C74.5642 79.5676 73.5178 78.5871 73.5178 77.3819V51.9833H79.4097V77.3819C79.4095 78.5871 78.3631 79.5676 77.0769 79.5676ZM81.7911 48.7377H8.04824C5.95901 48.7377 4.25939 47.1452 4.25939 45.1878C4.25939 43.2304 5.95901 41.6377 8.04824 41.6377H81.7911C83.8804 41.6377 85.58 43.2304 85.58 45.1878C85.5798 47.1452 83.8804 48.7377 81.7911 48.7377Z" fill="black"/>
<path d="M27.0425 62.6797C26.4685 62.6797 26.0033 63.1156 26.0033 63.6534V65.7253C26.0033 66.2629 26.4685 66.699 27.0425 66.699C27.6163 66.699 28.0816 66.2631 28.0816 65.7253V63.6534C28.0815 63.1156 27.6163 62.6797 27.0425 62.6797Z" fill="black"/>
<path d="M18.7563 68.2578C18.1825 68.2578 17.7171 68.6937 17.7171 69.2315V71.3034C17.7171 71.8411 18.1823 72.2771 18.7563 72.2771C19.3302 72.2771 19.7955 71.8412 19.7955 71.3034V69.2315C19.7953 68.6937 19.3301 68.2578 18.7563 68.2578Z" fill="black"/>
<path d="M23.858 70.7812C23.2842 70.7812 22.8188 71.2171 22.8188 71.7549V73.8269C22.8188 74.3645 23.2841 74.8006 23.858 74.8006C24.432 74.8006 24.8972 74.3647 24.8972 73.8269V71.7549C24.8972 71.2171 24.4318 70.7812 23.858 70.7812Z" fill="black"/>
<path d="M29.4665 46.8089C29.4604 46.8089 29.4541 46.8089 29.448 46.8088C26.1729 46.7768 23.094 46.7768 19.758 46.8088C19.7521 46.8089 19.7459 46.8089 19.7398 46.8089C18.7916 46.8089 18.0181 46.0934 18.0085 45.2028C17.9984 44.3066 18.7657 43.5728 19.7224 43.5636C23.0826 43.5309 26.1846 43.5309 29.4841 43.5636C30.4406 43.5729 31.2079 44.3069 31.1977 45.2032C31.188 46.0935 30.4145 46.8089 29.4665 46.8089Z" fill="black"/>
<path d="M13.6436 46.808H12.133C11.1765 46.808 10.4011 46.0815 10.4011 45.1853C10.4011 44.2891 11.1765 43.5625 12.133 43.5625H13.6436C14.6001 43.5625 15.3755 44.2891 15.3755 45.1853C15.3755 46.0815 14.5999 46.808 13.6436 46.808Z" fill="black"/>
<path d="M18.3933 7.72065C18.3933 9.38288 16.9552 10.7304 15.1812 10.7304C13.4072 10.7304 11.9691 9.38288 11.9691 7.72065C11.9691 6.05842 13.4072 4.71094 15.1812 4.71094C16.9552 4.71094 18.3933 6.05842 18.3933 7.72065V7.72065Z" fill="black"/>
<path d="M77.5242 16.6506C78.2754 16.6506 78.8844 16.08 78.8844 15.3761C78.8844 14.6722 78.2754 14.1016 77.5242 14.1016C76.7729 14.1016 76.1639 14.6722 76.1639 15.3761C76.1639 16.08 76.7729 16.6506 77.5242 16.6506Z" fill="black"/>
<path d="M58.9069 0.304602L59.998 3.17958C60.0448 3.30267 60.1371 3.4002 60.254 3.44953L62.98 4.60033C63.3651 4.76288 63.3651 5.33788 62.98 5.50043L60.254 6.65123C60.1373 6.70056 60.0448 6.7981 59.998 6.92118L58.9069 9.79616C58.7527 10.2023 58.2076 10.2023 58.0533 9.79616L56.962 6.92118C56.9154 6.7981 56.8228 6.70056 56.7061 6.65123L53.9801 5.50043C53.595 5.33788 53.595 4.76288 53.9801 4.60033L56.7061 3.44953C56.8228 3.4002 56.9154 3.30267 56.962 3.17958L58.0533 0.304602C58.2074 -0.101534 58.7527 -0.101534 58.9069 0.304602V0.304602Z" fill="black"/>
<path d="M38.9234 7.7075L40.4227 11.5832C40.487 11.7491 40.614 11.8806 40.7744 11.9471L44.5202 13.4985C45.0495 13.7177 45.0495 14.4928 44.5202 14.7119L40.7744 16.2634C40.614 16.3299 40.487 16.4613 40.4227 16.6273L38.9234 20.503C38.7116 21.0505 37.9624 21.0505 37.7506 20.503L36.2512 16.6273C36.187 16.4613 36.0599 16.3299 35.8996 16.2634L32.1537 14.7119C31.6245 14.4928 31.6245 13.7177 32.1537 13.4985L35.8996 11.9471C36.0599 11.8806 36.187 11.7491 36.2512 11.5832L37.7506 7.7075C37.9624 7.16 38.7116 7.16 38.9234 7.7075V7.7075Z" fill="black"/>
</svg>
