<svg width="86" height="83" viewBox="0 0 86 83" fill="none" xmlns="http://www.w3.org/2000/svg">
<path d="M2.08936 10.217V3.03514L4.15297 1.10156H80.8014L82.5703 3.03514V8.83587L80.8014 11.5981H5.62698L2.08936 10.217Z" fill="#008BD2"/>
<path d="M80.4379 0H4.40257C2.07203 0 0.175964 1.77642 0.175964 3.96011V9.01927C0.175964 10.6632 1.2507 12.0759 2.77615 12.6742V49.2713C2.77615 52.8083 5.84741 55.686 9.62227 55.686H35.5763V71.3113H32.0557C28.6716 71.3113 25.9183 73.891 25.9183 77.0619C25.9183 80.2327 28.6716 82.8125 32.0557 82.8125H52.7846C56.1687 82.8125 58.922 80.2327 58.922 77.0619C58.922 73.8911 56.1687 71.3113 52.7846 71.3113H49.2642V55.686H75.2182C78.9932 55.686 82.0645 52.8083 82.0645 49.2713V12.6742C83.5899 12.076 84.6647 10.6632 84.6647 9.01927V3.96011C84.6645 1.77642 82.7684 0 80.4379 0V0ZM3.65944 3.96011C3.65944 3.57614 3.99277 3.26397 4.40257 3.26397H80.4381C80.8479 3.26397 81.1812 3.5763 81.1812 3.96011V9.01927C81.1812 9.40325 80.8479 9.71557 80.4381 9.71557H4.40257C3.99277 9.71557 3.65944 9.40325 3.65944 9.01927V3.96011ZM55.4385 77.0618C55.4385 78.4329 54.2481 79.5484 52.7846 79.5484H32.0557C30.5922 79.5484 29.4018 78.4329 29.4018 77.0618C29.4018 75.6907 30.5922 74.5751 32.0557 74.5751H52.7846C54.2481 74.5751 55.4385 75.6907 55.4385 77.0618ZM45.7807 71.3113H39.0597V55.686H45.7807V71.3113ZM75.218 52.422H9.62227C7.76798 52.422 6.25945 51.0085 6.25945 49.2713V12.9794H78.5808V49.2711C78.5808 51.0085 77.0725 52.422 75.218 52.422Z" fill="black"/>
<path d="M39.9793 19.5078H33.9916C33.4145 19.5078 32.9466 19.9461 32.9466 20.487V41.0411C32.9466 41.582 33.4145 42.0203 33.9916 42.0203H39.9793C40.5564 42.0203 41.0243 41.582 41.0243 41.0411V20.487C41.0242 19.9463 40.5564 19.5078 39.9793 19.5078ZM38.9342 40.0621H35.0367V21.4662H38.9342V40.0621Z" fill="black"/>
<path d="M50.5743 23.6875H44.5866C44.0095 23.6875 43.5415 24.1258 43.5415 24.6667V41.0385C43.5415 41.5792 44.0095 42.0177 44.5866 42.0177H50.5743C51.1513 42.0177 51.6193 41.5792 51.6193 41.0385V24.6667C51.6193 24.1258 51.1513 23.6875 50.5743 23.6875V23.6875ZM49.5292 40.0593H45.6316V25.6459H49.5292V40.0593Z" fill="black"/>
<path d="M61.1712 28.0312H55.1835C54.6064 28.0312 54.1385 28.4697 54.1385 29.0104V41.0438C54.1385 41.5845 54.6064 42.023 55.1835 42.023H61.1712C61.7483 42.023 62.2162 41.5845 62.2162 41.0438V29.0104C62.2162 28.4696 61.7483 28.0312 61.1712 28.0312V28.0312ZM60.1261 40.0646H56.2285V29.9896H60.1261V40.0646Z" fill="black"/>
<path d="M71.77 31.875H65.7824C65.2053 31.875 64.7373 32.3135 64.7373 32.8542V41.0402C64.7373 41.5809 65.2053 42.0194 65.7824 42.0194H71.77C72.3471 42.0194 72.8151 41.5809 72.8151 41.0402V32.8542C72.8151 32.3135 72.3471 31.875 71.77 31.875V31.875ZM70.725 40.061H66.8274V33.8334H70.725V40.061Z" fill="black"/>
<path d="M26.7496 40.0625H13.0717C12.4946 40.0625 12.0266 40.501 12.0266 41.0417C12.0266 41.5824 12.4946 42.0209 13.0717 42.0209H26.7496C27.3266 42.0209 27.7946 41.5824 27.7946 41.0417C27.7946 40.5008 27.3268 40.0625 26.7496 40.0625V40.0625Z" fill="black"/>
<path d="M26.7496 34.0469H13.0717C12.4946 34.0469 12.0266 34.4854 12.0266 35.0261C12.0266 35.5668 12.4946 36.0053 13.0717 36.0053H26.7496C27.3266 36.0053 27.7946 35.5668 27.7946 35.0261C27.7946 34.4854 27.3268 34.0469 26.7496 34.0469Z" fill="black"/>
<path d="M26.7496 28.0312H13.0717C12.4946 28.0312 12.0266 28.4697 12.0266 29.0104C12.0266 29.5511 12.4946 29.9896 13.0717 29.9896H26.7496C27.3266 29.9896 27.7946 29.5511 27.7946 29.0104C27.7946 28.4696 27.3268 28.0312 26.7496 28.0312Z" fill="black"/>
<path d="M74.2937 75.3003C74.2937 76.9719 72.8474 78.327 71.0634 78.327C69.2794 78.327 67.833 76.9719 67.833 75.3003C67.833 73.6287 69.2792 72.2734 71.0634 72.2734C72.8474 72.2736 74.2937 73.6287 74.2937 75.3003Z" fill="black"/>
<path d="M19.7078 64.6215C20.443 64.4587 20.898 63.7683 20.7243 63.0795C20.5505 62.3907 19.8136 61.9643 19.0785 62.1271C18.3434 62.2899 17.8883 62.9803 18.0621 63.6691C18.2359 64.3579 18.9727 64.7843 19.7078 64.6215Z" fill="black"/>
<path d="M81.4163 60.8767L82.5137 63.7679C82.5606 63.8916 82.6537 63.9898 82.7711 64.0393L85.5126 65.1966C85.9 65.3601 85.9 65.9383 85.5126 66.1018L82.7711 67.2591C82.6537 67.3086 82.5606 67.4068 82.5137 67.5305L81.4163 70.4218C81.2613 70.8302 80.7131 70.8302 80.5581 70.4218L79.4607 67.5305C79.4138 67.4068 79.3207 67.3086 79.2033 67.2591L76.4618 66.1018C76.0744 65.9383 76.0744 65.3601 76.4618 65.1966L79.2033 64.0393C79.3207 63.9898 79.4138 63.8916 79.4607 63.7679L80.5581 60.8767C80.7131 60.4682 81.2613 60.4682 81.4163 60.8767Z" fill="black"/>
<path d="M7.23274 66.0614L8.74058 69.9591C8.80514 70.126 8.93305 70.2581 9.09428 70.3249L12.8614 71.8851C13.3936 72.1055 13.3936 72.885 12.8614 73.1054L9.09428 74.6656C8.93305 74.7324 8.80514 74.8647 8.74058 75.0315L7.23274 78.9292C7.01973 79.4799 6.26624 79.4799 6.05323 78.9292L4.54539 75.0315C4.48083 74.8646 4.35309 74.7324 4.19169 74.6656L0.424593 73.1054C-0.107596 72.885 -0.107596 72.1055 0.424593 71.8851L4.19169 70.3249C4.35292 70.2581 4.48083 70.1258 4.54539 69.9591L6.05323 66.0614C6.26641 65.5108 7.01973 65.5108 7.23274 66.0614Z" fill="black"/>
</svg>
