<svg width="88" height="83" viewBox="0 0 88 83" fill="none" xmlns="http://www.w3.org/2000/svg">
<path fill-rule="evenodd" clip-rule="evenodd" d="M53.4873 13.8102L60.8574 9.39062L70.8806 10.4955L76.7767 15.7438L78.5455 23.4781L76.7767 29.5551L67.343 35.0796L57.6145 34.5271L51.7185 28.4502L50.2445 21.2683L53.4873 13.8102ZM68.817 19.3347L63.5106 17.4012L59.973 19.3347L59.0886 23.4781L63.5106 27.069L68.817 24.583V19.3347Z" fill="#008BD2"/>
<path d="M85.7397 2.0936C84.2988 0.743532 82.3833 0 80.3457 0C78.3081 0 76.3923 0.743532 74.9514 2.09344L68.7022 7.94902C63.3574 6.51193 57.3568 7.75994 53.1541 11.6977C51.241 13.4903 49.9234 15.6321 49.1989 17.9061L29.6778 27.5694L23.9154 22.1699C23.2371 21.5346 22.1379 21.5346 21.4597 22.1699C20.7816 22.8053 20.7816 23.8354 21.4597 24.4709L26.4643 29.1601L14.0565 35.3023C10.0051 37.3078 7.76447 41.28 7.95971 45.3089L0.998959 49.0485C0.167102 49.4956 -0.120484 50.4898 0.356466 51.2693C0.677367 51.7936 1.26238 52.0872 1.86448 52.0872C2.15741 52.0872 2.45432 52.0177 2.72654 51.8714L8.70922 48.6571C8.87131 49.0518 9.05671 49.4422 9.27266 49.8252C9.48774 50.2068 9.85577 50.4926 10.2958 50.6199C10.7342 50.747 11.2114 50.7058 11.6189 50.5039L36.237 38.3174L47.3244 48.706L34.3185 71.7728C33.8705 72.5673 34.1947 73.5516 35.0425 73.9713C35.5586 74.2337 36.1017 74.4778 36.6425 74.6654L33.1478 80.376C32.6708 81.1555 32.9584 82.1497 33.7903 82.5966C34.0628 82.7428 34.3596 82.8124 34.6523 82.8124C35.2543 82.8124 35.8395 82.5188 36.1604 81.9944L40.2328 75.3397C40.3723 75.3444 40.5116 75.3476 40.6507 75.3476C44.7698 75.3476 48.7573 73.2653 50.8115 69.6222L57.3228 58.0741L61.8572 62.3229C62.1963 62.6406 62.6405 62.7994 63.085 62.7994C63.5295 62.7994 63.9737 62.6406 64.3129 62.3229C64.9909 61.6875 64.9909 60.6573 64.3129 60.022L59.0205 55.0631L69.7359 36.0588C71.8365 35.3437 73.8075 34.2015 75.4895 32.6257C79.6921 28.6879 81.0241 23.0653 79.4903 18.0573L85.7395 12.2017C88.7141 9.41489 88.714 4.88027 85.7397 2.0936V2.0936ZM15.6786 38.1793L48.5422 21.9112C48.5057 23.9603 48.9187 26.0141 49.7827 27.9319L11.7 46.7835C10.732 43.4716 12.3068 39.8486 15.6786 38.1793V38.1793ZM39.4508 36.7265L51.4796 30.7721C51.976 31.4215 52.532 32.0427 53.1541 32.6257C53.8576 33.2848 54.6133 33.8646 55.4058 34.3731L49.0221 45.695L39.4508 36.7265ZM47.7411 68.1023C45.9096 71.3508 41.8739 72.8194 38.2603 71.7479L58.4703 35.9045C60.3445 36.6023 62.3329 36.9531 64.322 36.9531C64.656 36.9531 64.9897 36.9397 65.3232 36.9199L47.7411 68.1023ZM73.034 30.3247C68.2299 34.826 60.4137 34.8258 55.6098 30.3247C50.806 25.8236 50.806 18.4998 55.6098 13.9987C58.0119 11.748 61.1668 10.6228 64.322 10.6228C67.477 10.6228 70.632 11.748 73.034 13.9987C77.8378 18.4998 77.8378 25.8236 73.034 30.3247V30.3247ZM83.2842 9.90093L78.0331 14.8212C77.3521 13.7035 76.5066 12.6506 75.4897 11.6976C74.4728 10.7447 73.3488 9.95269 72.156 9.31461L77.4071 4.39439C79.0274 2.87611 81.6638 2.87627 83.284 4.39439C84.9044 5.91267 84.9044 8.38281 83.2842 9.90093Z" fill="black"/>
<path d="M64.323 15.8047C62.5102 15.8047 60.8059 16.4662 59.5239 17.6673C56.8778 20.1468 56.8778 24.181 59.5239 26.6607C60.8057 27.8618 62.5102 28.5232 64.323 28.5232C66.1361 28.5232 67.8404 27.8618 69.1222 26.6607C70.4041 25.4596 71.1101 23.8627 71.1101 22.1641C71.1101 20.4655 70.4043 18.8684 69.1222 17.6673C67.8405 16.4662 66.1361 15.8047 64.323 15.8047V15.8047ZM66.6665 24.3598C66.0406 24.9462 65.2084 25.2692 64.323 25.2692C63.4379 25.2692 62.6055 24.9462 61.9796 24.3598C60.6875 23.1489 60.6875 21.1788 61.9796 19.9683C62.6053 19.3818 63.4379 19.0586 64.323 19.0586C65.2084 19.0586 66.0406 19.3816 66.6665 19.9683C67.2926 20.5548 67.6374 21.3345 67.6374 22.1641C67.6374 22.9934 67.2926 23.7731 66.6665 24.3598Z" fill="black"/>
<path d="M14.3331 6.76933C16.1116 6.76933 17.5535 5.41829 17.5535 3.75185C17.5535 2.08541 16.1118 0.734375 14.3331 0.734375C12.5544 0.734375 11.1127 2.08541 11.1127 3.75185C11.1127 5.41829 12.5544 6.76933 14.3331 6.76933V6.76933Z" fill="black"/>
<path d="M47.5039 7.67289C48.257 7.67289 48.8677 7.1008 48.8677 6.39496C48.8677 5.68927 48.2572 5.11719 47.5039 5.11719C46.7505 5.11719 46.14 5.68927 46.14 6.39496C46.14 7.1008 46.7505 7.67289 47.5039 7.67289Z" fill="black"/>
<path d="M1.80063 23.3663L4.53373 24.52C4.65077 24.5695 4.74347 24.6672 4.79042 24.7906L5.88449 27.673C6.03898 28.0803 6.58567 28.0803 6.74017 27.673L7.83423 24.7906C7.88101 24.6672 7.97371 24.5693 8.09075 24.52L10.8238 23.3663C11.21 23.2032 11.21 22.6268 10.8238 22.4637L8.09075 21.31C7.97371 21.2605 7.88101 21.1628 7.83423 21.0394L6.74017 18.157C6.58567 17.7497 6.03898 17.7497 5.88449 18.157L4.79042 21.0394C4.74364 21.1628 4.65077 21.2607 4.53373 21.31L1.80063 22.4637C1.41448 22.6268 1.41448 23.2032 1.80063 23.3663Z" fill="#008BD2"/>
<path d="M26.2159 8.28583L29.9715 9.84131C30.1323 9.90795 30.2597 10.0398 30.324 10.2062L31.8271 14.0919C32.0395 14.6409 32.7907 14.6409 33.003 14.0919L34.5062 10.2062C34.5706 10.0398 34.698 9.90795 34.8589 9.84131L38.6144 8.28583C39.145 8.06618 39.145 7.28901 38.6144 7.06936L34.8589 5.51388C34.6982 5.44724 34.5706 5.31542 34.5062 5.14899L33.003 1.26328C32.7907 0.714324 32.0395 0.714324 31.8271 1.26328L30.324 5.14899C30.2596 5.31542 30.1322 5.44724 29.9715 5.51388L26.2159 7.06936C25.6853 7.28901 25.6853 8.06618 26.2159 8.28583V8.28583Z" fill="black"/>
</svg>
