<svg width="89" height="83" viewBox="0 0 89 83" fill="none" xmlns="http://www.w3.org/2000/svg">
<path d="M36.4238 58.5588L26.9901 57.4539V63.5308L24.9265 68.5029L21.3889 72.0938L19.3253 76.2372L21.3889 80.1044L25.8109 80.6568L32.5913 73.1987L35.5394 66.0169L36.4238 58.5588Z" fill="#008BD2"/>
<path d="M26.9901 38.3943L25.8109 48.3385L35.5394 49.1671L34.9497 43.9189L36.4238 39.223L40.551 34.5272L47.0366 31.4887L53.5223 32.8698V31.4887L52.6379 23.7544H44.6782L38.7822 25.688L32.0017 30.3838L26.9901 38.3943Z" fill="#008BD2"/>
<path d="M62.6611 32.8698V25.688L71.8 23.7544L77.4012 20.1635L82.7076 17.125L86.8349 19.0586L86.2453 24.3069L78.8752 29.2789L69.7364 32.8698H62.6611Z" fill="#008BD2"/>
<path d="M86.9861 17.4869C84.5126 15.1694 80.4882 15.1694 78.0147 17.4869C77.6161 17.8603 77.2212 18.2089 76.829 18.5387L68.7533 10.9718C69.0039 10.7145 69.2654 10.457 69.5411 10.1989C70.7393 9.07622 71.3992 7.5835 71.3992 5.99583C71.3992 4.40816 70.7393 2.91543 69.5411 1.79278C67.0678 -0.524676 63.0433 -0.524676 60.5697 1.79278C55.7593 6.30023 52.8908 11.2929 51.8006 17.0561C51.475 18.7771 51.3288 20.4631 51.2922 22.1049C44.9615 21.6802 37.9136 22.3694 31.4421 28.433C25.0743 34.3997 24.0979 41.0604 24.3513 47.1186C22.7655 47.1533 21.1354 47.2838 19.4655 47.5576C13.1531 48.5933 7.54295 51.4781 2.31445 56.377C-0.158854 58.6946 -0.158854 62.4655 2.31445 64.7831C3.51261 65.9057 5.10572 66.5239 6.80016 66.5239C8.49461 66.5239 10.0877 65.9057 11.2857 64.7831C11.4727 64.6079 11.6586 64.439 11.844 64.2736L19.9601 71.8782C19.8929 71.9425 19.8282 72.0067 19.7595 72.0712C18.5613 73.1937 17.9014 74.6864 17.9014 76.2741C17.9014 77.8618 18.5613 79.3545 19.7595 80.4772C20.9576 81.5998 22.5506 82.218 24.2452 82.218C25.9396 82.218 27.5327 81.5998 28.7309 80.4772C33.5413 75.97 36.4096 70.9772 37.4998 65.2141C37.8254 63.493 37.9716 61.807 38.0082 60.1651C44.3391 60.5899 51.387 59.9007 57.8587 53.8368C64.2272 47.8696 65.2033 41.2076 64.9498 35.1489C66.5353 35.1149 68.1645 34.9863 69.8349 34.7123C76.1475 33.6768 81.7578 30.7918 86.9863 25.8928C89.4594 23.5752 89.4594 19.8043 86.9861 17.4869ZM74.0576 20.5587C73.2606 21.0502 72.4719 21.4601 71.6876 21.8005L65.3295 15.8432C65.6735 15.085 66.0946 14.3308 66.6064 13.577L74.0576 20.5587ZM64.2329 19.4326L67.9708 22.935C66.647 23.182 65.3167 23.2785 63.9601 23.2755C63.9425 21.9602 64.015 20.6842 64.2329 19.4326ZM37.1235 48.148C37.03 46.9823 36.9808 45.9164 36.9996 44.9272L40.6788 48.3747C39.5954 48.3655 38.4197 48.28 37.1235 48.148ZM44.9992 47.8056L37.6574 40.9266C37.6524 40.9218 37.6467 40.9181 37.6417 40.9132C37.9291 40.1006 38.3272 39.3336 38.8601 38.5907L47.4208 46.6121C46.6411 47.1416 45.8422 47.5298 44.9992 47.8056ZM51.3887 42.033C51.0312 42.8357 50.5534 43.598 49.9254 44.342L41.1965 36.163C41.9248 35.5827 42.6633 35.1345 43.4331 34.7961L51.3887 42.033ZM52.2492 38.4398L47.4253 33.9201C48.8298 33.8462 50.3885 33.9398 52.1769 34.1221C52.306 35.7303 52.353 37.1517 52.2492 38.4398ZM33.9059 30.7417C38.5644 26.3767 43.4502 25.2541 48.3457 25.2541C49.348 25.2541 50.3506 25.3024 51.3518 25.3788C51.4541 27.2472 51.6518 29.0423 51.8404 30.742C51.843 30.7651 51.8454 30.7875 51.848 30.8106C46.1611 30.2935 42.046 30.693 37.9499 34.5308C33.8558 38.3671 33.2422 42.3249 33.6052 47.7391C31.7745 47.5162 29.8462 47.2969 27.8333 47.1851C27.5519 41.5571 28.3741 35.9249 33.9059 30.7417ZM14.5289 62.1725C15.2955 61.6559 16.0535 61.2162 16.8063 60.8437L23.5405 67.1534C23.5575 67.1693 23.5758 67.1828 23.593 67.1979C23.2112 67.9233 22.7549 68.6465 22.2105 69.3699L14.5289 62.1725ZM25.3394 58.9941C25.3615 60.6428 25.2414 62.23 24.8718 63.7841L20.3483 59.5457C21.9966 59.1402 23.6474 58.9904 25.3394 58.9941ZM26.2673 78.1688C25.7271 78.6748 25.009 78.9535 24.2454 78.9535C23.4815 78.9535 22.7634 78.6748 22.2233 78.1688C21.6831 77.6628 21.3857 76.99 21.3857 76.2743C21.3857 75.5587 21.6831 74.8859 22.2233 74.3799C27.6115 69.3313 28.8498 64.3206 28.8212 59.1787C30.0625 59.2937 31.3368 59.4498 32.6584 59.6121C33.2743 59.6877 33.9028 59.7648 34.5418 59.8383C34.4691 65.7534 32.8584 71.9929 26.2673 78.1688ZM55.3949 51.5282C48.2403 58.2323 40.549 57.2881 33.1106 56.3752C25.027 55.3827 17.3916 54.4456 8.82207 62.4748C8.28194 62.9809 7.56401 63.2596 6.80016 63.2596C6.03632 63.2596 5.31822 62.9809 4.77826 62.4748C3.66331 61.4303 3.66331 59.7304 4.77826 58.6858C11.9537 51.9624 18.7931 50.364 25.163 50.364C28.1692 50.364 31.0715 50.7203 33.8539 51.0618C41.5017 52.0007 46.4385 52.3426 51.3511 47.7392C56.4192 42.9906 56.1556 38.0585 55.306 30.4045C54.4075 22.3112 53.389 13.1381 63.0335 4.10133C64.1486 3.0568 65.9627 3.05696 67.0775 4.10133C67.6176 4.60727 67.915 5.28012 67.915 5.99583C67.915 6.71154 67.6176 7.38439 67.0775 7.89032C59.3591 15.1227 60.1533 22.2762 60.9943 29.8502C61.8065 37.1676 62.6463 44.7339 55.3949 51.5282ZM84.5223 23.5844C77.5626 30.1057 70.9188 31.8047 64.7134 31.9006C64.6342 31.0867 64.5458 30.2891 64.4595 29.512C64.3463 28.4926 64.2365 27.5031 64.1486 26.5383C69.4494 26.5195 74.7563 25.1567 80.4783 19.7952C81.5931 18.7506 83.4074 18.7506 84.5223 19.7952C85.6373 20.8399 85.6373 22.5399 84.5223 23.5844Z" fill="black"/>
<path d="M52.4015 79.3978C54.1858 79.3978 55.6321 78.0425 55.6321 76.3708C55.6321 74.699 54.1858 73.3438 52.4015 73.3438C50.6173 73.3438 49.171 74.699 49.171 76.3708C49.171 78.0425 50.6173 79.3978 52.4015 79.3978Z" fill="black"/>
<path d="M17.6433 13.8768C18.3991 13.8768 19.0117 13.3027 19.0117 12.5946C19.0117 11.8865 18.3991 11.3125 17.6433 11.3125C16.8876 11.3125 16.275 11.8865 16.275 12.5946C16.275 13.3027 16.8876 13.8768 17.6433 13.8768Z" fill="black"/>
<path d="M11.8847 26.2986L12.9824 29.1906C13.0294 29.3143 13.1224 29.4125 13.2398 29.462L15.9819 30.6196C16.3692 30.7831 16.3692 31.3615 15.9819 31.525L13.2398 32.6826C13.1224 32.7321 13.0294 32.8303 12.9824 32.954L11.8847 35.846C11.7297 36.2545 11.1813 36.2545 11.0263 35.846L9.92858 32.954C9.88163 32.8301 9.78859 32.7321 9.67121 32.6826L6.92913 31.525C6.54177 31.3615 6.54177 30.7831 6.92913 30.6196L9.67121 29.462C9.78859 29.4123 9.88163 29.3143 9.92858 29.1906L11.0263 26.2986C11.1813 25.89 11.7297 25.89 11.8847 26.2986Z" fill="black"/>
<path d="M79.8757 38.6267L80.9734 41.5187C81.0203 41.6424 81.1134 41.7406 81.2307 41.7901L83.9728 42.9477C84.3602 43.1112 84.3602 43.6896 83.9728 43.8531L81.2307 45.0107C81.1134 45.0602 81.0203 45.1584 80.9734 45.2821L79.8757 48.1739C79.7207 48.5825 79.1722 48.5825 79.0171 48.1739L77.9194 45.2821C77.8724 45.1582 77.7794 45.0602 77.662 45.0107L74.9199 43.8531C74.5326 43.6896 74.5326 43.1112 74.9199 42.9477L77.662 41.7901C77.7794 41.7406 77.8724 41.6424 77.9194 41.5187L79.0171 38.6267C79.1722 38.2182 79.7205 38.2182 79.8757 38.6267Z" fill="black"/>
<path d="M73.8906 59.3689L74.9883 62.2607C75.0352 62.3845 75.1283 62.4826 75.2456 62.5321L77.9877 63.6897C78.3751 63.8532 78.3751 64.4316 77.9877 64.5952L75.2456 65.7528C75.1283 65.8022 75.0352 65.9004 74.9883 66.0242L73.8906 68.9161C73.7356 69.3247 73.1871 69.3247 73.032 68.9161L71.9343 66.0242C71.8873 65.9003 71.7943 65.8022 71.6769 65.7528L68.9348 64.5952C68.5474 64.4316 68.5474 63.8532 68.9348 63.6897L71.6769 62.5321C71.7943 62.4825 71.8873 62.3845 71.9343 62.2607L73.032 59.3689C73.187 58.9604 73.7354 58.9604 73.8906 59.3689Z" fill="black"/>
<path d="M33.9013 0.413051L35.4095 4.31154C35.4741 4.47846 35.602 4.61076 35.7632 4.67756L39.5311 6.23806C40.0635 6.45852 40.0635 7.23812 39.5311 7.45857L35.7632 9.01907C35.6018 9.08587 35.4741 9.21817 35.4095 9.38509L33.9013 13.2836C33.6883 13.8343 32.9346 13.8343 32.7216 13.2836L31.2134 9.38509C31.1489 9.21817 31.021 9.08587 30.8597 9.01907L27.0918 7.45857C26.5594 7.23812 26.5594 6.45852 27.0918 6.23806L30.8597 4.67756C31.0211 4.61076 31.1489 4.47846 31.2134 4.31154L32.7216 0.413051C32.9346 -0.137684 33.6883 -0.137684 33.9013 0.413051V0.413051Z" fill="black"/>
</svg>
