<svg width="87" height="83" viewBox="0 0 87 83" fill="none" xmlns="http://www.w3.org/2000/svg">
<path d="M54.643 17.1256L51.1054 19.6116L48.7469 24.3074L49.3366 28.727L51.1054 31.4893L54.643 33.6991L58.4754 34.2515L61.7182 33.6991L64.961 31.4893L67.0247 28.727L67.6143 24.8599L66.4351 20.7165L63.487 17.9542L59.6546 16.2969L54.643 17.1256Z" fill="#008BD2" stroke="black"/>
<path d="M58.2175 15.4453C52.392 15.4453 47.6526 19.8861 47.6526 25.3445C47.6526 30.803 52.392 35.2436 58.2175 35.2436C64.0429 35.2436 68.7824 30.8028 68.7824 25.3445C68.7824 19.8861 64.0429 15.4453 58.2175 15.4453V15.4453ZM58.2175 33.2749C53.5505 33.2749 49.7537 29.7173 49.7537 25.3445C49.7537 20.9716 53.5505 17.414 58.2175 17.414C62.8844 17.414 66.6812 20.9717 66.6812 25.3445C66.6812 29.7172 62.8844 33.2749 58.2175 33.2749Z" fill="black"/>
<path d="M59.4227 19.9999C59.4191 19.9908 59.4153 19.982 59.4113 19.9729C59.2142 19.5242 58.7524 19.2344 58.2346 19.2344C58.2341 19.2344 58.2337 19.2344 58.2334 19.2344C57.715 19.2349 57.2532 19.5257 57.0568 19.9752C57.0535 19.9826 57.0504 19.99 57.0473 19.9976L53.3706 29.043C53.164 29.5511 53.4362 30.1198 53.9784 30.3133C54.5206 30.507 55.1277 30.2517 55.3342 29.7438L55.9922 28.1251H60.4493L61.1001 29.741C61.2589 30.1352 61.6587 30.3781 62.0831 30.378C62.2064 30.378 62.3317 30.3576 62.4539 30.3144C62.9968 30.1223 63.2708 29.5545 63.0659 29.0457L59.4227 19.9999ZM56.7925 26.1562L58.2311 22.6171L59.6564 26.1562H56.7925Z" fill="black"/>
<path d="M26.1132 49.6213C26.2588 50.0179 26.6561 50.2845 27.1036 50.2858H27.1068C27.5529 50.2858 27.9506 50.0216 28.0982 49.627L29.8591 44.9196C30.0511 44.4066 29.7628 43.8448 29.2152 43.6651C28.6677 43.4851 28.0682 43.7554 27.8762 44.2684L27.1165 46.2993L26.3758 44.2798C26.1873 43.7656 25.5895 43.4924 25.0409 43.6687C24.4922 43.8453 24.2003 44.4054 24.3888 44.9195L26.1132 49.6213Z" fill="#008BD2"/>
<path d="M27.1036 62.2937H27.1069C27.5529 62.2937 27.9506 62.0296 28.0982 61.635L29.8591 56.9276C30.0511 56.4145 29.7628 55.8528 29.2152 55.6729C28.6677 55.4929 28.0682 55.7632 27.8762 56.2762L27.1165 58.3071L26.3758 56.2876C26.1873 55.7734 25.5895 55.5 25.0409 55.6765C24.4922 55.8531 24.2003 56.4132 24.3888 56.9273L26.1132 61.6291C26.2588 62.0257 26.6563 62.2924 27.1036 62.2937Z" fill="#008BD2"/>
<path d="M70.1771 8.57031H21.8202C18.4143 8.57031 15.6434 11.1666 15.6434 14.358V77.0236C15.6434 80.215 18.4143 82.8113 21.8202 82.8113H70.1773C73.5832 82.8113 76.3541 80.215 76.3541 77.0236V14.3578C76.354 11.1664 73.5831 8.57031 70.1771 8.57031V8.57031ZM72.852 77.0236C72.852 78.4056 71.6521 79.53 70.1771 79.53H21.8202C20.3454 79.53 19.1453 78.4056 19.1453 77.0236V14.3578C19.1453 12.9759 20.3452 11.8514 21.8202 11.8514H70.1773C71.6523 11.8514 72.8522 12.9757 72.8522 14.3578V77.0236H72.852Z" fill="black"/>
<path d="M52.3049 70.5078H26.3889C25.8087 70.5078 25.3383 70.9486 25.3383 71.4922C25.3383 72.0358 25.8087 72.4766 26.3889 72.4766H52.3049C52.8851 72.4766 53.3555 72.0358 53.3555 71.4922C53.3555 70.9486 52.8851 70.5078 52.3049 70.5078Z" fill="black"/>
<path d="M26.3889 21.2031H40.7992C41.3794 21.2031 41.8498 20.7624 41.8498 20.2187C41.8498 19.6751 41.3794 19.2344 40.7992 19.2344H26.3889C25.8087 19.2344 25.3383 19.6751 25.3383 20.2187C25.3383 20.7624 25.8087 21.2031 26.3889 21.2031V21.2031Z" fill="black"/>
<path d="M26.3889 27.4609H40.7992C41.3794 27.4609 41.8498 27.0202 41.8498 26.4766C41.8498 25.9329 41.3794 25.4922 40.7992 25.4922H26.3889C25.8087 25.4922 25.3383 25.9329 25.3383 26.4766C25.3383 27.0202 25.8087 27.4609 26.3889 27.4609V27.4609Z" fill="black"/>
<path d="M65.6096 64.25H26.3889C25.8085 64.25 25.3383 64.6907 25.3383 65.2344C25.3383 65.778 25.8087 66.2187 26.3889 66.2187H65.6096C66.1898 66.2187 66.6602 65.778 66.6602 65.2344C66.6602 64.6907 66.1898 64.25 65.6096 64.25Z" fill="black"/>
<path d="M65.6099 58H32.8716C32.2914 58 31.821 58.4407 31.821 58.9844C31.821 59.528 32.2914 59.9687 32.8716 59.9687H65.6099C66.1901 59.9687 66.6605 59.5278 66.6605 58.9844C66.6605 58.4409 66.1901 58 65.6099 58Z" fill="black"/>
<path d="M65.6096 51.75H26.3889C25.8085 51.75 25.3383 52.1907 25.3383 52.7344C25.3383 53.278 25.8087 53.7187 26.3889 53.7187H65.6096C66.1898 53.7187 66.6602 53.278 66.6602 52.7344C66.6602 52.1907 66.1898 51.75 65.6096 51.75Z" fill="black"/>
<path d="M65.6099 45.5H32.8716C32.2914 45.5 31.821 45.9407 31.821 46.4844C31.821 47.028 32.2914 47.4687 32.8716 47.4687H65.6099C66.1901 47.4687 66.6605 47.028 66.6605 46.4844C66.6605 45.9407 66.1901 45.5 65.6099 45.5Z" fill="black"/>
<path d="M65.6096 39.25H26.3889C25.8085 39.25 25.3383 39.6907 25.3383 40.2344C25.3383 40.778 25.8087 41.2187 26.3889 41.2187H65.6096C66.1898 41.2187 66.6602 40.778 66.6602 40.2344C66.6602 39.6909 66.1898 39.25 65.6096 39.25Z" fill="black"/>
<path d="M4.93794 17.551C6.70817 17.2821 7.91061 15.7195 7.62366 14.0608C7.33672 12.4021 5.66905 11.2754 3.89883 11.5443C2.1286 11.8133 0.926156 13.3759 1.2131 15.0346C1.50004 16.6933 3.16771 17.8199 4.93794 17.551Z" fill="#008BD2"/>
<path d="M14.2296 3.8125C13.4701 3.8125 12.8544 4.38944 12.8544 5.10111C12.8544 5.81277 13.4701 6.38971 14.2296 6.38971C14.9892 6.38971 15.6049 5.81277 15.6049 5.10111C15.6049 4.38944 14.9892 3.8125 14.2296 3.8125Z" fill="black"/>
<path d="M86.3702 4.6508L83.6141 3.48738C83.4961 3.43756 83.4027 3.3389 83.3554 3.21452L82.2522 0.307999C82.0963 -0.102666 81.5451 -0.102666 81.3892 0.307999L80.286 3.21452C80.2387 3.33906 80.1453 3.43756 80.0273 3.48738L77.2712 4.6508C76.8818 4.81513 76.8818 5.39643 77.2712 5.56076L80.0273 6.72418C80.1453 6.774 80.2387 6.87266 80.286 6.99704L81.3892 9.90372C81.5451 10.3144 82.0963 10.3144 82.2522 9.90372L83.3554 6.99704C83.4025 6.87266 83.4961 6.774 83.6141 6.72418L86.3702 5.56076C86.7596 5.39643 86.7596 4.81529 86.3702 4.6508V4.6508Z" fill="black"/>
</svg>
