<svg width="89" height="81" viewBox="0 0 89 81" fill="none" xmlns="http://www.w3.org/2000/svg">
<path d="M3.17312 24.3103H7.30261V71.2686L8.77742 72.9259L24.4105 71.2686L34.1443 71.821L44.763 72.9259L62.4608 71.2686H67.4751L80.1586 72.9259L81.9283 71.2686V23.7578H85.1729L87.2377 25.4152V76.7931L85.1729 78.7266H47.4176L44.763 76.7931L42.1083 78.7266H4.05801L1.99327 76.7931V26.2438L3.17312 24.3103Z" fill="#008BD2"/>
<path d="M84.4244 22.4014H82.862C82.5 21.334 81.5325 20.5134 80.2962 20.3207C69.0547 18.5702 57.655 18.5702 46.4137 20.3207C45.7641 20.4218 45.19 20.6982 44.7368 21.0906C44.2836 20.6982 43.7095 20.4218 43.0599 20.3207C31.8184 18.5702 20.4187 18.5702 9.17734 20.3207C7.94122 20.5132 6.97367 21.334 6.61149 22.4014H5.04893C2.55268 22.4014 0.521729 24.3033 0.521729 26.641V76.0551C0.521729 78.3929 2.55268 80.2947 5.04893 80.2947H41.9517C43.0015 80.2947 43.968 79.9574 44.7368 79.3939C45.5055 79.9574 46.472 80.2947 47.5218 80.2947H84.4244C86.9208 80.2947 88.9518 78.3929 88.9518 76.0551V26.641C88.9518 24.3033 86.9208 22.4014 84.4244 22.4014V22.4014ZM8.54589 48.5313C20.7817 45.9578 32.2966 45.9534 43.6915 48.5185V52.9507C32.2814 50.4537 20.7565 50.4597 8.54589 52.9692V48.5313ZM45.7822 48.5313C58.018 45.9578 69.5329 45.9534 80.9278 48.5185V52.9507C69.5177 50.4537 57.9928 50.4597 45.7822 52.9692V48.5313ZM80.9276 46.5056C69.5176 44.0086 57.9926 44.0148 45.782 46.524V41.7979C58.0182 39.2241 69.5329 39.2201 80.9276 41.7851V46.5056ZM43.6913 46.5056C32.2812 44.0088 20.7563 44.0148 8.54572 46.524V41.7979C20.7819 39.2241 32.2966 39.2201 43.6913 41.7851V46.5056ZM8.54589 54.9764C20.7821 52.4024 32.2968 52.3985 43.6915 54.9636V59.5992C32.2814 57.1022 20.7565 57.108 8.54589 59.6176V54.9764ZM45.7822 54.9764C58.0184 52.4024 69.5331 52.3985 80.9278 54.9636V59.5992C69.5177 57.1022 57.9928 57.108 45.7822 59.6176V54.9764ZM80.9276 39.7724C69.5176 37.2756 57.9926 37.2812 45.782 39.7908V35.1511C58.0178 32.5776 69.5328 32.5732 80.9276 35.1383V39.7724ZM43.6913 39.7724C32.2812 37.2756 20.7563 37.2812 8.54572 39.7908V35.1511C20.7815 32.5776 32.2964 32.5732 43.6913 35.1383V39.7724ZM8.54589 61.6248C20.7821 59.0509 32.2968 59.047 43.6915 61.6121V65.9592C32.2814 63.4624 20.7565 63.4684 8.54589 65.9777V61.6248ZM45.7822 61.6248C58.0184 59.0509 69.5331 59.047 80.9278 61.6121V65.9592C69.5177 63.4624 57.9928 63.4684 45.7822 65.9777V61.6248ZM80.9276 33.1256C69.5176 30.6288 57.9926 30.6347 45.782 33.144V28.563C58.0178 25.9895 69.5328 25.9851 80.9276 28.5502V33.1256ZM43.6913 33.1256C32.2812 30.6288 20.7563 30.6347 8.54572 33.144V28.563C20.7815 25.9895 32.2964 25.9851 43.6913 28.5502V33.1256ZM8.54589 67.9849C20.7817 65.4112 32.2966 65.407 43.6915 67.9721V70.8914C43.6915 71.2225 43.534 71.5316 43.2594 71.7393C42.9821 71.9492 42.6226 72.0291 42.2718 71.9586C31.7434 69.842 21.1715 69.8543 9.95214 71.9974C9.60464 72.0637 9.24781 71.9819 8.97388 71.7723C8.70185 71.5641 8.54589 71.2563 8.54589 70.9273V67.9849ZM46.21 71.7723C45.938 71.5643 45.782 71.2563 45.782 70.9273V70.8914V67.9847C58.0178 65.4111 69.5328 65.4069 80.9276 67.972V70.8913C80.9276 71.2224 80.7701 71.5314 80.4955 71.7391C80.2183 71.9491 79.8585 72.029 79.5079 71.9584C68.9796 69.8417 58.4077 69.854 47.1881 71.9969C46.8411 72.0644 46.4841 71.9819 46.21 71.7723V71.7723ZM46.7567 22.2523C52.2635 21.3945 57.8094 20.9658 63.3549 20.9658C68.9006 20.9658 74.4463 21.3945 79.9532 22.2523C80.5178 22.3402 80.9276 22.7947 80.9276 23.3327V26.5373C69.5176 24.0405 57.9926 24.0463 45.782 26.5557V23.3325C45.7822 22.7946 46.1919 22.3402 46.7567 22.2523ZM9.52035 22.2523C15.0272 21.3945 20.5731 20.9658 26.1186 20.9658C31.6643 20.9658 37.21 21.3945 42.7169 22.2523C43.2815 22.3402 43.6913 22.7947 43.6913 23.3327V26.5373C32.2812 24.0405 20.7563 24.0463 8.54572 26.5557V23.3325C8.54589 22.7946 8.95557 22.3402 9.52035 22.2523ZM41.9517 77.0315H5.04893C4.47397 77.0315 4.00625 76.5935 4.00625 76.0551V26.641C4.00625 26.1025 4.47397 25.6645 5.04893 25.6645H6.45501V70.9273C6.45501 71.8467 6.89094 72.7073 7.65123 73.2886C8.24053 73.7394 8.96645 73.9783 9.71172 73.9783C9.93038 73.9783 10.1509 73.9577 10.3699 73.9159C21.3007 71.8284 31.5925 71.8142 41.8327 73.8732C42.221 73.9513 42.6136 73.9615 42.9944 73.9095V76.0552C42.9944 76.5935 42.5267 77.0315 41.9517 77.0315V77.0315ZM85.4673 76.0551C85.4673 76.5935 84.9996 77.0315 84.4246 77.0315H47.5218C46.9468 77.0315 46.4791 76.5935 46.4791 76.0551V73.9442C46.634 73.9652 46.7903 73.9783 46.948 73.9783C47.1667 73.9783 47.3872 73.9577 47.6062 73.9159C58.5372 71.8284 68.8288 71.8142 79.0692 73.8732C80.0399 74.0685 81.0389 73.846 81.8097 73.2624C82.5779 72.6811 83.0185 71.8169 83.0185 70.8916V25.6647H84.4246C84.9996 25.6647 85.4673 26.1027 85.4673 26.6411V76.0551Z" fill="black"/>
<path d="M14.7117 13.3882C16.4963 13.3882 17.943 12.0334 17.943 10.3621C17.943 8.69086 16.4961 7.33594 14.7117 7.33594C12.927 7.33594 11.4802 8.69086 11.4802 10.3621C11.4802 12.0334 12.927 13.3882 14.7117 13.3882Z" fill="black"/>
<path d="M63.3553 3.79735C64.1111 3.79735 64.7237 3.22365 64.7237 2.51586C64.7237 1.80808 64.1111 1.23438 63.3553 1.23438C62.5995 1.23438 61.9869 1.80808 61.9869 2.51586C61.9869 3.22365 62.5995 3.79735 63.3553 3.79735Z" fill="black"/>
<path d="M31.4407 5.53044L34.1831 6.68755C34.3005 6.73704 34.3936 6.83522 34.4406 6.95895L35.5384 9.84962C35.6934 10.258 36.2418 10.258 36.3969 9.84962L37.4947 6.95895C37.5417 6.83522 37.6348 6.73704 37.7522 6.68755L40.4946 5.53044C40.882 5.36691 40.882 4.78884 40.4946 4.62532L37.7522 3.46821C37.6348 3.41872 37.5417 3.32054 37.4947 3.19681L36.3971 0.306301C36.242 -0.1021 35.6936 -0.1021 35.5385 0.306301L34.4407 3.19697C34.3938 3.3207 34.3007 3.41888 34.1832 3.46837L31.4409 4.62548C31.0533 4.78884 31.0533 5.36708 31.4407 5.53044V5.53044Z" fill="black"/>
<path d="M71.3716 10.7682L75.1399 12.3282C75.3012 12.395 75.429 12.5272 75.4936 12.6941L77.0021 16.5909C77.2152 17.1415 77.9688 17.1415 78.1819 16.5909L79.6902 12.6941C79.7548 12.5273 79.8826 12.395 80.0439 12.3282L83.8122 10.7682C84.3445 10.5479 84.3445 9.76847 83.8122 9.54817L80.0439 7.98816C79.8826 7.92136 79.7548 7.78922 79.6902 7.6223L78.1819 3.72543C77.9688 3.17486 77.2152 3.17486 77.0021 3.72543L75.4936 7.6223C75.429 7.78922 75.3012 7.92136 75.1399 7.98816L71.3716 9.54817C70.8393 9.76847 70.8393 10.5479 71.3716 10.7682Z" fill="black"/>
</svg>
