<svg width="90" height="83" viewBox="0 0 90 83" fill="none" xmlns="http://www.w3.org/2000/svg">
<rect x="39.2067" y="41.9844" width="28.9064" height="18.2309" fill="#008BD2"/>
<path d="M85.7502 66.9749H84.1577V29.5019C84.1577 25.4343 80.6238 22.125 76.2804 22.125H13.8669C9.52328 22.125 5.98936 25.4344 5.98936 29.5019V66.9749H4.39693C2.44594 66.9749 0.858521 68.4614 0.858521 70.2885C0.858521 76.7961 6.51217 82.0904 13.4612 82.0904H76.6861C83.6351 82.0904 89.2886 76.7961 89.2886 70.2885C89.2886 68.4614 87.7012 66.9749 85.7502 66.9749ZM9.45161 29.5019C9.45161 27.222 11.4323 25.3671 13.8669 25.3671H76.2802C78.7148 25.3671 80.6955 27.222 80.6955 29.5019V66.9749H77.6339V31.322C77.6339 29.8896 76.3895 28.7243 74.86 28.7243H15.287C13.7574 28.7243 12.513 29.8896 12.513 31.322V66.9749H9.45161V29.5019ZM61.1737 70.217C60.4891 71.7833 58.845 72.8904 56.9289 72.8904H33.2181C31.302 72.8904 29.6579 71.7833 28.9732 70.217H61.1737ZM14.5904 66.9749V31.322C14.5904 30.9623 14.9028 30.6696 15.2871 30.6696H74.8601C75.2443 30.6696 75.5569 30.9621 75.5569 31.322V66.9749H14.5904ZM76.6861 78.8483H13.4612C8.42102 78.8483 4.32059 75.0083 4.32059 70.2885C4.32059 70.249 4.35479 70.217 4.39693 70.217H26.7842C27.5485 72.874 30.1427 74.8357 33.2179 74.8357H56.9289C60.0042 74.8357 62.5982 72.874 63.3625 70.217H85.75C85.7921 70.217 85.8262 70.249 85.8262 70.2885C85.8263 75.0085 81.7261 78.8483 76.6861 78.8483Z" fill="black"/>
<path d="M67.616 36.0781H40.75C39.3127 36.0781 38.1434 37.1731 38.1434 38.5191V59.0945C38.1434 60.4405 39.3127 61.5355 40.75 61.5355H67.616C69.0533 61.5355 70.2226 60.4405 70.2226 59.0945V38.5191C70.2226 37.1731 69.0533 36.0781 67.616 36.0781ZM40.75 38.0236H67.616C67.9077 38.0236 68.1453 38.246 68.1453 38.5193V40.8177H40.2206V38.5193C40.2206 38.246 40.4581 38.0236 40.75 38.0236ZM67.616 59.5902H40.75C40.4581 59.5902 40.2206 59.3678 40.2206 59.0945V42.7628H68.1453V59.0945C68.1453 59.3678 67.9079 59.5902 67.616 59.5902Z" fill="black"/>
<path d="M25.3514 34.7578H20.8129C20.1889 34.7578 19.5967 35.0109 19.1877 35.4522C18.7787 35.8934 18.5946 36.4783 18.6823 37.0568L19.3906 41.7196C19.5405 42.7067 20.4566 43.451 21.5212 43.451H24.7021C25.7794 43.451 26.6968 42.6966 26.8362 41.6963L27.4853 37.0335C27.5654 36.4585 27.377 35.8789 26.9683 35.4433C26.56 35.0077 25.9706 34.7578 25.3514 34.7578ZM24.7764 41.4448C24.7716 41.4795 24.7398 41.5057 24.7023 41.5057H21.5214C21.4845 41.5057 21.4527 41.4798 21.4475 41.4457L20.7392 36.783C20.7378 36.7744 20.7344 36.7513 20.7566 36.7272C20.7791 36.7031 20.8038 36.7031 20.8131 36.7031H25.3515C25.3607 36.7031 25.3854 36.7031 25.4077 36.7269C25.43 36.7506 25.4268 36.7736 25.4256 36.7822L24.7764 41.4448Z" fill="black"/>
<path d="M63.5997 52.5781C63.0262 52.5781 62.561 53.0137 62.561 53.5508V55.6207C62.561 56.1578 63.0262 56.5934 63.5997 56.5934C64.1733 56.5934 64.6384 56.1578 64.6384 55.6207V53.5508C64.6383 53.0135 64.1733 52.5781 63.5997 52.5781Z" fill="black"/>
<path d="M58.4638 49.1797C57.8902 49.1797 57.425 49.6153 57.425 50.1524V52.2222C57.425 52.7594 57.8902 53.195 58.4638 53.195C59.0373 53.195 59.5025 52.7594 59.5025 52.2222V50.1524C59.5023 49.6153 59.0373 49.1797 58.4638 49.1797Z" fill="black"/>
<path d="M18.8006 57.4646C17.8444 57.4646 17.0695 56.7389 17.0695 55.8435V53.3321C17.0695 52.4367 17.8444 51.7109 18.8006 51.7109C19.7566 51.7109 20.5317 52.4367 20.5317 53.3321V55.8436C20.5317 56.7389 19.7567 57.4646 18.8006 57.4646Z" fill="black"/>
<path d="M18.8006 50.0905C17.8444 50.0905 17.0695 49.3648 17.0695 48.4694V47.9649C17.0695 47.0695 17.8444 46.3438 18.8006 46.3438C19.7566 46.3438 20.5317 47.0695 20.5317 47.9649V48.4694C20.5317 49.3648 19.7567 50.0905 18.8006 50.0905Z" fill="black"/>
<path d="M11.8284 12.5435C12.2363 10.9278 11.1682 9.30847 9.44295 8.92655C7.71766 8.54463 5.98843 9.54479 5.5806 11.1605C5.17277 12.7762 6.24079 14.3955 7.96607 14.7775C9.69136 15.1594 11.4206 14.1592 11.8284 12.5435Z" fill="black"/>
<path d="M62.2706 5.04668C62.2706 5.74994 61.6618 6.31992 60.911 6.31992C60.1601 6.31992 59.5514 5.74977 59.5514 5.04668C59.5514 4.34342 60.1601 3.77344 60.911 3.77344C61.662 3.77344 62.2706 4.34342 62.2706 5.04668Z" fill="black"/>
<path d="M23.5028 0.30436L24.5935 3.17643C24.6401 3.29935 24.7327 3.39688 24.8493 3.44605L27.574 4.59572C27.959 4.75811 27.959 5.33246 27.574 5.49485L24.8493 6.64452C24.7327 6.69369 24.6401 6.79122 24.5935 6.91415L23.5028 9.78621C23.3487 10.192 22.8038 10.192 22.6498 9.78621L21.5591 6.91415C21.5124 6.79122 21.42 6.69369 21.3033 6.64452L18.5785 5.49485C18.1935 5.33246 18.1935 4.75811 18.5785 4.59572L21.3033 3.44605C21.42 3.39688 21.5124 3.29935 21.5591 3.17643L22.6498 0.30436C22.8037 -0.101453 23.3486 -0.101453 23.5028 0.30436Z" fill="#008BD2"/>
<path d="M74.453 3.69932L75.9517 7.57113C76.0159 7.73691 76.1429 7.86825 76.3031 7.93456L80.0473 9.48438C80.5763 9.70338 80.5763 10.4776 80.0473 10.6966L76.3031 12.2465C76.1429 12.3128 76.0157 12.4441 75.9517 12.6099L74.453 16.4817C74.2413 17.0287 73.4926 17.0287 73.2808 16.4817L71.7822 12.6099C71.7181 12.4441 71.591 12.3128 71.4307 12.2465L67.6866 10.6966C67.1575 10.4776 67.1575 9.70338 67.6866 9.48438L71.4307 7.93456C71.591 7.86825 71.7181 7.73691 71.7822 7.57113L73.2808 3.69932C73.4926 3.15231 74.2413 3.15231 74.453 3.69932Z" fill="black"/>
</svg>
