<svg width="88" height="83" viewBox="0 0 88 83" fill="none" xmlns="http://www.w3.org/2000/svg">
<path d="M11.4583 40.3248L12.6382 43.087H73.1056L76.9402 46.4017V49.9926L74.5805 53.0311H17.0626H12.6382L10.5734 56.0696L12.6382 59.1081H74.5805L80.4797 56.0696L83.4294 49.9926L82.2495 41.9821L74.5805 37.5625H11.4583V40.3248Z" fill="#008BD2"/>
<path d="M78.5775 59.2164C82.6755 57.0519 85.4503 52.9387 85.4503 48.2276C85.4503 41.2747 79.41 35.6181 71.9855 35.6181H71.9095C74.6477 33.3084 76.3728 29.9647 76.3728 26.2501C76.3728 19.2973 70.3324 13.6406 62.9081 13.6406H5.20299C2.47047 13.6406 0.247284 15.7226 0.247284 18.2815C0.247284 20.8404 2.47047 22.9224 5.20299 22.9224H7.95728V29.5778H5.20299C2.47047 29.5778 0.247284 31.6598 0.247284 34.2187C0.247284 36.7776 2.47047 38.8596 5.20299 38.8596H9.55558C9.40601 39.3015 9.32484 39.7716 9.32484 40.2591C9.32484 42.8182 11.548 44.9 14.2805 44.9H17.035V51.5554H14.2804C11.5479 51.5554 9.32466 53.6372 9.32466 56.1963C9.32466 57.3491 9.77683 58.4041 10.5224 59.2164C9.77683 60.0288 9.32466 61.0839 9.32466 62.2366C9.32466 64.7955 11.5479 66.8775 14.2804 66.8775H17.0348V73.5329H14.2804C11.5479 73.5329 9.32466 75.6147 9.32466 78.1738C9.32466 80.7329 11.5479 82.8145 14.2804 82.8145H71.9857C79.4102 82.8145 85.4505 77.158 85.4505 70.2052C85.4505 65.4941 82.6755 61.3808 78.5775 59.2164V59.2164ZM11.4185 27.2225H36.2537C36.8271 27.2225 37.2921 26.7871 37.2921 26.2501C37.2921 25.7131 36.8271 25.2777 36.2537 25.2777H11.4185V22.9224H62.9083C64.8675 22.9224 66.4617 24.4153 66.4617 26.2503C66.4617 28.0852 64.8677 29.578 62.9083 29.578H11.4185V27.2225ZM3.70849 34.2187C3.70849 33.4469 4.37897 32.8191 5.20299 32.8191H62.9083C66.776 32.8191 69.9227 29.8723 69.9227 26.2503C69.9227 22.628 66.776 19.6812 62.9083 19.6812H5.20299C4.3788 19.6812 3.70849 19.0534 3.70849 18.2817C3.70849 17.5098 4.37897 16.882 5.20299 16.882H62.9083C68.4243 16.882 72.9119 21.0845 72.9119 26.2503C72.9119 31.4158 68.4243 35.6183 62.9083 35.6183H14.2804H5.20299C4.37897 35.6183 3.70849 34.9904 3.70849 34.2187V34.2187ZM20.4959 44.8999H71.9857C73.5838 44.8999 74.9382 45.8933 75.3835 47.2552H59.1828C58.6094 47.2552 58.1444 47.6904 58.1444 48.2276C58.1444 48.7647 58.6094 49.2 59.1828 49.2H75.3835C74.9382 50.5618 73.5838 51.5553 71.9857 51.5553H20.4959V44.8999ZM14.2804 54.7966H71.9857C75.8534 54.7966 79.0001 51.8498 79.0001 48.2277C79.0001 44.6055 75.8534 41.6589 71.9857 41.6589H14.2804C13.4562 41.6589 12.7859 41.031 12.7859 40.2591C12.7859 39.4873 13.4564 38.8596 14.2804 38.8596H62.9083H71.9857C77.5016 38.8596 81.9893 43.0621 81.9893 48.2277C81.9893 53.3928 77.5025 57.5951 71.9872 57.5957C71.9867 57.5957 71.9862 57.5957 71.9855 57.5957H14.2804C14.28 57.5957 14.2797 57.5957 14.2793 57.5957C13.4557 57.5952 12.7859 56.9675 12.7859 56.1962C12.7859 55.4245 13.4562 54.7966 14.2804 54.7966V54.7966ZM20.4959 71.1776H32.3752C32.9486 71.1776 33.4136 70.7422 33.4136 70.2052C33.4136 69.6682 32.9486 69.2328 32.3752 69.2328H20.4959V66.8775H71.9857C73.9449 66.8775 75.5391 68.3704 75.5391 70.2054C75.5391 72.0403 73.9449 73.5331 71.9857 73.5331H20.4959V71.1776ZM71.9857 79.5733H14.2804C13.4562 79.5733 12.7859 78.9455 12.7859 78.1738C12.7859 77.4019 13.4564 76.7742 14.2804 76.7742H71.9857C75.8534 76.7742 79.0001 73.8274 79.0001 70.2054C79.0001 66.5831 75.8534 63.6363 71.9857 63.6363H14.2804C13.4562 63.6363 12.7859 63.0084 12.7859 62.2368C12.7859 61.4654 13.4557 60.8377 14.2793 60.8372H14.2804H71.9857H71.9874C77.5027 60.838 81.9895 65.0404 81.9895 70.2055C81.9893 75.3708 77.5016 79.5733 71.9857 79.5733V79.5733Z" fill="black"/>
<path d="M52.0589 47.25H38.3099C37.7365 47.25 37.2716 47.6854 37.2716 48.2224C37.2716 48.7594 37.7365 49.1948 38.3099 49.1948H52.0589C52.6323 49.1948 53.0973 48.7594 53.0973 48.2224C53.0971 47.6854 52.6323 47.25 52.0589 47.25Z" fill="black"/>
<path d="M67.68 69.2344H39.7838C39.2104 69.2344 38.7455 69.6698 38.7455 70.2068C38.7455 70.7438 39.2104 71.1792 39.7838 71.1792H67.6799C68.2533 71.1792 68.7182 70.7438 68.7182 70.2068C68.7182 69.6698 68.2535 69.2344 67.68 69.2344V69.2344Z" fill="black"/>
<path d="M86.4462 25.2651C86.4462 25.968 85.8377 26.538 85.0869 26.538C84.3363 26.538 83.7277 25.9682 83.7277 25.2651C83.7277 24.5622 84.3362 23.9922 85.0869 23.9922C85.8377 23.9922 86.4462 24.562 86.4462 25.2651Z" fill="black"/>
<path d="M70.4053 3.00729C70.4053 3.71023 69.7968 4.28021 69.046 4.28021C68.2954 4.28021 67.6867 3.71023 67.6867 3.00729C67.6867 2.30436 68.2952 1.73438 69.046 1.73438C69.7968 1.73438 70.4053 2.3042 70.4053 3.00729Z" fill="black"/>
<path d="M55.5479 0.304238L56.6383 3.17534C56.6849 3.29826 56.7773 3.39563 56.8939 3.44496L59.6178 4.59415C60.0026 4.75654 60.0026 5.33072 59.6178 5.49311L56.8939 6.6423C56.7773 6.69147 56.6849 6.78884 56.6383 6.91192L55.5479 9.78302C55.3939 10.1887 54.8491 10.1887 54.6951 9.78302L53.6047 6.91192C53.5581 6.789 53.4657 6.69163 53.3489 6.6423L50.625 5.49311C50.2402 5.33072 50.2402 4.75654 50.625 4.59415L53.3489 3.44496C53.4655 3.39579 53.5579 3.29826 53.6047 3.17534L54.6951 0.304238C54.849 -0.101413 55.3939 -0.101413 55.5479 0.304238V0.304238Z" fill="black"/>
<path d="M81.3583 4.69139L82.8565 8.5619C82.9205 8.72768 83.0477 8.85902 83.2079 8.92533L86.9508 10.4747C87.4797 10.6935 87.4797 11.4676 86.9508 11.6864L83.2079 13.2358C83.0477 13.3021 82.9207 13.4334 82.8565 13.5992L81.3583 17.4697C81.1466 18.0166 80.398 18.0166 80.1865 17.4697L78.6882 13.5992C78.6241 13.4336 78.497 13.3023 78.3367 13.2358L74.5938 11.6864C74.0649 11.4676 74.0649 10.6935 74.5938 10.4747L78.3367 8.92533C78.497 8.85902 78.6239 8.72768 78.6882 8.5619L80.1865 4.69139C80.398 4.14454 81.1466 4.14454 81.3583 4.69139V4.69139Z" fill="#008BD2"/>
</svg>
