<svg width="16" height="27" viewBox="0 0 16 27" fill="none" xmlns="http://www.w3.org/2000/svg">
<path d="M15.9375 13.5714C15.9375 13.3571 15.8304 13.1161 15.6696 12.9554L3.1875 0.473212C3.02679 0.3125 2.78571 0.205355 2.57143 0.205355C2.35714 0.205355 2.11607 0.3125 1.95536 0.473212L0.616071 1.8125C0.455357 1.97321 0.348214 2.21428 0.348214 2.42857C0.348214 2.64285 0.455357 2.88393 0.616071 3.04464L11.1429 13.5714L0.616071 24.0982C0.455357 24.2589 0.348214 24.5 0.348214 24.7143C0.348214 24.9554 0.455357 25.1696 0.616071 25.3304L1.95536 26.6696C2.11607 26.8304 2.35714 26.9375 2.57143 26.9375C2.78571 26.9375 3.02679 26.8304 3.1875 26.6696L15.6696 14.1875C15.8304 14.0268 15.9375 13.7857 15.9375 13.5714Z" fill="#767676"/>
</svg>
