<svg width="36" height="125" viewBox="0 0 36 125" fill="none" xmlns="http://www.w3.org/2000/svg">
<path d="M17.5 35H17.5138C27.1671 35 35 27.1671 35 17.5138V17.5C35 7.83294 27.1671 0 17.5 0C7.83294 0 0 7.83294 0 17.5V17.5138C0.0137904 27.1671 7.84673 35 17.5 35Z" fill="white"/>
<path d="M19.1553 28.6006V18.906H22.4098L22.8925 15.1274H19.1553V12.7141C19.1553 11.6246 19.4586 10.88 21.0308 10.88H23.0304V7.50132C22.6856 7.45995 21.4996 7.34961 20.1206 7.34961C17.2384 7.34961 15.2664 9.11479 15.2664 12.3417V15.1274H11.998V18.906H15.2526V28.6006H19.1553Z" fill="#313845"/>
</svg>
