<svg width="20" height="21" viewBox="0 0 20 21" fill="none" xmlns="http://www.w3.org/2000/svg">
<path d="M10 0C4.486 0 0 4.58566 0 10.2222C0 15.8587 4.486 20.4443 10 20.4443C15.514 20.4443 20 15.8587 20 10.2222C20 4.58566 15.514 0 10 0ZM8.001 14.7332L4.97994 11.6517C4.59532 11.2594 4.59454 10.6317 4.97818 10.2384C5.37417 9.83245 6.02659 9.8317 6.42351 10.2367L7.999 11.8444L12.5705 7.1714C12.9669 6.76614 13.6191 6.76614 14.0155 7.1714C14.3999 7.56425 14.3999 8.1922 14.0155 8.58505L8.001 14.7332Z" fill="#141448"/>
</svg>
