<svg width="35" height="125" viewBox="0 0 35 125" fill="none" xmlns="http://www.w3.org/2000/svg">
<path d="M17.5 35H17.5138C27.1671 35 35 27.1671 35 17.5138V17.5C35 7.83294 27.1671 0 17.5 0C7.83294 0 0 7.83294 0 17.5V17.5138C0.0137904 27.1671 7.83294 35 17.5 35Z" fill="white"/>
<path d="M17.5009 10.1507C19.9004 10.1507 20.1762 10.1645 21.1277 10.2059C21.9965 10.2472 22.4792 10.3851 22.7964 10.5093C23.2101 10.6747 23.5135 10.8678 23.8307 11.185C24.1478 11.5022 24.3409 11.7918 24.5064 12.2193C24.6305 12.5364 24.7822 13.0053 24.8098 13.8879C24.8511 14.8394 24.8649 15.1153 24.8649 17.5148C24.8649 19.9143 24.8511 20.1901 24.8098 21.1416C24.7684 22.0104 24.6305 22.4931 24.5064 22.8103C24.3409 23.224 24.1478 23.5274 23.8307 23.8446C23.5135 24.1618 23.2239 24.3548 22.7964 24.5203C22.4792 24.6444 22.0103 24.7961 21.1277 24.8237C20.1762 24.865 19.9004 24.8789 17.5009 24.8789C15.1013 24.8789 14.8255 24.865 13.874 24.8237C13.0052 24.7823 12.5225 24.6444 12.2053 24.5203C11.7916 24.3548 11.4882 24.1618 11.1711 23.8446C10.8539 23.5274 10.6608 23.2378 10.4954 22.8103C10.3712 22.4931 10.2195 22.0242 10.192 21.1416C10.1506 20.1901 10.1368 19.9143 10.1368 17.5148C10.1368 15.1153 10.1506 14.8394 10.192 13.8879C10.2333 13.0191 10.3712 12.5364 10.4954 12.2193C10.6608 11.8056 10.8539 11.5022 11.1711 11.185C11.4882 10.8678 11.7778 10.6747 12.2053 10.5093C12.5225 10.3851 12.9914 10.2335 13.874 10.2059C14.8255 10.1507 15.1151 10.1507 17.5009 10.1507ZM17.5009 8.52344C15.06 8.52344 14.7566 8.53723 13.805 8.5786C12.8535 8.61997 12.1916 8.77167 11.6262 8.99231C11.0332 9.22675 10.5367 9.53014 10.0403 10.0266C9.54381 10.523 9.24042 11.0195 9.00599 11.6125C8.78534 12.1779 8.63365 12.8398 8.59227 13.7914C8.5509 14.7429 8.53711 15.0601 8.53711 17.4872C8.53711 19.9281 8.5509 20.2315 8.59227 21.183C8.63365 22.1346 8.78534 22.7965 9.00599 23.3619C9.24042 23.9549 9.54381 24.4514 10.0403 24.9478C10.5367 25.4443 11.0332 25.7476 11.6262 25.9821C12.1916 26.2027 12.8535 26.3544 13.805 26.3958C14.7566 26.4372 15.0738 26.4509 17.5009 26.4509C19.9418 26.4509 20.2452 26.4372 21.1967 26.3958C22.1482 26.3544 22.8102 26.2027 23.3756 25.9821C23.9686 25.7476 24.465 25.4443 24.9615 24.9478C25.4579 24.4514 25.7613 23.9549 25.9957 23.3619C26.2164 22.7965 26.3681 22.1346 26.4095 21.183C26.4508 20.2315 26.4646 19.9143 26.4646 17.4872C26.4646 15.0463 26.4508 14.7429 26.4095 13.7914C26.3681 12.8398 26.2164 12.1779 25.9957 11.6125C25.7613 11.0195 25.4579 10.523 24.9615 10.0266C24.465 9.53014 23.9686 9.22675 23.3756 8.99231C22.8102 8.77167 22.1482 8.61997 21.1967 8.5786C20.2452 8.53723 19.9418 8.52344 17.5009 8.52344Z" fill="#313845"/>
<path d="M17.5005 12.8945C14.9493 12.8945 12.8945 14.9631 12.8945 17.5005C12.8945 20.0517 14.9631 22.1065 17.5005 22.1065C20.0517 22.1065 22.1065 20.038 22.1065 17.5005C22.1203 14.9631 20.0517 12.8945 17.5005 12.8945ZM17.5005 20.493C15.8457 20.493 14.508 19.1554 14.508 17.5005C14.508 15.8457 15.8457 14.508 17.5005 14.508C19.1554 14.508 20.4931 15.8457 20.4931 17.5005C20.4931 19.1554 19.1554 20.493 17.5005 20.493Z" fill="#313845"/>
<path d="M22.2983 13.79C22.8924 13.79 23.374 13.3084 23.374 12.7143C23.374 12.1202 22.8924 11.6387 22.2983 11.6387C21.7042 11.6387 21.2227 12.1202 21.2227 12.7143C21.2227 13.3084 21.7042 13.79 22.2983 13.79Z" fill="white"/>
</svg>
