<svg width="36" height="125" viewBox="0 0 36 125" fill="none" xmlns="http://www.w3.org/2000/svg">
<path d="M17.5069 35H17.5207C27.1778 35 35.0138 27.164 35.0138 17.5069C35.0138 7.83601 27.1778 0 17.5069 0C7.83603 0 0 7.83601 0 17.5069C0 27.164 7.83603 35 17.5069 35Z" fill="white"/>
<path d="M17.4368 18.0026C20.1546 18.0026 22.3619 15.7953 22.3619 13.0775C22.3619 10.3597 20.1546 8.15234 17.4368 8.15234C14.7191 8.15234 12.5117 10.3597 12.5117 13.0775C12.5117 15.7953 14.7191 18.0026 17.4368 18.0026ZM17.4368 11.0495C18.5543 11.0495 19.4786 11.96 19.4786 13.0913C19.4786 14.2087 18.5681 15.133 17.4368 15.133C16.3194 15.133 15.395 14.2225 15.395 13.0913C15.395 11.96 16.3194 11.0495 17.4368 11.0495Z" fill="#313845"/>
<path d="M19.4232 22.0173C20.4303 21.7827 21.396 21.3965 22.2789 20.8308C22.9549 20.4032 23.1618 19.5202 22.7342 18.8442C22.3065 18.1682 21.4236 17.9613 20.7476 18.389C18.7334 19.6582 16.1398 19.6582 14.1256 18.389C13.4496 17.9613 12.5666 18.1682 12.139 18.8442C11.7113 19.5202 11.9182 20.4032 12.5942 20.8308C13.4772 21.3827 14.4567 21.7827 15.45 22.0173L12.7046 24.7626C12.139 25.3283 12.139 26.2388 12.7046 26.8044C12.9805 27.0803 13.353 27.2321 13.7255 27.2321C14.098 27.2321 14.4705 27.0941 14.7464 26.8044L17.4504 24.1004L20.1543 26.8044C20.72 27.3701 21.6305 27.3701 22.1961 26.8044C22.7618 26.2388 22.7618 25.3283 22.1961 24.7626L19.4232 22.0173Z" fill="#313845"/>
</svg>
