<svg id="Layer_1" xmlns="http://www.w3.org/2000/svg" viewBox="0 0 453.54 127.56"><style>.st0{fill-rule:evenodd;clip-rule:evenodd;fill:url(#SVGID_1_)}.st1{fill:url(#SVGID_2_)}.st1,.st2,.st3,.st4{fill-rule:evenodd;clip-rule:evenodd}.st3{fill:url(#SVGID_3_)}.st4{fill:url(#SVGID_4_)}.st5{fill:url(#SVGID_5_)}.st6,.st7{fill-rule:evenodd;clip-rule:evenodd;fill:url(#SVGID_6_)}.st7{fill:url(#SVGID_7_)}</style><linearGradient id="SVGID_1_" gradientUnits="userSpaceOnUse" x1="198.381" y1="51.345" x2="198.381" y2="114.49"><stop offset="0" stop-color="#008fd7"/><stop offset="1" stop-color="#004d9f"/></linearGradient><path class="st0" d="M212.16 82.42c-5.49 2.96-20.09 5.68-22.26-7.88-2.28-14.29 11.84-16.56 18.15-13.96v5.05s3.09.5 5.17.28c.39-2.5 1.53-6.94 1.34-8.84-11.78-8.3-33.79-2.41-32.31 17.78 1.48 20.19 24.93 19.8 32.31 10.99-1.02-1.52-1.84-2.68-2.4-3.42z"/><linearGradient id="SVGID_2_" gradientUnits="userSpaceOnUse" x1="235.34" y1="51.344" x2="235.34" y2="114.491"><stop offset="0" stop-color="#008fd7"/><stop offset="1" stop-color="#004d9f"/></linearGradient><path class="st1" d="M226.96 77.7c2.61-.1 13.89-1.04 20.38-4.56 7.39-4.09 5.88-13.16 2.24-15.97-10.96-8.76-32.64-1.36-31.45 17.69 1.24 20 24.93 19.8 32.31 10.99a73.316 73.316 0 0 0-2.4-3.42c-4.93 2.65-17.52 5.65-21.08-4.73zm14.75-16.54c2.97 1.39 3.2 3.3 3.31 3.91.11.61-.43 2.06-1.74 2.99-3.15 2.21-8.87 3.77-17.14 4.2-.01-10.55 10.84-13.3 15.57-11.1z"/><path d="M283.14 35.01l-1.46 4.04c-.05.13-.17.23-.37.3-.2.07-.5.1-.91.1-.21 0-.38-.01-.51-.03a.703.703 0 0 1-.3-.1.265.265 0 0 1-.12-.2c-.01-.08.01-.18.06-.29l1.51-3.82a.733.733 0 0 1-.21-.16.488.488 0 0 1-.13-.23l-3.92-10.49c-.07-.17-.1-.31-.1-.4 0-.1.03-.17.1-.23.06-.06.17-.1.32-.12.15-.02.34-.03.58-.03.24 0 .44.01.57.02.14.01.25.03.33.07.08.03.14.08.18.14.04.06.07.14.12.25l3.13 8.81h.04l3.02-8.86c.05-.15.11-.25.18-.3.07-.04.17-.08.31-.1.14-.02.34-.03.6-.03.23 0 .41.01.56.03.15.02.25.06.32.12s.1.13.1.23-.02.22-.07.37l-3.93 10.91zm14.29-.31c0 .07-.02.12-.05.16-.03.05-.08.08-.16.12-.07.03-.17.06-.31.07-.13.02-.29.02-.49.02s-.36-.01-.49-.02c-.13-.02-.24-.04-.32-.07a.295.295 0 0 1-.16-.12.273.273 0 0 1-.04-.16v-4.42c-.46.2-.94.36-1.45.48s-1.06.18-1.65.18c-.76 0-1.39-.1-1.89-.29-.5-.2-.91-.46-1.21-.81-.3-.34-.51-.75-.64-1.22s-.19-1.06-.19-1.78v-3.12c0-.06.01-.12.04-.16a.44.44 0 0 1 .16-.12c.08-.04.19-.06.31-.07a6.11 6.11 0 0 1 .98 0c.13.01.23.04.31.07.07.04.13.08.16.12.04.04.05.1.05.16v2.81c0 .66.05 1.15.15 1.48.1.33.24.58.43.77.19.19.42.33.69.4.27.08.59.12.96.12.48 0 .95-.06 1.41-.18.46-.12.92-.3 1.37-.52v-4.87c0-.06.01-.12.04-.16a.44.44 0 0 1 .16-.12c.08-.04.18-.06.32-.07a6.394 6.394 0 0 1 .98 0c.13.01.23.04.31.07.07.04.13.08.16.12.03.04.05.1.05.16V34.7zm13.1-5.96c0 .32-.08.54-.24.68a.84.84 0 0 1-.54.2h-7.23c0 .61.06 1.16.18 1.65s.33.91.61 1.26c.29.35.66.62 1.12.81.46.19 1.02.28 1.68.28.52 0 .99-.04 1.4-.13.41-.09.76-.18 1.06-.29.3-.11.54-.2.74-.29.19-.08.34-.13.44-.13.06 0 .11.01.15.04.05.03.08.07.1.13.02.06.04.14.05.24.01.1.02.23.02.37 0 .11 0 .2-.01.27-.01.08-.02.15-.03.21-.01.06-.03.12-.06.16-.03.05-.07.1-.11.14-.05.04-.18.12-.4.22-.22.1-.5.2-.85.3-.35.1-.75.19-1.21.26-.46.08-.95.12-1.47.12-.9 0-1.69-.13-2.37-.38-.68-.25-1.25-.63-1.71-1.12-.46-.5-.81-1.12-1.05-1.87s-.35-1.62-.35-2.61c0-.94.12-1.79.37-2.54s.6-1.39 1.06-1.92c.46-.52 1.02-.93 1.67-1.21.65-.28 1.38-.42 2.18-.42.86 0 1.6.14 2.2.42.61.28 1.1.65 1.5 1.12.39.47.68 1.02.86 1.65.18.63.27 1.3.27 2.02v.36zm-2.03-.6c.02-1.06-.21-1.89-.7-2.49-.5-.6-1.23-.9-2.2-.9-.5 0-.94.09-1.31.28-.38.19-.69.44-.94.74-.25.31-.45.67-.59 1.08-.14.41-.22.84-.23 1.29h5.97zm15.33.9c0 .92-.13 1.76-.38 2.51-.25.76-.62 1.41-1.1 1.96-.48.55-1.06.97-1.75 1.27-.69.3-1.46.45-2.33.45-.89 0-1.67-.14-2.32-.43-.66-.29-1.2-.72-1.62-1.31-.43-.58-.74-1.31-.95-2.18-.2-.87-.3-1.9-.3-3.08 0-1 .05-1.92.14-2.76.09-.84.23-1.6.4-2.27.17-.67.38-1.24.61-1.71.24-.47.48-.85.73-1.12.25-.28.49-.5.73-.66.24-.17.51-.32.8-.46.29-.14.62-.27.99-.37.37-.1.79-.2 1.25-.28l3.92-.65c.14-.02.25-.04.34-.03.09 0 .16.04.21.1.05.06.08.16.1.3.02.14.03.33.03.57 0 .16-.01.3-.03.42a.71.71 0 0 1-.09.28c-.04.07-.1.13-.18.17-.08.04-.19.07-.32.1l-3.65.61c-.37.06-.69.12-.96.19-.28.07-.52.15-.74.24-.21.09-.4.19-.57.3-.16.11-.32.25-.49.42-.16.17-.31.38-.45.63-.13.25-.25.54-.34.86-.09.32-.17.67-.23 1.05s-.12.78-.18 1.21c.27-.28.55-.54.86-.77.3-.23.62-.43.95-.59.33-.16.68-.29 1.06-.37.37-.08.76-.13 1.18-.13.79 0 1.48.13 2.07.4.59.26 1.08.64 1.46 1.13.39.49.67 1.07.87 1.76.18.67.28 1.42.28 2.24zm-2.09.17c0-.54-.05-1.05-.15-1.54-.1-.49-.26-.92-.49-1.29-.22-.37-.52-.67-.9-.89-.38-.22-.84-.34-1.4-.34a3.371 3.371 0 0 0-1.83.52c-.28.18-.57.39-.85.65-.29.26-.59.56-.92.91-.01.13-.01.28-.01.45v.52c0 .88.05 1.65.17 2.32.11.67.29 1.22.54 1.67.25.45.59.78 1 1.01.42.23.92.34 1.53.34.53 0 1-.1 1.41-.31.41-.21.76-.5 1.04-.87s.49-.83.64-1.37c.15-.52.22-1.12.22-1.78zm14.78 5.49c0 .07-.02.12-.05.16-.03.05-.08.08-.16.12-.07.03-.17.06-.3.07-.13.02-.29.02-.49.02s-.37-.01-.5-.02c-.13-.02-.23-.04-.31-.07a.339.339 0 0 1-.16-.12.277.277 0 0 1-.05-.16v-4.82h-5.6v4.82c0 .07-.02.12-.05.16-.03.05-.09.08-.16.12-.07.03-.17.06-.3.07-.13.02-.3.02-.5.02s-.36-.01-.49-.02c-.13-.02-.23-.04-.31-.07a.295.295 0 0 1-.16-.12.273.273 0 0 1-.04-.16V23.72c0-.06.01-.12.04-.16a.44.44 0 0 1 .16-.12c.08-.04.18-.06.31-.07a6.172 6.172 0 0 1 .99 0c.13.01.23.04.3.07.07.04.13.08.16.12.03.04.05.1.05.16v4.46h5.6v-4.46c0-.06.02-.12.05-.16.03-.04.09-.08.16-.12.07-.04.17-.06.31-.07a6.458 6.458 0 0 1 .99 0c.13.01.23.04.3.07.07.04.13.08.16.12.03.04.05.1.05.16V34.7zm5.75-7.11c.3-.02.6-.04.91-.05.31-.01.64-.02 1-.02.87 0 1.61.09 2.23.26.62.17 1.13.42 1.53.75.4.32.7.71.88 1.16.19.45.28.96.28 1.52s-.1 1.09-.3 1.57c-.2.49-.51.91-.94 1.27-.43.36-.97.64-1.64.85-.67.21-1.47.31-2.4.31-.22 0-.44 0-.66-.01-.22 0-.43-.01-.65-.02-.21-.01-.42-.03-.63-.04l-.63-.06c-.34-.04-.6-.15-.76-.33-.16-.18-.24-.45-.24-.82V23.72c0-.06.01-.12.04-.16a.44.44 0 0 1 .16-.12c.08-.04.18-.06.31-.07.13-.01.28-.02.47-.02.39 0 .66.03.81.09.15.06.23.16.23.29v3.86zm4.73 3.76c0-.33-.05-.64-.15-.91-.1-.27-.27-.5-.5-.7-.23-.19-.54-.34-.92-.44-.38-.1-.85-.15-1.4-.15-.33 0-.64.01-.93.02l-.83.06v4.22c.28.03.57.06.84.09.28.02.61.04 1.01.04.99 0 1.72-.2 2.18-.59.47-.4.7-.94.7-1.64zm6.16 3.35c0 .07-.02.12-.05.16-.03.05-.09.08-.16.12-.07.03-.17.06-.31.07-.13.02-.3.02-.5.02s-.36-.01-.49-.02c-.13-.02-.23-.04-.31-.07a.295.295 0 0 1-.16-.12.273.273 0 0 1-.04-.16V23.72c0-.06.01-.12.04-.16a.44.44 0 0 1 .16-.12c.08-.04.18-.06.31-.07a6.172 6.172 0 0 1 .99 0c.13.01.23.04.31.07.07.04.13.08.16.12.03.04.05.1.05.16V34.7zm13.51.01c0 .06-.02.11-.05.16-.03.05-.09.09-.16.12s-.17.05-.3.07c-.13.02-.29.02-.49.02s-.36-.01-.49-.02c-.13-.02-.23-.04-.32-.07-.08-.03-.14-.07-.17-.12a.302.302 0 0 1-.05-.16V28.4c0-.32.01-.64.03-.97.01-.33.04-.65.06-.97-.19.32-.39.64-.62.96-.22.31-.45.62-.68.93l-4.66 6.37c-.06.07-.11.12-.15.17-.04.05-.1.09-.17.12s-.16.05-.26.06a4.202 4.202 0 0 1-.83 0c-.11-.02-.21-.04-.27-.07a.309.309 0 0 1-.15-.12.293.293 0 0 1-.04-.16v-11c0-.06.01-.11.04-.16s.08-.09.16-.12.18-.05.31-.07c.13-.01.29-.02.48-.02.39 0 .66.03.8.09.15.06.22.15.22.27v6.36c0 .32-.01.63-.03.94l-.06.93c.19-.31.38-.61.57-.91.19-.3.4-.59.62-.87l4.72-6.45c.05-.06.1-.12.15-.17.05-.05.12-.09.2-.12.08-.03.17-.05.27-.06a4.36 4.36 0 0 1 .85 0c.12.01.21.03.28.07.07.03.12.07.15.12.03.05.04.11.04.17v10.99zm-1.08-16.17c0 .46-.07.9-.21 1.31-.14.41-.36.76-.66 1.07-.3.31-.69.55-1.16.72-.47.18-1.04.26-1.72.26-.62 0-1.16-.08-1.63-.23-.47-.15-.86-.38-1.17-.66-.31-.29-.55-.64-.71-1.05a3.88 3.88 0 0 1-.24-1.4c0-.08.01-.15.04-.21s.08-.1.16-.13.18-.06.3-.07c.13-.02.28-.02.46-.02.2 0 .35.01.46.03.11.02.2.05.26.09.06.04.1.09.12.16.02.06.03.14.03.23 0 .26.04.5.12.72.08.22.21.41.37.57.17.16.37.29.6.38.23.09.51.13.82.13.3 0 .57-.04.8-.13.23-.09.43-.22.59-.38.16-.16.29-.36.37-.59.08-.23.12-.47.12-.73 0-.08.01-.15.03-.21a.29.29 0 0 1 .12-.15c.06-.04.15-.07.26-.09.11-.02.26-.03.45-.03s.36.01.48.02c.13.02.23.04.3.07.08.03.13.08.17.13.06.04.07.11.07.19zm21.77 20.2c-.01.09-.08.16-.22.2-.14.04-.35.07-.62.07-.3 0-.52-.02-.66-.07s-.21-.11-.21-.2v-3.73h-8.98c-.19 0-.35-.06-.46-.18-.11-.12-.16-.29-.16-.53V23.72c0-.06.01-.12.04-.16a.44.44 0 0 1 .16-.12c.08-.04.18-.06.31-.07a6.172 6.172 0 0 1 .99 0c.13.01.23.04.3.07.07.04.13.08.16.12.03.04.05.1.05.16v9.55h5.26v-9.55c0-.06.02-.12.05-.16.03-.04.09-.08.16-.12.08-.04.18-.06.31-.07a6.172 6.172 0 0 1 .99 0c.13.01.23.04.3.07.07.04.13.08.16.12.03.04.05.1.05.16v9.55h1.52c.2 0 .32.04.39.11.06.07.1.2.1.39v4.97zm11.35-10c0 .32-.08.54-.24.68a.84.84 0 0 1-.54.2h-7.23c0 .61.06 1.16.19 1.65.12.49.33.91.61 1.26.29.35.66.62 1.12.81.46.19 1.02.28 1.68.28.52 0 .99-.04 1.4-.13.41-.09.76-.18 1.06-.29.3-.11.54-.2.74-.29.19-.08.34-.13.44-.13.06 0 .11.01.15.04.04.03.08.07.1.13.02.06.04.14.05.24.01.1.02.23.02.37 0 .11 0 .2-.01.27-.01.08-.02.15-.03.21-.01.06-.03.12-.06.16-.03.05-.06.1-.11.14-.05.04-.18.12-.4.22-.22.1-.5.2-.85.3-.35.1-.75.19-1.21.26-.46.08-.95.12-1.47.12-.9 0-1.7-.13-2.37-.38-.68-.25-1.25-.63-1.71-1.12-.46-.5-.81-1.12-1.05-1.87s-.35-1.62-.35-2.61c0-.94.12-1.79.37-2.54s.6-1.39 1.05-1.92c.46-.52 1.02-.93 1.67-1.21.65-.28 1.38-.42 2.18-.42.86 0 1.6.14 2.2.42.61.28 1.1.65 1.49 1.12.39.47.68 1.02.86 1.65.18.63.27 1.3.27 2.02v.36zm-2.02-.6c.02-1.06-.21-1.89-.71-2.49-.5-.6-1.23-.9-2.2-.9-.5 0-.94.09-1.31.28-.38.19-.69.44-.94.74-.25.31-.45.67-.59 1.08-.14.41-.22.84-.23 1.29h5.98zm14.71 6.56c0 .07-.02.12-.05.16-.03.05-.08.08-.16.12-.07.03-.17.06-.3.07-.13.02-.29.02-.49.02s-.37-.01-.5-.02c-.13-.02-.23-.04-.31-.07a.339.339 0 0 1-.16-.12.277.277 0 0 1-.05-.16v-4.82h-5.6v4.82c0 .07-.02.12-.05.16-.03.05-.08.08-.16.12-.07.03-.17.06-.3.07-.13.02-.3.02-.5.02s-.36-.01-.49-.02c-.13-.02-.23-.04-.31-.07a.295.295 0 0 1-.16-.12.273.273 0 0 1-.04-.16V23.72c0-.06.01-.12.04-.16a.44.44 0 0 1 .16-.12c.08-.04.18-.06.31-.07a6.172 6.172 0 0 1 .99 0c.13.01.23.04.3.07.07.04.13.08.16.12.03.04.05.1.05.16v4.46h5.6v-4.46c0-.06.01-.12.05-.16.03-.04.09-.08.16-.12.07-.04.18-.06.31-.07a6.458 6.458 0 0 1 .99 0c.13.01.23.04.3.07.07.04.13.08.16.12.03.04.05.1.05.16V34.7zm11.42-10.38c0 .16-.01.3-.02.41-.02.11-.04.21-.08.28-.04.07-.08.13-.13.16a.28.28 0 0 1-.18.06h-3.29v9.47c0 .07-.01.12-.05.16-.03.05-.09.08-.16.12-.07.03-.18.06-.3.07-.13.02-.3.02-.5.02s-.36-.01-.49-.02c-.13-.02-.23-.04-.31-.07a.295.295 0 0 1-.16-.12.273.273 0 0 1-.04-.16v-9.47h-3.29a.3.3 0 0 1-.18-.06.417.417 0 0 1-.13-.16c-.03-.07-.06-.17-.08-.29-.02-.12-.03-.26-.03-.42 0-.15.01-.28.03-.39.02-.11.05-.21.09-.29.04-.08.08-.13.13-.17.05-.04.11-.05.17-.05h8.6c.07 0 .12.02.18.05.05.04.1.09.13.17.03.08.06.18.08.29 0 .13.01.26.01.41zm12.09 4.72c0 .96-.1 1.82-.31 2.59-.21.76-.51 1.41-.92 1.95-.4.53-.9.94-1.49 1.23-.59.29-1.27.43-2.04.43a3.47 3.47 0 0 1-1.71-.41c-.26-.14-.53-.31-.79-.52-.26-.21-.54-.46-.83-.74v5.49a.295.295 0 0 1-.21.29c-.07.03-.17.06-.3.07-.13.02-.3.02-.5.02s-.36-.01-.49-.02c-.13-.02-.23-.04-.31-.07a.295.295 0 0 1-.16-.12.329.329 0 0 1-.04-.17V23.72c0-.07.01-.13.04-.18.02-.04.07-.08.15-.12.07-.03.17-.05.28-.07a4.54 4.54 0 0 1 .84 0c.11.01.2.03.27.07.07.03.12.07.15.12.03.04.04.1.04.18v1.48c.33-.34.65-.64.96-.89.31-.25.62-.46.93-.63.31-.17.63-.29.96-.38.33-.08.68-.13 1.04-.13.8 0 1.47.15 2.04.46.56.31 1.02.73 1.37 1.27.35.54.61 1.16.77 1.87.17.72.26 1.48.26 2.27zm-2.09.23c0-.56-.04-1.1-.13-1.63-.09-.52-.23-.99-.44-1.4-.21-.41-.49-.73-.84-.98-.35-.24-.79-.37-1.31-.37-.26 0-.52.04-.77.12-.25.08-.51.2-.77.37-.26.17-.54.39-.82.66-.29.27-.59.61-.91 1.01v4.37c.56.68 1.08 1.19 1.58 1.55s1.02.54 1.57.54c.51 0 .94-.12 1.31-.37.36-.24.66-.57.88-.98.23-.41.39-.86.5-1.37.1-.5.15-1 .15-1.52z"/><path class="st2" d="M108.07 111.19c-1.98-.4-3.36-1.28-4.45-3.99 6.5-2.98 12.81-8.25 14.38-15.53-1.98-.53-4.37-.36-5.36-2.31-4.9-8.46-6.56-20-10.39-29.54-1.79-.25-4.74.64-5.48-.68-.48 2.48-.56 5.38-1.71 7.19-1.28-.54-2.89-.75-4.45-1.03v-5.13h-8.22c.17 10.46-1.4 22.12.35 31.1-14.87 3.47-6.66-20.42-7.88-31.1h-7.87c-.45 2.06-.63 4.39-1.37 6.16-1.3-.64-3.45-.43-4.45-1.37.14-2.59-.34-5.82.34-7.87 8.33-5.21 26.02-4.64 34.93-.34 2.6-2.29 6.69-3.86 10.88-3.47 3 3.01 4.48 10.05 6.4 15.78 1.51 5.8 3.53 11.42 5.47 16.78.9-3.86 2.4-11.36 3.98-18.7 1.5-6.98 2.89-13.02 5.5-13.81 2.72.19 4.19.9 5.1 2.73-6.48 18.63-6.33 43.88-21.23 54.1-1.51.94-3 1.34-4.47 1.03zm63.43-26.48c1.97.09 5.47.3 6.92.9.45 5.52-1.7 13.98-2.51 16.96-2.07-.43-3.41-.18-4.84-.97V90.27c-7.44 1.89-19.57 1.56-27.06.42-.03 3.25-.65 7.7-1.98 12.06-1.66-.51-3.47-.49-5.2-1.15V85.16c10.18-1.57 9.49-14.94 11.03-25.15-1.38-.12-3.27-.02-4.87-.12-.61-.88-.26-2.72-1.03-3.42 6.27-3.59 21.26-4.9 26.71.34 3.12 6.15 1.85 18.61 2.83 27.9zm-17.21-24.82c-.99 8.83-.92 19.32-5.14 24.92h14.72c-.37-7.84.13-16.36-1.03-24.24-2.64-.42-5.31-.84-8.55-.68z"/><linearGradient id="SVGID_3_" gradientUnits="userSpaceOnUse" x1="318.369" y1="51.497" x2="318.369" y2="114.406"><stop offset="0" stop-color="#008fd7"/><stop offset="1" stop-color="#004d9f"/></linearGradient><path class="st3" d="M330.25 70.12c2.12 1.08 3.84 2.45 5.03 4.17 1.27 1.84 2.73 5.29 0 10.27-2.63 4.1-6.97 6.36-13.02 7.04-5.66.44-11.5.67-15.07-1.58-3.46-5.74-.9-20.27-1.1-29.44h-5.61c-.01-.8-.33-2.54-.58-3.42 11.72-4.39 38.21-8.23 34.34 8.56-.57 1.65-1.66 3.4-3.99 4.4zm-16.88-.68c3.1-.67 7.83-.7 11.29-.29 5.99-7.71-2.18-11.03-11-8.56-.18 3.13-.19 5.54-.29 8.85zm-.15 4.74c-.13 3.44-.21 6.5-.31 9.7 6.41 1.04 16.96 1.03 15.52-5.82-1.66-4.72-9.18-4.54-15.21-3.88z"/><linearGradient id="SVGID_4_" gradientUnits="userSpaceOnUse" x1="361.78" y1="50.933" x2="361.78" y2="114.768"><stop offset="0" stop-color="#008fd7"/><stop offset="1" stop-color="#004d9f"/></linearGradient><path class="st4" d="M354.69 55.89c.12 7.8-.6 16.75-.81 25.03 1.53-2.65 5.49-9.8 9.37-16.17 3.21-5.26 6.37-10.28 8.77-11.29 1.56-.34 4.47.63 5.71 1.43 1.14 3.66-1.18 20.67-.69 30.46h5.76c.05 1.26.5 2.47.68 3.76-3.69 1.8-9.18 4.42-13.62 1.94-.79-7.96.49-18.37.68-27.05-5.6 9.34-10.26 19.64-17.12 27.74-2.82.79-5.49-.08-6.85-1.72-1.26-9.11.5-19.54.34-29.45h-6.16c-.06-.78-.35-2.4-.68-3.42 2.56-1.31 6.94-3.8 10.73-3.85 1.42-.02 3.85.36 3.89 2.59z"/><linearGradient id="SVGID_5_" gradientUnits="userSpaceOnUse" x1="413.473" y1="51.345" x2="413.473" y2="114.491"><stop offset="0" stop-color="#008fd7"/><stop offset="1" stop-color="#004d9f"/></linearGradient><path class="st5" d="M413.47 101.83c-15.57 0-28.24-12.67-28.24-28.24 0-15.57 12.67-28.24 28.24-28.24 15.57 0 28.25 12.67 28.25 28.24 0 15.57-12.67 28.24-28.25 28.24zm0-54.22c-14.32 0-25.97 11.65-25.97 25.97 0 14.32 11.65 25.97 25.97 25.97 14.32 0 25.97-11.65 25.97-25.97 0-14.31-11.65-25.97-25.97-25.97z"/><path class="st2" d="M44.05 33.15c-14.36 0-31.24 11.06-29.62 32.32 1.56 20.47 19.53 27.78 31.77 25.85 9.48-1.49 13.11-7.08 13.11-7.08s-.9-2.18-1.71-3.53c-10.85 6.28-30.25 5.09-33.84-13.82-3.44-18.14 10.43-29.48 27.34-26.25v5.82l5.14 1.03s1.14-4.52 1.71-9.25c-2.19-2.25-6.27-5.09-13.9-5.09z"/><linearGradient id="SVGID_6_" gradientUnits="userSpaceOnUse" x1="275.146" y1="51.349" x2="275.146" y2="114.491"><stop offset="0" stop-color="#008fd7"/><stop offset="1" stop-color="#004d9f"/></linearGradient><path class="st6" d="M276.73 53.74c-2.76.56-4.95 1.67-6.51 3.42-1.92-7.38-11.94-2.13-15.07 0 .34.92.59 1.99.74 3.42 2.1-.03 5.05 0 6.11 0-.04 1.25-1.64 45.79-1.64 45.79l-.08 2.15c-.06 1.23 1.22 3.46 4.8 2.74 3.57-.73 9.61-3.13 9.93-3.42-.46-1.65-.74-3.84-.74-3.84s-3.32-.05-6.09-.05l.47-14.52c3.83 2.61 11.25 2.59 16.05.92 15.21-5.27 14.82-41.27-7.97-36.61zm4.78 29.75c-3.32 1.47-8.09 1.55-12.57.63-.04-.18-.06-.36-.1-.55l.7-21.62c4.83-2.36 12.58-2.35 15.07 2.06 3.55 5.3 2.71 16.9-3.1 19.48z"/><linearGradient id="SVGID_7_" gradientUnits="userSpaceOnUse" x1="411.448" y1="51.345" x2="411.448" y2="114.49"><stop offset="0" stop-color="#008fd7"/><stop offset="1" stop-color="#004d9f"/></linearGradient><path class="st7" d="M425.23 82.42c-5.49 2.96-20.09 5.68-22.26-7.88-2.28-14.29 11.84-16.56 18.15-13.96v5.05s3.09.5 5.17.28c.39-2.5 1.53-6.94 1.34-8.84-11.78-8.3-33.78-2.41-32.31 17.78 1.48 20.19 24.93 19.8 32.31 10.99-1.02-1.52-1.84-2.68-2.4-3.42z"/></svg>