<svg width="99" height="83" viewBox="0 0 99 83" fill="none" xmlns="http://www.w3.org/2000/svg">
<path d="M2.52734 49.9685L23.0245 58.4996V49.0544L29.8569 45.7029L48.0767 43.8748L71.1767 46.9216L75.4063 49.0544V58.4996L95.9035 49.0544V46.9216L49.3781 26.8125L2.52734 46.9216V49.9685Z" fill="#008BD2"/>
<path d="M94.9983 43.9834L52.0892 26.3042C50.3712 25.5964 48.3204 25.5966 46.6027 26.3042L3.69324 43.9834C1.77005 44.7757 0.575562 46.3403 0.575562 48.0662C0.575562 49.7921 1.77005 51.3568 3.69324 52.1491L21.5036 59.4871V74.994C21.5036 77.6186 24.465 79.5812 30.5571 80.994C35.5991 82.1633 42.2717 82.8072 49.3457 82.8072C56.4199 82.8072 63.0926 82.1633 68.1345 80.994C74.2266 79.5812 77.188 77.6186 77.188 74.994V59.4871L85.1012 56.2267V61.6271H84.3961C82.5061 61.6271 80.9685 63.067 80.9685 64.837V71.6755C80.9685 74.8039 83.6863 77.3488 87.0267 77.3488C90.3672 77.3488 93.0849 74.8037 93.0849 71.6755V64.837C93.0849 63.067 91.5473 61.6271 89.657 61.6271H88.952V54.6401L94.9981 52.1491C96.9213 51.3568 98.116 49.7923 98.116 48.0662C98.1162 46.3401 96.9215 44.7757 94.9983 43.9834V43.9834ZM89.2341 71.6755C89.2341 72.8153 88.2438 73.7427 87.0267 73.7427C85.8095 73.7427 84.8192 72.8153 84.8192 71.6755V65.2332H89.2341V71.6755ZM73.3374 70.6613C71.9726 70.0367 70.2411 69.4823 68.1346 68.9939C63.0926 67.8246 56.4201 67.1807 49.3459 67.1807C42.2717 67.1807 35.5991 67.8246 30.5573 68.9939C28.451 69.4823 26.7195 70.0367 25.3545 70.6613V49.907C25.5545 49.5172 27.1798 48.266 32.274 47.1842C36.9258 46.1963 42.9888 45.6522 49.3459 45.6522C55.7034 45.6522 61.7663 46.1962 66.418 47.1842C71.5122 48.266 73.1372 49.5172 73.3374 49.907V70.6613ZM66.418 77.6691C61.7659 78.6569 55.703 79.201 49.3459 79.201C42.9888 79.201 36.9256 78.6571 32.274 77.6691C27.3716 76.6279 25.682 75.4301 25.3833 74.9939C25.6818 74.5578 27.3712 73.3598 32.274 72.3186C36.9258 71.3308 42.9888 70.7867 49.3459 70.7867C55.7034 70.7867 61.7663 71.3306 66.418 72.3186C71.3205 73.3596 73.01 74.5577 73.3087 74.9939C73.01 75.4301 71.3203 76.6281 66.418 77.6691V77.6691ZM77.1882 55.5472V49.8594C77.1882 47.2347 74.2267 45.272 68.1346 43.8594C63.0926 42.6901 56.4201 42.0462 49.3459 42.0462C42.2717 42.0462 35.5991 42.6901 30.5573 43.8594C24.4652 45.272 21.5037 47.2347 21.5037 49.8594V55.5472L5.24418 48.8482C4.74733 48.6435 4.42651 48.3365 4.42651 48.0662C4.42651 47.7959 4.74752 47.4891 5.24418 47.2843L48.1537 29.6051C48.5158 29.4559 48.9308 29.3813 49.3461 29.3813C49.761 29.3813 50.1763 29.4559 50.5383 29.6051L85.1014 43.8455V52.2868L77.1882 55.5472ZM93.4474 48.8482L88.952 50.7004V45.4322L93.4474 47.2844C93.9444 47.4891 94.2653 47.7961 94.2653 48.0664C94.2654 48.3365 93.9444 48.6434 93.4474 48.8482Z" fill="black"/>
<path d="M58.6637 57.1875C58.0257 57.1875 57.5085 57.6719 57.5085 58.2694V60.5715C57.5085 61.169 58.0257 61.6534 58.6637 61.6534C59.3017 61.6534 59.819 61.169 59.819 60.5715V58.2694C59.819 57.6719 59.3017 57.1875 58.6637 57.1875Z" fill="black"/>
<path d="M64.0658 54.2266C63.4278 54.2266 62.9105 54.7109 62.9105 55.3084V57.6106C62.9105 58.2081 63.4278 58.6924 64.0658 58.6924C64.7038 58.6924 65.221 58.2081 65.221 57.6106V55.3084C65.221 54.7109 64.7038 54.2266 64.0658 54.2266Z" fill="black"/>
<path d="M68.0677 61.7891C67.4296 61.7891 66.9124 62.2734 66.9124 62.8709V65.1731C66.9124 65.7706 67.4296 66.2549 68.0677 66.2549C68.7057 66.2549 69.2229 65.7706 69.2229 65.1731V62.8709C69.2229 62.2734 68.7055 61.7891 68.0677 61.7891Z" fill="black"/>
<path d="M31.0601 63.4824C29.9968 63.4824 29.1346 62.6751 29.1346 61.6792V58.7328C29.1346 57.737 29.9966 56.9297 31.0601 56.9297C32.1233 56.9297 32.9855 57.737 32.9855 58.7328V61.6792C32.9855 62.6751 32.1235 63.4824 31.0601 63.4824V63.4824Z" fill="black"/>
<path d="M31.0601 55.0549C29.9968 55.0549 29.1346 54.2476 29.1346 53.2517V52.1547C29.1346 51.1589 29.9966 50.3516 31.0601 50.3516C32.1233 50.3516 32.9855 51.1589 32.9855 52.1547V53.2517C32.9855 54.2476 32.1235 55.0549 31.0601 55.0549Z" fill="black"/>
<path d="M71.4639 20.2583C71.4639 22.1052 69.8652 23.6025 67.8928 23.6025C65.9205 23.6025 64.3217 22.1053 64.3217 20.2583C64.3217 18.4113 65.9205 16.9141 67.8928 16.9141C69.8652 16.9141 71.4639 18.4114 71.4639 20.2583Z" fill="black"/>
<path d="M17.5666 7.87713C17.5666 8.65926 16.8896 9.29332 16.0544 9.29332C15.2192 9.29332 14.5421 8.65926 14.5421 7.87713C14.5421 7.09499 15.2192 6.46094 16.0544 6.46094C16.8896 6.46094 17.5666 7.09499 17.5666 7.87713Z" fill="black"/>
<path d="M41.5879 0.338527L42.8011 3.5329C42.8531 3.66956 42.9558 3.77803 43.0855 3.8328L46.1161 5.11144C46.5442 5.29217 46.5442 5.93086 46.1161 6.11159L43.0855 7.39023C42.9558 7.445 42.8529 7.55329 42.8011 7.69013L41.5879 10.8845C41.4165 11.3359 40.8105 11.3359 40.639 10.8845L39.4258 7.69013C39.3738 7.55329 39.2711 7.445 39.1414 7.39023L36.1108 6.11159C35.6827 5.93086 35.6827 5.29217 36.1108 5.11144L39.1414 3.8328C39.2711 3.77803 39.374 3.66974 39.4258 3.5329L40.639 0.338527C40.8105 -0.112842 41.4167 -0.112842 41.5879 0.338527V0.338527Z" fill="black"/>
<path d="M85.8241 2.72985L87.491 7.03623C87.5625 7.2207 87.7037 7.36663 87.882 7.4405L92.0463 9.16426C92.6346 9.40779 92.6346 10.269 92.0463 10.5125L87.882 12.2362C87.7037 12.3101 87.5623 12.4562 87.491 12.6405L85.8241 16.9469C85.5886 17.5553 84.7557 17.5553 84.5202 16.9469L82.8533 12.6405C82.7818 12.4562 82.6407 12.3099 82.4624 12.2362L78.298 10.5125C77.7097 10.269 77.7097 9.40779 78.298 9.16426L82.4624 7.4405C82.6407 7.36663 82.782 7.22052 82.8533 7.03623L84.5202 2.72985C84.7557 2.1213 85.5886 2.1213 85.8241 2.72985V2.72985Z" fill="black"/>
<path d="M15.1942 15.9719L16.8612 20.2783C16.9326 20.4628 17.0738 20.6087 17.2521 20.6825L21.4164 22.4063C22.0047 22.6498 22.0047 23.511 21.4164 23.7545L17.2521 25.4783C17.0738 25.5522 16.9324 25.6983 16.8612 25.8826L15.1942 30.189C14.9587 30.7973 14.1258 30.7973 13.8904 30.189L12.2234 25.8826C12.152 25.6983 12.0108 25.552 11.8325 25.4783L7.66815 23.7545C7.07986 23.511 7.07986 22.6497 7.66815 22.4063L11.8325 20.6825C12.0108 20.6087 12.1522 20.4626 12.2234 20.2783L13.8904 15.9719C14.1258 15.3635 14.9587 15.3635 15.1942 15.9719V15.9719Z" fill="black"/>
</svg>
