<svg width="86" height="83" viewBox="0 0 86 83" fill="none" xmlns="http://www.w3.org/2000/svg">
<path d="M16.7667 20.1724L22.076 19.0675V81.2182L16.7667 80.1133L12.9321 75.4174V23.2109L16.7667 20.1724Z" fill="#008BD2"/>
<path d="M63.6658 17.9626L61.6011 15.4766H50.3925L49.2126 17.9626V32.0501L50.3925 32.8788L55.1119 29.8403L59.2414 32.8788L61.0112 32.0501V19.0675L63.3709 19.3437L63.6658 17.9626Z" fill="#008BD2"/>
<path d="M65.5939 11.5781H25.7129C15.7656 11.5781 11.207 18.5746 11.1588 25.1149C11.1054 25.4963 11.0748 25.8843 11.0748 26.2789V73.9147C11.0748 78.8221 15.3381 82.8147 20.5786 82.8147H63.1287C66.0616 82.8147 68.5105 80.8428 69.0463 78.2403H69.102C72.4724 78.2403 75.2144 75.6725 75.2144 72.5161V20.5875C75.2144 15.6198 70.8986 11.5781 65.5939 11.5781ZM60.8706 17.4623C60.2962 17.4623 59.8307 17.8984 59.8307 18.4362V31.321C59.8307 31.5086 59.7022 31.5979 59.6255 31.6344C59.5488 31.6706 59.396 31.7156 59.234 31.6056L55.4503 29.0305C55.0857 28.7824 54.5923 28.7824 54.2277 29.0305L50.444 31.6056C50.282 31.7156 50.1291 31.6708 50.0525 31.6344C49.9758 31.5979 49.8473 31.5086 49.8473 31.321V18.4362C49.8473 17.1076 51.0015 16.0269 52.4202 16.0269H60.0077C61.0565 16.0269 61.9608 16.6175 62.361 17.4623H60.8706ZM25.7129 14.8241H49.821C48.8837 15.4176 48.1892 16.3225 47.9068 17.3789H20.5785C19.5085 17.3789 18.4805 17.5479 17.5199 17.8546C19.2339 16.0988 21.8472 14.8241 25.7129 14.8241V14.8241ZM14.541 73.9145V26.2788C14.541 23.1612 17.2494 20.6249 20.5785 20.6249H20.8852V79.5685H20.5785C17.2494 79.5685 14.541 77.0323 14.541 73.9145ZM65.6901 77.1697C65.6901 78.4925 64.541 79.5684 63.1287 79.5684H22.9649V20.6249H47.7674V31.321C47.7674 32.1902 48.2813 32.9754 49.1084 33.3699C49.4625 33.5389 49.8445 33.6222 50.2248 33.6222C50.7328 33.6222 51.2373 33.4734 51.6666 33.1812L54.8389 31.0221L58.0112 33.1812C58.7619 33.6923 59.7424 33.7647 60.5692 33.3699C61.3964 32.9754 61.9102 32.1902 61.9102 31.321V20.6249H63.1284C64.5408 20.6249 65.6897 21.701 65.6897 23.0235V77.1697H65.6901ZM71.748 72.5159C71.748 73.8652 70.5902 74.964 69.1563 74.9915V23.0235C69.1563 20.3735 67.1954 18.1468 64.5617 17.543C64.3101 16.4165 63.5926 15.4481 62.6071 14.8241H65.5939C68.9874 14.8241 71.7482 17.4096 71.7482 20.5875V72.5159H71.748Z" fill="black"/>
<path d="M29.3931 54.1219C29.8121 54.1219 30.2071 53.8828 30.3649 53.4943L31.2156 51.4028H36.9134L37.7551 53.4916C37.958 53.9949 38.5577 54.249 39.0952 54.0588C39.6325 53.8689 39.9036 53.307 39.7009 52.804L35.3015 41.8871C35.2978 41.8781 35.294 41.8692 35.2902 41.8605C35.0876 41.3993 34.613 41.1016 34.0807 41.1016C34.0804 41.1016 34.0799 41.1016 34.0795 41.1016C33.5467 41.102 33.0721 41.4008 32.8703 41.8626C32.8671 41.87 32.8639 41.8773 32.861 41.8847L28.4212 52.8011C28.2167 53.3036 28.4861 53.8663 29.0228 54.0578C29.145 54.1013 29.2701 54.1219 29.3931 54.1219ZM34.0776 44.3657L36.1286 49.4553H32.0076L34.0776 44.3657Z" fill="black"/>
<path d="M58.7808 52.174H52.812L59.4684 42.6071C59.6767 42.3077 59.6933 41.9255 59.5114 41.6114C59.3297 41.2974 58.9788 41.1016 58.5972 41.1016H51.1358C50.5615 41.1016 50.0959 41.5376 50.0959 42.0754C50.0959 42.6132 50.5615 43.0493 51.1358 43.0493H56.6786L50.0221 52.6162C49.8138 52.9156 49.7972 53.2978 49.9791 53.6119C50.1608 53.9258 50.5118 54.1215 50.8933 54.1215H58.7808C59.3551 54.1215 59.8208 53.6855 59.8208 53.1477C59.8206 52.6101 59.3551 52.174 58.7808 52.174V52.174Z" fill="black"/>
<path d="M41.2344 48.5883H48.3912C48.9655 48.5883 49.4311 48.1523 49.4311 47.6145C49.4311 47.0767 48.9655 46.6406 48.3912 46.6406H41.2344C40.6602 46.6406 40.1945 47.0767 40.1945 47.6145C40.1945 48.1523 40.6602 48.5883 41.2344 48.5883Z" fill="black"/>
<path d="M55.8658 60.7891H32.3166C30.494 60.7891 29.011 62.1778 29.011 63.8847V71.2381C29.011 72.945 30.494 74.3337 32.3166 74.3337H55.8658C57.6885 74.3337 59.1714 72.945 59.1714 71.2381V63.8847C59.1712 62.1779 57.6885 60.7891 55.8658 60.7891ZM57.0916 71.2383C57.0916 71.8714 56.5416 72.3864 55.8658 72.3864H32.3166C31.6408 72.3864 31.0909 71.8714 31.0909 71.2383V63.8848C31.0909 63.2518 31.6408 62.7368 32.3166 62.7368H55.8658C56.5416 62.7368 57.0916 63.2518 57.0916 63.8848V71.2383Z" fill="black"/>
<path d="M51.8399 66.5938H36.3372C35.7629 66.5938 35.2972 67.0298 35.2972 67.5676C35.2972 68.1054 35.7629 68.5415 36.3372 68.5415H51.8399C52.4142 68.5415 52.8798 68.1054 52.8798 67.5676C52.8798 67.0296 52.4142 66.5938 51.8399 66.5938Z" fill="black"/>
<path d="M40.1185 27.1302C40.1057 27.1302 40.093 27.13 40.0802 27.1299C37.8625 27.0849 35.6699 27.0775 33.5635 27.1084C32.6111 27.1203 31.8184 26.407 31.8035 25.5108C31.7886 24.6144 32.5524 23.8766 33.5094 23.8627C35.659 23.8316 37.8946 23.8387 40.1551 23.8845C41.1121 23.9039 41.8711 24.6463 41.8503 25.5424C41.8299 26.4265 41.0581 27.1302 40.1185 27.1302V27.1302Z" fill="black"/>
<path d="M27.8557 27.129H26.9555C25.9984 27.129 25.2224 26.4023 25.2224 25.5059C25.2224 24.6097 25.9984 23.8828 26.9555 23.8828H27.8557C28.8129 23.8828 29.5889 24.6095 29.5889 25.5059C29.5889 26.4023 28.8129 27.129 27.8557 27.129Z" fill="black"/>
<path d="M70.3433 5.04926C70.3433 6.71182 68.9042 8.05946 67.1289 8.05946C65.3535 8.05946 63.9145 6.71182 63.9145 5.04926C63.9145 3.3867 65.3535 2.03906 67.1289 2.03906C68.9042 2.0389 70.3433 3.3867 70.3433 5.04926Z" fill="black"/>
<path d="M2.54798 18.2088C3.24334 17.9405 3.57484 17.1951 3.28839 16.5438C3.00195 15.8926 2.20603 15.582 1.51066 15.8503C0.815293 16.1185 0.483798 16.8639 0.770245 17.5152C1.05669 18.1665 1.85261 18.477 2.54798 18.2088Z" fill="black"/>
<path d="M81.3752 8.45316L82.4673 11.3286C82.5139 11.4517 82.6065 11.5492 82.7234 11.5986L85.4514 12.7495C85.8368 12.9121 85.8368 13.4872 85.4514 13.6498L82.7234 14.8008C82.6067 14.8501 82.5141 14.9476 82.4673 15.0707L81.3752 17.9462C81.221 18.3525 80.6754 18.3525 80.5211 17.9462L79.4291 15.0707C79.3822 14.9476 79.2897 14.8501 79.1729 14.8008L76.4449 13.6498C76.0596 13.4872 76.0596 12.9121 76.4449 12.7495L79.1729 11.5986C79.2897 11.5492 79.3822 11.4517 79.4291 11.3286L80.5211 8.45316C80.6754 8.04686 81.221 8.04686 81.3752 8.45316V8.45316Z" fill="black"/>
<path d="M7.83567 0.410625L9.33622 4.28696C9.40047 4.4529 9.52759 4.5844 9.68821 4.65088L13.4366 6.20248C13.9662 6.42164 13.9662 7.19687 13.4366 7.4162L9.68821 8.9678C9.52776 9.03427 9.40047 9.16577 9.33622 9.33172L7.83567 13.208C7.62375 13.7557 6.87399 13.7557 6.66207 13.208L5.16152 9.33172C5.09727 9.16577 4.97016 9.03427 4.80953 8.9678L1.0611 7.4162C0.531554 7.19703 0.531554 6.4218 1.0611 6.20248L4.80953 4.65088C4.96998 4.5844 5.09727 4.4529 5.16152 4.28696L6.66207 0.410625C6.87399 -0.136875 7.62375 -0.136875 7.83567 0.410625V0.410625Z" fill="black"/>
</svg>
