<svg width="89" height="83" viewBox="0 0 89 83" fill="none" xmlns="http://www.w3.org/2000/svg">
<path d="M44.4713 26.7891L13.2052 55.5165L28.8383 70.9851L60.1044 41.1528L44.4713 26.7891Z" fill="#008BD2"/>
<path d="M87.5359 3.645L85.0619 1.32819C83.1707 -0.442893 80.0931 -0.442569 78.2019 1.32819L75.0823 4.24959C69.8186 2.3538 63.842 3.22592 59.8514 6.96283L44.887 20.9766C43.5402 22.2377 42.9557 23.9462 43.1321 25.5961L9.29482 57.2838C5.6153 60.7296 4.593 65.735 6.22567 70.0487L2.71956 73.3321C0.479792 75.4296 0.479792 78.8427 2.71956 80.9402C3.83962 81.9887 5.31063 82.5133 6.78164 82.5133C8.25265 82.5133 9.72384 81.9887 10.8437 80.9402L14.4481 77.5648C15.7747 77.972 17.1568 78.1789 18.5399 78.1789C21.888 78.1789 25.2359 76.9855 27.7848 74.5987L54.1459 49.9122C54.4349 50.5904 54.8695 51.2134 55.4375 51.7452C55.4375 51.7452 55.4375 51.7452 55.4377 51.7454C56.5386 52.7765 58.0023 53.3442 59.5594 53.3442C61.1162 53.3442 62.5803 52.7765 63.6812 51.7454L84.4716 32.2758C85.5726 31.2446 86.1789 29.8739 86.1789 28.4156C86.1789 26.9575 85.5726 25.5866 84.4716 24.5559C84.3072 24.4018 84.1327 24.2611 83.9527 24.1281C85.0341 22.1563 85.5554 19.9137 85.4476 17.5593C85.3757 15.987 85.0244 14.4455 84.4224 12.9847L87.5364 10.0686C89.4269 8.29786 89.4269 5.41608 87.5359 3.645V3.645ZM47.3843 23.3152L62.3487 9.30147C64.2943 7.47944 66.887 6.58176 69.567 6.58176C72.6199 6.58176 75.7856 7.74745 78.2335 10.0398C82.8303 14.3446 83.184 21.0176 79.0219 24.9153L64.0575 38.9291C63.571 39.3847 62.924 39.6357 62.2357 39.6357C61.5475 39.6357 60.9005 39.3847 60.414 38.9291L47.3845 26.7275C46.8978 26.2719 46.6297 25.666 46.6297 25.0213C46.6294 24.3767 46.8976 23.7708 47.3843 23.3152V23.3152ZM44.887 29.066L57.9165 41.2675C57.9946 41.3405 58.0745 41.411 58.1559 41.4796L28.5852 69.1719L15.0899 56.5338L44.6606 28.8418C44.7337 28.918 44.8088 28.9929 44.887 29.066V29.066ZM8.34644 78.6017C7.48373 79.4097 6.07973 79.4097 5.21684 78.6017C4.35396 77.7936 4.35396 76.4788 5.21684 75.6707L7.94574 73.115C8.34713 73.6344 8.79567 74.1313 9.29482 74.5987C9.8627 75.1305 10.472 75.5996 11.1104 76.013L8.34644 78.6017ZM11.7919 72.2602C8.0713 68.776 8.0713 63.1065 11.7919 59.6223L13.5916 57.9369L27.0869 70.5749L25.2874 72.2601C21.5667 75.7447 15.5127 75.7447 11.7919 72.2602V72.2602ZM81.9741 26.8946C82.408 27.301 82.647 27.8413 82.647 28.4159C82.647 28.9906 82.408 29.531 81.974 29.9374L61.1836 49.4071C60.7495 49.8134 60.1727 50.0372 59.559 50.0372C58.9452 50.0372 58.3683 49.8134 57.9343 49.4071C57.9343 49.4069 57.9343 49.4069 57.9341 49.4069C57.5002 49.0005 57.2612 48.4604 57.2612 47.8854C57.2612 47.3109 57.5001 46.771 57.9338 46.3645L61.6185 42.9139C61.8221 42.933 62.0278 42.9427 62.2352 42.9427C63.8667 42.9427 65.4006 42.3478 66.5543 41.2675L81.5187 27.2538C81.6582 27.123 81.7923 26.9884 81.9249 26.8527C81.9413 26.8671 81.9584 26.8799 81.9741 26.8946V26.8946ZM85.0386 7.73062L82.6987 9.92192C82.1244 9.13585 81.4676 8.39167 80.7304 7.70119C79.9876 7.00553 79.192 6.39155 78.3582 5.8591L80.6991 3.66683C80.9484 3.43344 81.2796 3.30501 81.632 3.30501C81.9843 3.30501 82.3156 3.43344 82.5646 3.66683L85.0386 5.98364C85.553 6.46515 85.553 7.24895 85.0386 7.73062V7.73062Z" fill="black"/>
<path d="M25.9867 60.324C26.1883 60.4911 26.4389 60.5732 26.6883 60.5732C26.9812 60.5732 27.2727 60.4602 27.4821 60.2386L28.9761 58.6575C29.3638 58.2472 29.323 57.6201 28.8847 57.257C28.4465 56.8939 27.7769 56.9321 27.3892 57.3424L25.895 58.9234C25.5076 59.3338 25.5484 59.9609 25.9867 60.324V60.324Z" fill="black"/>
<path d="M34.2494 58.543C34.4511 58.7101 34.7016 58.7921 34.9511 58.7921C35.2441 58.7921 35.5356 58.679 35.7449 58.4575L37.2391 56.8764C37.6268 56.4661 37.5861 55.8392 37.1479 55.4759C36.7097 55.1124 36.0401 55.1509 35.6524 55.5613L34.1582 57.1423C33.7703 57.5528 33.8112 58.1799 34.2494 58.543V58.543Z" fill="black"/>
<path d="M54.2408 25.4612C53.8046 25.4612 53.3678 25.3109 53.0261 25.0075C52.3185 24.3791 52.2888 23.3325 52.96 22.6698C54.2726 21.3735 55.6846 20.1041 57.0504 18.8765C57.73 18.2654 58.4328 17.6335 59.1159 17.0054C59.8118 16.3649 60.9294 16.3746 61.613 17.0263C62.2965 17.678 62.2864 18.7248 61.5907 19.3648C60.8933 20.0064 60.1829 20.6448 59.496 21.2624C58.0984 22.5188 56.7782 23.7058 55.5226 24.9456C55.1754 25.2883 54.7086 25.4612 54.2408 25.4612V25.4612Z" fill="black"/>
<path d="M64.2222 16.2799C63.7648 16.2799 63.3082 16.1147 62.9624 15.7851C62.279 15.1338 62.2888 14.0868 62.9847 13.4466L63.7792 12.7159C64.4754 12.0759 65.593 12.0857 66.2763 12.7374C66.9596 13.3891 66.9492 14.436 66.2533 15.0759L65.4597 15.806C65.1158 16.1222 64.6688 16.2799 64.2222 16.2799V16.2799Z" fill="black"/>
<path d="M48.0551 5.70807C48.471 4.06004 47.3816 2.40822 45.6218 2.01863C43.862 1.62904 42.0982 2.64921 41.6822 4.29724C41.2663 5.94526 42.3557 7.59707 44.1155 7.98666C45.8753 8.37625 47.6391 7.35609 48.0551 5.70807Z" fill="black"/>
<path d="M11.592 18.1894C11.592 18.9068 10.9711 19.4882 10.2051 19.4882C9.43909 19.4882 8.81818 18.9068 8.81818 18.1894C8.81818 17.4721 9.43909 16.8906 10.2051 16.8906C10.9711 16.8906 11.592 17.4721 11.592 18.1894Z" fill="black"/>
<path d="M22.2792 4.44324L23.3918 7.37272C23.4395 7.49808 23.5338 7.59755 23.6528 7.64769L26.4321 8.82032C26.8247 8.98595 26.8247 9.57178 26.4321 9.73757L23.6528 10.9102C23.5338 10.9603 23.4395 11.0598 23.3918 11.1852L22.2792 14.1147C22.122 14.5286 21.5662 14.5286 21.409 14.1147L20.2964 11.1852C20.2487 11.0597 20.1544 10.9603 20.0354 10.9102L17.2561 9.73757C16.8635 9.57194 16.8635 8.98611 17.2561 8.82032L20.0354 7.64769C20.1544 7.59755 20.2487 7.49808 20.2964 7.37272L21.409 4.44324C21.5662 4.02934 22.122 4.02934 22.2792 4.44324V4.44324Z" fill="#008BD2"/>
<path d="M7.82593 29.8873L9.35463 33.8365C9.42009 34.0057 9.54963 34.1396 9.71319 34.2073L13.5323 35.7881C14.0718 36.0115 14.0718 36.8013 13.5323 37.0247L9.71319 38.6055C9.54963 38.6731 9.42009 38.8072 9.35463 38.9762L7.82593 42.9255C7.61004 43.4835 6.84612 43.4835 6.63023 42.9255L5.10153 38.9762C5.03607 38.8072 4.90653 38.6731 4.74297 38.6055L0.923897 37.0247C0.384336 36.8013 0.384336 36.0115 0.923897 35.7881L4.74297 34.2073C4.90653 34.1396 5.03607 34.0056 5.10153 33.8365L6.63023 29.8873C6.84629 29.3292 7.61004 29.3292 7.82593 29.8873Z" fill="black"/>
</svg>
