<svg width="89" height="83" viewBox="0 0 89 83" fill="none" xmlns="http://www.w3.org/2000/svg">
<path d="M45.6961 11.5993V3.3125H56.8985V11.5993H45.6961Z" fill="#008BD2"/>
<path d="M33.6063 48.8906V66.569L53.358 66.0166L53.6528 48.8906H33.6063Z" fill="#008BD2" stroke="black"/>
<path d="M84.5956 64.6645V28.7665C84.5956 25.638 81.8793 23.093 78.5406 23.093H61.6709V21.4382C61.6709 18.3475 58.9872 15.8329 55.6886 15.8329H46.8456V12.3515H57.0369C57.6116 12.3515 58.0777 11.9148 58.0777 11.3763V2.93127C58.0777 2.39282 57.6116 1.95612 57.0369 1.95612H46.6638C46.2337 0.818419 45.0769 0 43.7172 0C41.9924 0 40.589 1.31497 40.589 2.93127V15.8329H31.4579C28.1593 15.8329 25.4756 18.3475 25.4756 21.4382V23.093H8.60588C5.26706 23.093 2.55088 25.6382 2.55088 28.7665V65.24C1.20185 65.9921 0.295593 67.3716 0.295593 68.946V78.4463C0.295593 80.8224 2.35892 82.7558 4.89489 82.7558H84.0777C86.6137 82.7558 88.677 80.8224 88.677 78.4463V68.946C88.6772 66.7337 86.8887 64.9065 84.5956 64.6645ZM78.5406 26.3434C79.9664 26.3434 81.1266 27.4305 81.1266 28.7665V64.6362H61.6709V26.3434H78.5406ZM23.9734 74.6712H63.1292L66.3393 79.5052H20.7632L23.9734 74.6712ZM25.2684 72.7209L28.4786 67.8867H58.624L61.8342 72.7209H25.2684ZM28.9445 50.1076H32.375V64.6364H28.9445V50.1076ZM52.7798 50.1076V64.6364H34.4565V50.1076H52.7798ZM58.202 50.1076V64.6364H54.8612V50.1076H58.202ZM55.9962 10.4012H46.8456V3.90641H55.9962V10.4012ZM42.6704 2.93127C42.6704 2.3904 43.14 1.9503 43.7172 1.9503C44.2945 1.9503 44.7642 2.3904 44.7642 2.93127V15.8329H42.6704V2.93127ZM31.4579 19.0832H55.6886C57.0746 19.0832 58.202 20.1396 58.202 21.4382V48.1573H28.9445V21.4382C28.9445 20.1397 30.0719 19.0832 31.4579 19.0832V19.0832ZM6.01986 28.7665C6.01986 27.4305 7.18004 26.3434 8.60588 26.3434H25.4756V64.6362H6.01986V28.7665ZM3.76457 78.4463V68.946C3.76457 68.3619 4.27173 67.8867 4.89489 67.8867H5.9408H26.0271L18.3116 79.5052H4.89489C4.27173 79.5054 3.76457 79.0302 3.76457 78.4463V78.4463ZM85.2082 78.4463C85.2082 79.0302 84.7011 79.5054 84.0779 79.5054H68.791L61.0757 67.8869H82.8613H84.0779C84.7011 67.8869 85.2082 68.3621 85.2082 68.9462V78.4463Z" fill="black"/>
<path d="M11.4962 42.5356V32.0391H19.4559V42.5356H11.4962Z" fill="#008BD2"/>
<path d="M67.5086 42.5356V32.0391H75.4682V42.5356H67.5086Z" fill="#008BD2"/>
<path d="M11.4962 59.6616V48.8888H19.4559V59.6616H11.4962Z" fill="#008BD2"/>
<path d="M67.5086 59.6616V48.8888H75.4682V59.6616H67.5086Z" fill="#008BD2"/>
<path d="M43.4298 38.8043C48.4594 38.8043 52.5512 34.9703 52.5512 30.2576C52.5512 25.5449 48.4594 21.7109 43.4298 21.7109C38.4001 21.7109 34.3083 25.5449 34.3083 30.2576C34.3083 34.9701 38.4001 38.8043 43.4298 38.8043ZM43.4298 23.6611C47.3117 23.6611 50.4698 26.6203 50.4698 30.2574C50.4698 33.8945 47.3115 36.8538 43.4298 36.8538C39.5481 36.8538 36.3898 33.8945 36.3898 30.2574C36.3898 26.6203 39.5479 23.6611 43.4298 23.6611V23.6611Z" fill="black"/>
<path d="M12.6769 60.5544H18.6216C19.8501 60.5544 20.8498 59.6179 20.8498 58.4666V49.2987C20.8498 48.1476 19.8503 47.2109 18.6216 47.2109H12.6769C11.4484 47.2109 10.4489 48.1474 10.4489 49.2987V58.4666C10.4487 59.6178 11.4484 60.5544 12.6769 60.5544ZM12.5302 49.2989C12.5302 49.223 12.5959 49.1614 12.6769 49.1614H18.6216C18.7026 49.1614 18.7683 49.223 18.7683 49.2989V58.4668C18.7683 58.5426 18.7026 58.6043 18.6216 58.6043H12.6769C12.5959 58.6043 12.5302 58.5426 12.5302 58.4668V49.2989Z" fill="black"/>
<path d="M12.6769 43.7733H18.6216C19.8501 43.7733 20.8498 42.8368 20.8498 41.6855V32.5175C20.8498 31.3663 19.8503 30.4297 18.6216 30.4297H12.6769C11.4484 30.4297 10.4489 31.3662 10.4489 32.5175V41.6855C10.4487 42.8368 11.4484 43.7733 12.6769 43.7733ZM12.5302 32.5176C12.5302 32.4418 12.5959 32.3801 12.6769 32.3801H18.6216C18.7026 32.3801 18.7683 32.4418 18.7683 32.5176V41.6857C18.7683 41.7616 18.7026 41.8232 18.6216 41.8232H12.6769C12.5959 41.8232 12.5302 41.7616 12.5302 41.6857V32.5176Z" fill="black"/>
<path d="M68.58 60.5544H74.5247C75.7532 60.5544 76.7528 59.6179 76.7528 58.4666V49.2987C76.7528 48.1476 75.7534 47.2109 74.5247 47.2109H68.58C67.3514 47.2109 66.3518 48.1474 66.3518 49.2987V58.4666C66.3518 59.6178 67.3514 60.5544 68.58 60.5544ZM68.4332 49.2989C68.4332 49.223 68.499 49.1614 68.58 49.1614H74.5247C74.6056 49.1614 74.6714 49.223 74.6714 49.2989V58.4668C74.6714 58.5426 74.6056 58.6043 74.5247 58.6043H68.58C68.499 58.6043 68.4332 58.5426 68.4332 58.4668V49.2989Z" fill="black"/>
<path d="M68.58 43.7733H74.5247C75.7532 43.7733 76.7528 42.8368 76.7528 41.6855V32.5175C76.7528 31.3663 75.7534 30.4297 74.5247 30.4297H68.58C67.3514 30.4297 66.3518 31.3662 66.3518 32.5175V41.6855C66.3518 42.8368 67.3514 43.7733 68.58 43.7733ZM68.4332 32.5176C68.4332 32.4418 68.499 32.3801 68.58 32.3801H74.5247C74.6056 32.3801 74.6714 32.4418 74.6714 32.5176V41.6857C74.6714 41.7616 74.6056 41.8232 74.5247 41.8232H68.58C68.499 41.8232 68.4332 41.7616 68.4332 41.6857V32.5176Z" fill="black"/>
<path d="M45.0726 33.1452C45.2754 33.3333 45.5399 33.4271 45.8043 33.4271C46.0726 33.4271 46.3408 33.3304 46.5442 33.1376C46.9483 32.7548 46.9448 32.1374 46.5361 31.7588L44.4715 29.8455V26.2876C44.4715 25.7492 44.0055 25.3125 43.4308 25.3125C42.8562 25.3125 42.3901 25.749 42.3901 26.2876V30.2526C42.3901 30.513 42.5014 30.7628 42.6991 30.9458L45.0726 33.1452Z" fill="black"/>
<path d="M72.3476 70.2734C71.773 70.2734 71.3069 70.71 71.3069 71.2486V73.3237C71.3069 73.8622 71.7728 74.2989 72.3476 74.2989C72.9223 74.2989 73.3883 73.8624 73.3883 73.3237V71.2486C73.3883 70.7101 72.9224 70.2734 72.3476 70.2734Z" fill="black"/>
<path d="M79.5923 72.7188C79.0176 72.7188 78.5515 73.1555 78.5515 73.6939V75.7689C78.5515 76.3073 79.0174 76.744 79.5923 76.744C80.1669 76.744 80.633 76.3075 80.633 75.7689V73.6939C80.633 73.1555 80.1669 72.7188 79.5923 72.7188Z" fill="black"/>
<path d="M13.2487 71.6797C12.6741 71.6797 12.208 72.1162 12.208 72.6548V74.7298C12.208 75.2683 12.6741 75.705 13.2487 75.705C13.8234 75.705 14.2894 75.2684 14.2894 74.7298V72.6548C14.2894 72.1162 13.8235 71.6797 13.2487 71.6797Z" fill="black"/>
<path d="M28.9409 5.25838C29.3495 3.63861 28.2794 2.01514 26.5507 1.63225C24.822 1.24936 23.0893 2.25206 22.6807 3.87183C22.272 5.4916 23.3422 7.11508 25.0709 7.49796C26.7996 7.88085 28.5322 6.87815 28.9409 5.25838Z" fill="black"/>
<path d="M84.1283 18.7326C84.8807 18.7326 85.4906 18.1611 85.4906 17.4562C85.4906 16.7512 84.8807 16.1797 84.1283 16.1797C83.3759 16.1797 82.766 16.7512 82.766 17.4562C82.766 18.1611 83.3759 18.7326 84.1283 18.7326Z" fill="black"/>
<path d="M72.773 6.6254L73.8658 9.50475C73.9126 9.628 74.0053 9.72569 74.1222 9.77502L76.8523 10.9276C77.238 11.0905 77.238 11.6663 76.8523 11.8292L74.1222 12.9817C74.0053 13.0311 73.9126 13.1288 73.8658 13.252L72.773 16.1314C72.6185 16.5381 72.0726 16.5381 71.9181 16.1314L70.8253 13.252C70.7785 13.1288 70.6858 13.0311 70.5689 12.9817L67.8388 11.8292C67.4532 11.6663 67.4532 11.0905 67.8388 10.9276L70.5689 9.77502C70.6858 9.72569 70.7785 9.628 70.8253 9.50475L71.9181 6.6254C72.0725 6.21862 72.6185 6.21862 72.773 6.6254Z" fill="black"/>
<path d="M9.64298 4.9659L11.1446 8.84741C11.209 9.01352 11.3362 9.14534 11.4968 9.21181L15.2483 10.7655C15.7783 10.985 15.7783 11.7614 15.2483 11.9809L11.4968 13.5346C11.3362 13.601 11.2088 13.7329 11.1446 13.899L9.64298 17.7805C9.43083 18.3289 8.68062 18.3289 8.46847 17.7805L6.96668 13.8991C6.90246 13.733 6.77507 13.6012 6.61453 13.5347L2.86297 11.981C2.33303 11.7615 2.33303 10.9852 2.86297 10.7657L6.61453 9.21197C6.77524 9.1455 6.90246 9.01368 6.96668 8.84757L8.4683 4.96606C8.68062 4.41759 9.43083 4.41759 9.64298 4.9659V4.9659Z" fill="black"/>
</svg>
