<svg width="89" height="83" viewBox="0 0 89 83" fill="none" xmlns="http://www.w3.org/2000/svg">
<path fill-rule="evenodd" clip-rule="evenodd" d="M2.25278 3.31081V78.1679L5.20241 81.4826H20.5405L23.7851 78.1679V3.98416L22.0153 1.92969H4.61248L2.25278 3.31081ZM9.92182 15.1885L10.8067 12.9787L12.5765 11.5976L14.6412 12.4262L15.8211 14.0836V16.2934L13.4614 17.9508L10.8067 17.3983L9.92182 15.1885Z" fill="#008BD2"/>
<path d="M19.4312 0H6.7081C3.11356 0 0.189148 2.73863 0.189148 6.10499V76.7075C0.189148 80.0737 3.11356 82.8124 6.7081 82.8124H19.4312C23.0257 82.8124 25.9503 80.0737 25.9503 76.7074V6.10499C25.9503 2.73863 23.0257 0 19.4312 0V0ZM22.4601 76.7074C22.4601 78.2714 21.1013 79.5439 19.4312 79.5439H6.7081C5.03795 79.5439 3.67937 78.2714 3.67937 76.7074V72.4165H13.8485C14.4267 72.4165 14.8955 71.9775 14.8955 71.436C14.8955 70.8945 14.4267 70.4555 13.8485 70.4555H3.67937V65.0625H9.88968C10.4679 65.0625 10.9367 64.6234 10.9367 64.0821C10.9367 63.5407 10.4679 63.1016 9.88968 63.1016H3.67937V57.7086H13.8485C14.4267 57.7086 14.8955 57.2696 14.8955 56.7281C14.8955 56.1866 14.4267 55.7476 13.8485 55.7476H3.67937V50.3546H9.88968C10.4679 50.3546 10.9367 49.9155 10.9367 49.3741C10.9367 48.8328 10.4679 48.3936 9.88968 48.3936H3.67937V43.0006H13.8485C14.4267 43.0006 14.8955 42.5617 14.8955 42.0202C14.8955 41.4786 14.4267 41.0397 13.8485 41.0397H3.67937V35.6467H9.88968C10.4679 35.6467 10.9367 35.2077 10.9367 34.6662C10.9367 34.1247 10.4679 33.6857 9.88968 33.6857H3.67937V28.2921H13.8485C14.4267 28.2921 14.8955 27.8531 14.8955 27.3116C14.8955 26.7701 14.4267 26.3311 13.8485 26.3311H3.67937V6.10499C3.67937 4.54093 5.03812 3.2685 6.7081 3.2685H19.4312C21.1013 3.2685 22.4601 4.54093 22.4601 6.10499V76.7074Z" fill="black"/>
<path d="M13.0699 11C10.7391 11 8.84286 12.7758 8.84286 14.9585C8.84286 17.1412 10.7391 18.917 13.0699 18.917C15.4007 18.917 17.2969 17.1412 17.2969 14.9585C17.2971 12.7758 15.4009 11 13.0699 11ZM13.0699 16.9559C11.8939 16.9559 10.937 16.0598 10.937 14.9583C10.937 13.857 11.8939 12.961 13.0699 12.961C14.2461 12.961 15.2029 13.857 15.2029 14.9583C15.2029 16.0598 14.2461 16.9559 13.0699 16.9559Z" fill="black"/>
<path d="M87.1085 77.3043L39.0414 3.84951C38.1268 2.45222 36.3807 1.81204 34.6964 2.25699C33.0119 2.70195 31.8802 4.10199 31.8802 5.74094V79.1957C31.8802 81.1916 33.6143 82.8155 35.7456 82.8155H83.8127C85.2312 82.8155 86.492 82.1236 87.1851 80.9645C87.8784 79.8053 87.8496 78.4371 87.1085 77.3043V77.3043ZM84.14 79.3675C84.0909 79.4495 83.9942 79.5472 83.8127 79.5472H35.7456C35.5387 79.5472 35.3705 79.3896 35.3705 79.1958V5.74094C35.3705 5.66815 35.3705 5.47503 35.6439 5.40273C35.6914 5.39028 35.734 5.38478 35.772 5.38478C35.9527 5.38478 36.0321 5.50609 36.0657 5.55736L84.1326 79.0123C84.2274 79.1572 84.1889 79.2855 84.14 79.3675V79.3675Z" fill="black"/>
<path d="M48.0065 38.9154C47.412 38.0067 46.2764 37.591 45.1811 37.8797C44.0857 38.1691 43.3498 39.0795 43.3498 40.1453V66.7685C43.3498 68.0663 44.4772 69.1223 45.8633 69.1223H63.2849C64.1935 69.1223 65.034 68.661 65.4778 67.9188C65.9219 67.1764 65.9029 66.2643 65.4281 65.5386L48.0065 38.9154ZM46.84 65.8538V43.388L61.541 65.8538H46.84Z" fill="black"/>
<path d="M40.2463 33.14C39.2826 33.14 38.5012 32.4083 38.5012 31.5058V27.4624C38.5012 26.5599 39.2826 25.8281 40.2463 25.8281C41.2101 25.8281 41.9914 26.5599 41.9914 27.4624V31.5058C41.9914 32.4083 41.2101 33.14 40.2463 33.14Z" fill="black"/>
<path d="M40.2463 23.9536C39.2826 23.9536 38.5012 23.2219 38.5012 22.3194V21.603C38.5012 20.7005 39.2826 19.9688 40.2463 19.9688C41.2101 19.9688 41.9914 20.7005 41.9914 21.603V22.3194C41.9914 23.2219 41.2101 23.9536 40.2463 23.9536V23.9536Z" fill="black"/>
<path d="M77.995 15.3982C78.4061 13.7694 77.3295 12.1368 75.5902 11.7518C73.8509 11.3668 72.1076 12.3751 71.6964 14.0039C71.2853 15.6327 72.362 17.2652 74.1013 17.6503C75.8406 18.0353 77.5839 17.027 77.995 15.3982Z" fill="black"/>
<path d="M82.8311 48.4945C82.8311 49.2034 82.2175 49.7781 81.4605 49.7781C80.7035 49.7781 80.0898 49.2034 80.0898 48.4945C80.0898 47.7856 80.7035 47.2109 81.4605 47.2109C82.2175 47.2109 82.8311 47.7856 82.8311 48.4945Z" fill="black"/>
<path d="M53.4206 1.6271L54.5201 4.5223C54.5671 4.64619 54.6603 4.74453 54.7779 4.79419L57.5248 5.95307C57.9129 6.11676 57.9129 6.6958 57.5248 6.85964L54.7779 8.01853C54.6603 8.06819 54.5671 8.16636 54.5201 8.29026L53.4206 11.1856C53.2653 11.5947 52.7159 11.5947 52.5606 11.1856L51.4611 8.29026C51.414 8.16636 51.3209 8.06803 51.2033 8.01853L48.4564 6.85964C48.0683 6.69596 48.0683 6.11692 48.4564 5.95307L51.2033 4.79419C51.3209 4.74453 51.414 4.64635 51.4611 4.5223L52.5606 1.6271C52.7159 1.21805 53.2653 1.21805 53.4206 1.6271V1.6271Z" fill="black"/>
<path d="M82.0498 23.0465L83.5605 26.9496C83.6253 27.1167 83.7533 27.2492 83.9149 27.3162L87.6893 28.8786C88.2225 29.0994 88.2225 29.8799 87.6893 30.1006L83.9149 31.663C83.7533 31.7298 83.6253 31.8623 83.5605 32.0293L82.0498 35.9325C81.8363 36.4839 81.0816 36.4839 80.8681 35.9325L79.3572 32.0293C79.2924 31.8623 79.1644 31.7298 79.0028 31.663L75.2284 30.1006C74.6952 29.8798 74.6952 29.0992 75.2284 28.8786L79.0028 27.3162C79.1644 27.2492 79.2924 27.1169 79.3572 26.9496L80.8681 23.0465C81.0816 22.4949 81.8363 22.4949 82.0498 23.0465Z" fill="black"/>
</svg>
