<svg width="88" height="83" viewBox="0 0 88 83" fill="none" xmlns="http://www.w3.org/2000/svg">
<path d="M62.2715 19.8878L56.9622 16.2969H51.0629L47.8183 18.7829L45.1637 22.3738V27.0697L47.8183 30.9368L51.0629 33.1466L56.0773 33.9753L59.9118 32.5942L62.8615 29.2795L64.3363 24.3074L62.2715 19.8878Z" fill="#008BD2"/>
<path d="M54.7446 14.9922C48.8763 14.9922 44.1021 19.4632 44.1021 24.9586C44.1021 30.454 48.8763 34.9251 54.7446 34.9251C60.6129 34.9251 65.3871 30.4542 65.3871 24.9586C65.3871 19.4631 60.6129 14.9922 54.7446 14.9922V14.9922ZM54.7446 32.9429C50.0435 32.9429 46.2187 29.3611 46.2187 24.9586C46.2187 20.5561 50.0435 16.9743 54.7446 16.9743C59.4457 16.9743 63.2705 20.5561 63.2705 24.9586C63.2705 29.3611 59.4459 32.9429 54.7446 32.9429Z" fill="black"/>
<path d="M57.0896 19.4375H53.042C52.4576 19.4375 51.9836 19.8813 51.9836 20.4285V29.7808C51.9836 30.3281 52.4576 30.7718 53.042 30.7718C53.6265 30.7718 54.1003 30.328 54.1003 29.7808V26.007H56.768C57.3525 26.007 57.8262 25.5632 57.8262 25.016C57.8262 24.4688 57.3523 24.025 56.768 24.025H54.1003V21.4197H57.0896C57.6741 21.4197 58.1478 20.9758 58.1478 20.4287C58.1478 19.8815 57.6739 19.4375 57.0896 19.4375V19.4375Z" fill="black"/>
<path d="M20.4281 48.8647C20.619 48.9994 20.8426 49.0644 21.0646 49.0644C21.3853 49.0644 21.7022 48.9282 21.9104 48.6699L22.6534 47.747L23.457 48.7387C23.6651 48.9955 23.981 49.1307 24.3007 49.1307C24.5237 49.1307 24.7484 49.0649 24.9398 48.9289C25.4053 48.5981 25.4963 47.9762 25.1429 47.5403L23.9776 46.1023L24.9201 44.9317C25.2721 44.4947 25.179 43.8733 24.7123 43.5437C24.2458 43.214 23.5821 43.301 23.2302 43.7384L22.648 44.4615L22.0599 43.736C21.7066 43.3001 21.0428 43.2148 20.5772 43.5458C20.1117 43.8765 20.0207 44.4984 20.3741 44.9343L21.3238 46.1063L20.2205 47.4766C19.8684 47.9138 19.9614 48.5352 20.4281 48.8647V48.8647Z" fill="#008BD2"/>
<path d="M21.9833 61.2559L22.7263 60.333L23.53 61.3246C23.7381 61.5815 24.054 61.7165 24.3737 61.7165C24.5967 61.7165 24.8215 61.6509 25.0127 61.5148C25.4784 61.1841 25.5692 60.5622 25.2159 60.1263L24.0504 58.6882L24.9929 57.5177C25.3447 57.0806 25.2518 56.4592 24.7851 56.1296C24.3186 55.8 23.6549 55.887 23.303 56.3242L22.7208 57.0473L22.1327 56.3218C21.7795 55.8857 21.1154 55.8006 20.65 56.1315C20.1843 56.4623 20.0935 57.084 20.4469 57.5201L21.3966 58.6921L20.2933 60.0624C19.9415 60.4994 20.0344 61.1208 20.5011 61.4503C20.6918 61.585 20.9154 61.6502 21.1375 61.6502C21.4583 61.6504 21.7754 61.5142 21.9833 61.2559V61.2559Z" fill="#008BD2"/>
<path d="M66.7906 8.07031H18.0786C14.6476 8.07031 11.8564 10.6842 11.8564 13.8973V76.9885C11.8564 80.2015 14.6476 82.8154 18.0786 82.8154H66.7906C70.2216 82.8154 73.0128 80.2013 73.0128 76.9885V13.8971C73.0128 10.6842 70.2216 8.07031 66.7906 8.07031V8.07031ZM69.4853 76.9885C69.4853 78.38 68.2765 79.512 66.7908 79.512H18.0786C16.5927 79.512 15.3841 78.38 15.3841 76.9885V13.8971C15.3841 12.5056 16.5927 11.3738 18.0786 11.3738H66.7906C68.2765 11.3738 69.4851 12.5058 69.4851 13.8971V76.9885H69.4853Z" fill="black"/>
<path d="M48.7881 70.4219H22.6817C22.0972 70.4219 21.6233 70.8657 21.6233 71.4129C21.6233 71.9601 22.0972 72.4039 22.6817 72.4039H48.7879C49.3724 72.4039 49.8461 71.9601 49.8461 71.4129C49.8461 70.8657 49.3724 70.4219 48.7881 70.4219Z" fill="black"/>
<path d="M22.6817 20.7867H37.1979C37.7823 20.7867 38.2561 20.3429 38.2561 19.7957C38.2561 19.2485 37.7822 18.8047 37.1979 18.8047H22.6817C22.0972 18.8047 21.6233 19.2485 21.6233 19.7957C21.6233 20.3429 22.0972 20.7867 22.6817 20.7867Z" fill="black"/>
<path d="M22.6817 27.0836H37.1979C37.7823 27.0836 38.2561 26.6397 38.2561 26.0926C38.2561 25.5452 37.7822 25.1016 37.1979 25.1016H22.6817C22.0972 25.1016 21.6233 25.5452 21.6233 26.0926C21.6235 26.6397 22.0972 27.0836 22.6817 27.0836Z" fill="black"/>
<path d="M62.1904 64.125H22.6817C22.0972 64.125 21.6233 64.5688 21.6233 65.116C21.6233 65.6632 22.0972 66.107 22.6817 66.107H62.1904C62.7749 66.107 63.2486 65.6632 63.2486 65.116C63.2486 64.5688 62.7749 64.125 62.1904 64.125Z" fill="black"/>
<path d="M62.1906 57.8281H29.2345C28.6501 57.8281 28.1763 58.2718 28.1763 58.8191C28.1763 59.3665 28.6501 59.8103 29.2345 59.8103H62.1906C62.7751 59.8103 63.2488 59.3665 63.2488 58.8191C63.249 58.2718 62.7751 57.8281 62.1906 57.8281Z" fill="black"/>
<path d="M62.1904 51.5391H22.6817C22.0972 51.5391 21.6233 51.9829 21.6233 52.5301C21.6233 53.0772 22.0972 53.5211 22.6817 53.5211H62.1904C62.7749 53.5211 63.2486 53.0772 63.2486 52.5301C63.2486 51.9829 62.7749 51.5391 62.1904 51.5391Z" fill="black"/>
<path d="M62.1906 45.2422H29.2345C28.6501 45.2422 28.1763 45.686 28.1763 46.2332C28.1763 46.7804 28.6501 47.2242 29.2345 47.2242H62.1906C62.7751 47.2242 63.2488 46.7804 63.2488 46.2332C63.2488 45.686 62.7751 45.2422 62.1906 45.2422Z" fill="black"/>
<path d="M62.1904 38.9531H22.6817C22.0972 38.9531 21.6233 39.3969 21.6233 39.9441C21.6233 40.4913 22.0972 40.9351 22.6817 40.9351H62.1904C62.7749 40.9351 63.2486 40.4913 63.2486 39.9441C63.2486 39.3969 62.7749 38.9531 62.1904 38.9531Z" fill="black"/>
<path d="M4.19077 11.5781C2.384 11.5781 0.919373 12.9497 0.919373 14.6417C0.919373 16.3335 2.384 17.7051 4.19077 17.7051C5.99754 17.7051 7.46216 16.3335 7.46216 14.6417C7.46199 12.9497 5.99736 11.5781 4.19077 11.5781V11.5781Z" fill="#008BD2"/>
<path d="M14.0697 6.43843C14.8348 6.43843 15.4551 5.85761 15.4551 5.14109C15.4551 4.42457 14.8348 3.84375 14.0697 3.84375C13.3046 3.84375 12.6844 4.42457 12.6844 5.14109C12.6844 5.85761 13.3046 6.43843 14.0697 6.43843Z" fill="black"/>
<path d="M86.7401 4.68246L83.9637 3.51112C83.8449 3.46098 83.7506 3.36167 83.7031 3.23648L82.5918 0.310061C82.4348 -0.103354 81.8795 -0.103354 81.7225 0.310061L80.6113 3.23631C80.5638 3.3615 80.4695 3.46081 80.3507 3.51095L77.5743 4.6823C77.182 4.84776 77.182 5.43295 77.5743 5.59857L80.3507 6.76991C80.4695 6.82005 80.5638 6.91936 80.6113 7.04455L81.7227 9.97097C81.8797 10.3844 82.435 10.3844 82.592 9.97097L83.7032 7.04455C83.7507 6.9192 83.845 6.82005 83.9639 6.76991L86.7403 5.59857C87.1323 5.43311 87.1323 4.84792 86.7401 4.68246V4.68246Z" fill="black"/>
</svg>
