<svg width="89" height="83" viewBox="0 0 89 83" fill="none" xmlns="http://www.w3.org/2000/svg">
<path fill-rule="evenodd" clip-rule="evenodd" d="M4.61251 79.557L2.25281 76.2423V25.9693L4.61251 21.2734H82.4828L86.6123 24.8644V76.2423L82.4828 80.6619L4.61251 79.557ZM8.742 66.8506V28.1791L11.1017 26.7979H78.3534L80.4181 29.284V72.0989L78.3534 74.0325H13.7564H9.92185L8.742 72.0989V66.8506Z" fill="#008BD2"/>
<path d="M80.4421 19.3672H8.3664C3.8575 19.3672 0.189209 22.8024 0.189209 27.0249V74.4766C0.189209 78.699 3.8575 82.1343 8.3664 82.1343H80.4421C84.951 82.1343 88.6193 78.699 88.6193 74.4766V27.0249C88.6193 22.8024 84.951 19.3672 80.4421 19.3672V19.3672ZM85.1662 74.4766C85.1662 76.916 83.047 78.9005 80.4421 78.9005H8.3664C5.76151 78.9005 3.6423 76.916 3.6423 74.4766V27.0249C3.6423 24.5855 5.76151 22.6011 8.3664 22.6011H80.4421C83.047 22.6011 85.1662 24.5855 85.1662 27.0249V74.4766Z" fill="black"/>
<path d="M78.0077 26.1641H10.7996C8.93605 26.1641 7.41962 27.584 7.41962 29.3294V72.1748C7.41962 73.9201 8.93588 75.3401 10.7996 75.3401H78.0077C79.8715 75.3401 81.3879 73.9201 81.3879 72.1748V29.3294C81.3879 27.5842 79.8715 26.1641 78.0077 26.1641ZM79.316 72.1749C79.316 72.8503 78.7291 73.4 78.0077 73.4H10.7996C10.0784 73.4 9.49151 72.8505 9.49151 72.1749V29.3294C9.49151 28.6539 10.0782 28.1043 10.7996 28.1043H78.0077C78.729 28.1043 79.316 28.6539 79.316 29.3294V72.1749Z" fill="black"/>
<path d="M18.6496 37.354C18.3431 37.1052 17.9099 37.0473 17.541 37.2048C17.172 37.3627 16.9354 37.7075 16.9354 38.0873V63.0179C16.9354 63.5536 17.3993 63.988 17.9714 63.988H48.7113C49.1438 63.988 49.5309 63.7363 49.682 63.3567C49.8331 62.9771 49.7164 62.5496 49.3894 62.2844L18.6496 37.354ZM19.0075 57.4193H23.9499V62.0477H19.0075V57.4193ZM26.0218 62.0477V56.4492C26.0218 55.9135 25.5579 55.479 24.9858 55.479H19.0075V40.2108L45.9329 62.0476L26.0218 62.0477Z" fill="black"/>
<path d="M70.1781 63.5411C70.4712 63.1348 70.3645 62.5435 69.9477 62.2478L66.8879 60.0103C66.437 59.6805 65.7862 59.7555 65.4338 60.1778C65.0818 60.6001 65.1618 61.2097 65.6129 61.5395L66.3004 62.0422H54.4281C53.8561 62.0422 53.3922 62.4767 53.3922 63.0124C53.3922 63.5481 53.8561 63.9825 54.4281 63.9825H66.3004L65.6129 64.4852C65.162 64.815 65.0818 65.4246 65.4338 65.8469C65.6382 66.0919 65.943 66.22 66.2511 66.22C66.4741 66.22 66.6988 66.1529 66.8879 66.0145L69.9477 63.7771C70.0372 63.71 70.116 63.6315 70.1781 63.5411V63.5411Z" fill="black"/>
<path d="M70.8376 35.2734H47.5238C46.9518 35.2734 46.4879 35.7079 46.4879 36.2436V47.8392L44.7512 43.6089C44.546 43.1087 43.9465 42.8595 43.4125 43.0515C42.8785 43.2438 42.6122 43.8051 42.8173 44.3052L46.557 53.414C46.7129 53.794 47.1015 54.0361 47.5235 54.0361C47.586 54.0361 47.6496 54.0308 47.7129 54.0198C48.2038 53.9344 48.5599 53.5334 48.5599 53.0658V37.2137H70.8377C71.4098 37.2137 71.8737 36.7793 71.8737 36.2436C71.8735 35.7079 71.4096 35.2734 70.8376 35.2734V35.2734Z" fill="black"/>
<path d="M53.627 52.0978C53.8139 52.2298 54.0327 52.2935 54.2498 52.2935C54.564 52.2935 54.8742 52.1603 55.0778 51.9075L57.1167 49.3754L59.2679 52.0297C59.4715 52.2813 59.781 52.4136 60.094 52.4136C60.3121 52.4136 60.5321 52.3492 60.7194 52.2161C61.1752 51.8923 61.2643 51.2836 60.9183 50.8568L58.4131 47.7654L60.5142 45.1558C60.8586 44.728 60.7674 44.1197 60.3107 43.7972C59.8537 43.4745 59.2043 43.5599 58.8597 43.9877L57.1113 46.1591L55.3496 43.9853C55.004 43.5586 54.3538 43.4752 53.8982 43.7991C53.4424 44.1229 53.3532 44.7316 53.6992 45.1584L55.8149 47.7691L53.4234 50.7394C53.0791 51.167 53.1703 51.7753 53.627 52.0978Z" fill="black"/>
<path d="M68.0154 42.4978C68.0005 41.3921 67.0546 40.4922 65.8739 40.4922C64.8528 40.4922 63.969 41.1726 63.7723 42.1101C63.6621 42.6359 64.0277 43.1457 64.5892 43.2491C65.15 43.3524 65.6949 43.0099 65.8055 42.4841C65.8096 42.4642 65.8319 42.4325 65.8739 42.4325C65.9029 42.4325 65.9278 42.4491 65.9383 42.4727C65.9089 42.564 65.8354 42.7288 65.65 42.9764C64.9721 43.8835 64.5682 44.3789 64.3512 44.6449C64.0607 45.0011 63.7864 45.3375 63.9524 45.8433C64.0524 46.148 64.3067 46.3906 64.6331 46.4927C64.7692 46.5352 64.8474 46.5596 65.7478 46.5596C66.0894 46.5596 66.5494 46.5563 67.1756 46.5488C67.7477 46.542 68.2057 46.1022 68.1986 45.5665C68.1914 45.0351 67.729 44.6087 67.163 44.6087C67.1585 44.6087 67.154 44.6087 67.1497 44.6089C67.0851 44.6097 67.0197 44.6103 66.9539 44.611C67.0739 44.4536 67.205 44.2802 67.3477 44.0895C67.668 43.6601 67.871 43.2625 67.9674 42.8737C67.9674 42.8737 68.0181 42.7037 68.0154 42.4978V42.4978Z" fill="black"/>
<path d="M26.87 34.2809C25.4506 34.2809 24.0419 34.2781 22.6837 34.273C21.7301 34.2692 20.9603 33.5422 20.9643 32.6492C20.9683 31.7585 21.7407 31.0391 22.6908 31.0391H22.6982C25.4053 31.0497 28.313 31.0497 31.107 31.0391C32.0547 31.0371 32.8367 31.7564 32.8407 32.6494C32.8447 33.5424 32.0747 34.2692 31.1212 34.2728C29.7196 34.2781 28.2893 34.2809 26.87 34.2809V34.2809Z" fill="black"/>
<path d="M16.1318 34.2729H14.3284C13.3749 34.2729 12.6018 33.549 12.6018 32.656C12.6018 31.763 13.3749 31.0391 14.3284 31.0391H16.1318C17.0853 31.0391 17.8584 31.763 17.8584 32.656C17.8584 33.5491 17.0853 34.2729 16.1318 34.2729V34.2729Z" fill="black"/>
<path d="M56.6636 5.97724C57.0703 4.36581 56.0051 2.75072 54.2844 2.36982C52.5637 1.98892 50.839 2.98646 50.4322 4.59788C50.0254 6.20931 51.0906 7.8244 52.8114 8.2053C54.5321 8.5862 56.2568 7.58866 56.6636 5.97724Z" fill="black"/>
<path d="M35.1338 13.77C35.2537 13.0778 34.7516 12.4256 34.0123 12.3134C33.2731 12.2012 32.5766 12.6714 32.4568 13.3637C32.3369 14.056 32.839 14.7082 33.5783 14.8204C34.3175 14.9326 35.014 14.4623 35.1338 13.77Z" fill="black"/>
<path d="M78.9722 7.6082L80.0601 10.4728C80.1068 10.5954 80.1988 10.6926 80.3152 10.7418L83.0329 11.8884C83.4169 12.0505 83.4169 12.6234 83.0329 12.7853L80.3152 13.9319C80.1988 13.9809 80.1066 14.0781 80.0601 14.2008L78.9722 17.0655C78.8185 17.4701 78.275 17.4701 78.1212 17.0655L77.0333 14.2008C76.9867 14.0782 76.8946 13.981 76.7782 13.9319L74.0605 12.7853C73.6766 12.6232 73.6766 12.0505 74.0605 11.8884L76.7782 10.7418C76.8946 10.6926 76.9869 10.5956 77.0333 10.4728L78.1212 7.6082C78.275 7.20352 78.8185 7.20352 78.9722 7.6082V7.6082Z" fill="black"/>
<path d="M8.35104 0.409169L9.84589 4.27094C9.90997 4.43624 10.0366 4.56726 10.1965 4.63357L13.9309 6.17935C14.4586 6.3977 14.4586 7.17002 13.9309 7.38838L10.1963 8.93415C10.0364 9.00031 9.90979 9.13132 9.84572 9.29662L8.35087 13.1584C8.13964 13.704 7.39282 13.704 7.18159 13.1584L5.68674 9.29662C5.62266 9.13132 5.49606 9.00031 5.33613 8.93415L1.60203 7.38838C1.07439 7.17002 1.07439 6.3977 1.60203 6.17935L5.33647 4.63357C5.49641 4.56742 5.62301 4.43641 5.68709 4.27094L7.18193 0.409169C7.39299 -0.13639 8.13981 -0.13639 8.35104 0.409169V0.409169Z" fill="black"/>
</svg>
