<svg width="89" height="84" viewBox="0 0 89 84" fill="none" xmlns="http://www.w3.org/2000/svg">
<rect x="25.3014" y="33.6953" width="4.12949" height="3.86715" fill="#008BD2"/>
<rect x="25.3014" y="40.3281" width="4.12949" height="3.86715" fill="#008BD2"/>
<rect x="25.3014" y="56.3516" width="4.12949" height="3.86715" fill="#008BD2"/>
<rect x="25.3014" y="62.9766" width="4.12949" height="3.86715" fill="#008BD2"/>
<rect x="25.3014" y="69.6094" width="4.12949" height="3.86715" fill="#008BD2"/>
<path d="M68.9645 9.01562H20.6743C17.2832 9.01562 14.5242 11.5993 14.5242 14.7751V77.32C14.5242 80.4958 17.2832 83.0795 20.6743 83.0795H68.9645C72.3556 83.0795 75.1145 80.4958 75.1145 77.32V14.7751C75.1145 11.5993 72.3556 9.01562 68.9645 9.01562ZM71.6538 77.32C71.6538 78.7089 70.4474 79.8387 68.9645 79.8387H20.6743C19.1913 79.8387 17.9849 78.7089 17.9849 77.32V14.7751C17.9849 13.3862 19.1913 12.2565 20.6743 12.2565H68.9645C70.4474 12.2565 71.6538 13.3862 71.6538 14.7751V77.32Z" fill="black"/>
<path d="M59.0862 21.0753C59.5315 21.0781 59.9799 21.0794 60.4303 21.0794C61.3673 21.0794 62.3126 21.0734 63.2539 21.0614C63.8271 21.0543 64.2857 20.6131 64.2779 20.0762C64.2703 19.5393 63.8074 19.1102 63.2259 19.1173C61.8461 19.1347 60.4578 19.1389 59.1002 19.1307C59.0978 19.1307 59.0956 19.1307 59.0932 19.1307C58.523 19.1307 58.0589 19.5617 58.0551 20.0965C58.0513 20.6336 58.513 21.0716 59.0862 21.0753Z" fill="black"/>
<path d="M38.3807 21.0835C39.6434 21.0847 40.8462 21.0853 41.9994 21.0853C45.4178 21.0853 48.3974 21.0802 51.1882 21.0695C51.7616 21.0672 52.2245 20.6302 52.2222 20.0934C52.2198 19.5577 51.7555 19.125 51.1842 19.125C51.1826 19.125 51.1811 19.125 51.1799 19.125C47.4515 19.1392 43.3856 19.1434 38.3829 19.1391C38.3826 19.1391 38.3822 19.1391 38.3819 19.1391C37.809 19.1391 37.3442 19.5738 37.3437 20.1103C37.343 20.6473 37.8074 21.0831 38.3807 21.0835Z" fill="black"/>
<path d="M26.3212 21.0617C28.8432 21.0686 31.3653 21.0735 33.8872 21.0765H33.8885C34.4614 21.0765 34.926 20.6419 34.9267 20.1056C34.9274 19.5686 34.4632 19.1327 33.8899 19.1321C31.369 19.129 28.8482 19.1241 26.3273 19.1172C26.3262 19.1172 26.3252 19.1172 26.3241 19.1172C25.7521 19.1172 25.2877 19.5507 25.286 20.0865C25.2844 20.6235 25.7478 21.06 26.3212 21.0617Z" fill="black"/>
<path d="M63.2343 34.6719H35.2189C34.6455 34.6719 34.1807 35.1071 34.1807 35.6441C34.1807 36.1811 34.6455 36.6163 35.2189 36.6163H63.2343C63.8076 36.6163 64.2725 36.1811 64.2725 35.6441C64.2725 35.1073 63.8077 34.6719 63.2343 34.6719Z" fill="black"/>
<path d="M63.2335 27.3984H25.0281C24.4547 27.3984 23.9899 27.8337 23.9899 28.3707C23.9899 28.9075 24.4547 29.3429 25.0281 29.3429H63.2335C63.8068 29.3429 64.2717 28.9075 64.2717 28.3707C64.2717 27.8338 63.8069 27.3984 63.2335 27.3984Z" fill="black"/>
<path d="M26.3487 38.7874H28.3455C29.6458 38.7874 30.7041 37.7966 30.7041 36.5787V34.7088C30.7041 33.491 29.646 32.5 28.3455 32.5H26.3487C25.0482 32.5 23.9899 33.4908 23.9899 34.7088V36.5787C23.9901 37.7966 25.0482 38.7874 26.3487 38.7874ZM26.0665 34.7088C26.0665 34.563 26.1933 34.4445 26.3489 34.4445H28.3456C28.5012 34.4445 28.6278 34.563 28.6278 34.7088V36.5787C28.6278 36.7244 28.5012 36.843 28.3456 36.843H26.3487C26.1931 36.843 26.0663 36.7244 26.0663 36.5787V34.7088H26.0665Z" fill="black"/>
<path d="M63.2343 41.4844H35.2189C34.6455 41.4844 34.1807 41.9196 34.1807 42.4566C34.1807 42.9936 34.6455 43.4288 35.2189 43.4288H63.2343C63.8076 43.4288 64.2725 42.9936 64.2725 42.4566C64.2725 41.9196 63.8077 41.4844 63.2343 41.4844Z" fill="black"/>
<path d="M26.3487 45.5999H28.3455C29.6458 45.5999 30.7041 44.6091 30.7041 43.3912V41.5213C30.7041 40.3035 29.646 39.3125 28.3455 39.3125H26.3487C25.0482 39.3125 23.9899 40.3033 23.9899 41.5213V43.3912C23.9901 44.6089 25.0482 45.5999 26.3487 45.5999ZM26.0665 41.5213C26.0665 41.3755 26.1933 41.257 26.3489 41.257H28.3456C28.5012 41.257 28.6278 41.3755 28.6278 41.5213V43.3912C28.6278 43.5369 28.5012 43.6555 28.3456 43.6555H26.3487C26.1931 43.6555 26.0663 43.5369 26.0663 43.3912V41.5213H26.0665Z" fill="black"/>
<path d="M63.2343 57.1094H35.2189C34.6455 57.1094 34.1807 57.5446 34.1807 58.0816C34.1807 58.6186 34.6455 59.0538 35.2189 59.0538H63.2343C63.8076 59.0538 64.2725 58.6186 64.2725 58.0816C64.2725 57.5446 63.8077 57.1094 63.2343 57.1094Z" fill="black"/>
<path d="M63.2335 49.8438H25.0281C24.4547 49.8438 23.9899 50.279 23.9899 50.816C23.9899 51.353 24.4547 51.7882 25.0281 51.7882H63.2335C63.8068 51.7882 64.2717 51.353 64.2717 50.816C64.2717 50.279 63.8069 49.8438 63.2335 49.8438Z" fill="black"/>
<path d="M28.3456 54.9453H26.3487C25.0482 54.9453 23.9899 55.9362 23.9899 57.1541V59.024C23.9899 60.2417 25.048 61.2327 26.3487 61.2327H28.3455C29.6458 61.2327 30.7041 60.2419 30.7041 59.024V57.1541C30.7041 55.9362 29.646 54.9453 28.3456 54.9453ZM28.6277 59.024C28.6277 59.1697 28.5011 59.2883 28.3455 59.2883H26.3487C26.1931 59.2883 26.0663 59.1697 26.0663 59.024V57.1541C26.0663 57.0083 26.1931 56.8898 26.3487 56.8898H28.3455C28.5011 56.8898 28.6277 57.0083 28.6277 57.1541V59.024Z" fill="black"/>
<path d="M63.2343 63.9297H35.2189C34.6455 63.9297 34.1807 64.3649 34.1807 64.9019C34.1807 65.4387 34.6455 65.8742 35.2189 65.8742H63.2343C63.8076 65.8742 64.2725 65.4389 64.2725 64.9019C64.2725 64.3651 63.8077 63.9297 63.2343 63.9297Z" fill="black"/>
<path d="M28.3456 61.7578H26.3487C25.0482 61.7578 23.9899 62.7486 23.9899 63.9666V65.8365C23.9899 67.0542 25.048 68.0452 26.3487 68.0452H28.3455C29.6458 68.0452 30.7041 67.0544 30.7041 65.8365V63.9666C30.7041 62.7488 29.646 61.7578 28.3456 61.7578ZM28.6277 65.8365C28.6277 65.9822 28.5011 66.1008 28.3455 66.1008H26.3487C26.1931 66.1008 26.0663 65.9822 26.0663 65.8365V63.9666C26.0663 63.8208 26.1931 63.7023 26.3487 63.7023H28.3455C28.5011 63.7023 28.6277 63.8208 28.6277 63.9666V65.8365Z" fill="black"/>
<path d="M63.2343 70.7422H35.2189C34.6455 70.7422 34.1807 71.1774 34.1807 71.7144C34.1807 72.2514 34.6455 72.6867 35.2189 72.6867H63.2343C63.8076 72.6867 64.2725 72.2514 64.2725 71.7144C64.2725 71.1776 63.8077 70.7422 63.2343 70.7422Z" fill="black"/>
<path d="M28.3456 68.5703H26.3487C25.0482 68.5703 23.9899 69.5612 23.9899 70.7791V72.649C23.9899 73.8667 25.048 74.8577 26.3487 74.8577H28.3455C29.6458 74.8577 30.7041 73.8669 30.7041 72.649V70.7791C30.7041 69.5613 29.646 68.5703 28.3456 68.5703ZM28.6277 72.649C28.6277 72.7947 28.5011 72.9133 28.3455 72.9133H26.3487C26.1931 72.9133 26.0663 72.7947 26.0663 72.649V70.7791C26.0663 70.6333 26.1931 70.5148 26.3487 70.5148H28.3455C28.5011 70.5148 28.6277 70.6333 28.6277 70.7791V72.649Z" fill="black"/>
<path d="M16.7769 2.84115C17.4704 2.57192 17.7996 1.82714 17.5122 1.17764C17.2247 0.528137 16.4294 0.219861 15.7358 0.489086C15.0423 0.758312 14.7131 1.50309 15.0006 2.15259C15.288 2.8021 16.0833 3.11037 16.7769 2.84115Z" fill="black"/>
<path d="M5.73339 6.67924L6.82357 9.55001C6.8702 9.67294 6.96261 9.77031 7.07919 9.81948L9.80273 10.9687C10.1875 11.1311 10.1875 11.7051 9.80273 11.8675L7.07919 13.0165C6.96261 13.0657 6.8702 13.163 6.82357 13.286L5.73339 16.1567C5.57933 16.5622 5.03476 16.5622 4.8807 16.1567L3.79035 13.286C3.74372 13.163 3.65131 13.0657 3.53473 13.0165L0.81119 11.8673C0.426381 11.7049 0.426381 11.1309 0.81119 10.9685L3.53473 9.81948C3.65131 9.77031 3.74372 9.67294 3.79035 9.55001L4.88053 6.67924C5.03459 6.27359 5.57933 6.27359 5.73339 6.67924Z" fill="black"/>
<path d="M82.9661 0.808456L84.4641 4.67848C84.5282 4.8441 84.6553 4.97544 84.8154 5.04175L88.5578 6.59093C89.0865 6.80977 89.0865 7.5837 88.5578 7.80254L84.8154 9.35172C84.6551 9.41803 84.5282 9.54937 84.4641 9.71499L82.9661 13.585C82.7546 14.1319 82.006 14.1319 81.7944 13.585L80.2965 9.71499C80.2324 9.54937 80.1053 9.41803 79.9452 9.35172L76.2028 7.80254C75.6741 7.5837 75.6741 6.80977 76.2028 6.59093L79.9452 5.04175C80.1055 4.97544 80.2324 4.8441 80.2965 4.67848L81.7944 0.808456C82.006 0.261765 82.7546 0.261765 82.9661 0.808456Z" fill="#008BD2"/>
</svg>
