<svg width="89" height="83" viewBox="0 0 89 83" fill="none" xmlns="http://www.w3.org/2000/svg">
<path d="M16.7491 51.377V33.6986L19.9937 32.3175L20.8786 30.9364L22.3534 28.7266H66.8929L67.4828 30.1077L69.5476 32.3175L72.4972 33.6986V42.5378L67.4828 44.1952L62.7634 43.0903L59.2239 46.9574L54.7994 48.0623L55.9793 52.4819L54.7994 53.5868L51.8498 56.6253H22.3534L20.8786 54.968L19.9937 53.5868L18.224 52.4819L16.7491 51.377Z" fill="#008BD2"/>
<path d="M82.039 13.3281H7.09711C3.47165 13.3281 0.522026 16.0904 0.522026 19.4855V65.924C0.522026 69.3192 3.47165 72.0814 7.09711 72.0814H56.0255V78.0662C56.0255 79.6317 56.8487 81.0949 58.2277 81.9801C59.0836 82.5295 60.0836 82.8116 61.0925 82.8116C61.7087 82.8116 62.3284 82.7063 62.9198 82.4922L67.9534 80.6696L72.9868 82.4922C74.5459 83.0565 76.3 82.8655 77.679 81.9802C79.0578 81.095 79.8811 79.6321 79.8811 78.0664V72.0814H82.0395C85.665 72.0814 88.6146 69.3192 88.6146 65.924V19.4855C88.6141 16.0904 85.6645 13.3281 82.039 13.3281V13.3281ZM81.5089 64.4355C81.7193 63.6593 81.5544 62.7985 81.4027 62.0139C81.2848 61.4038 81.1509 60.7125 81.2782 60.3455C81.3936 60.0125 81.9183 59.546 82.3812 59.1345C83.2413 58.3698 84.2161 57.5032 84.2161 56.2909C84.2161 55.0787 83.2413 54.212 82.3813 53.4473C81.9184 53.0359 81.3937 52.5694 81.2784 52.2362C81.1511 51.8692 81.2849 51.1779 81.4029 50.5678C81.61 49.4968 81.8449 48.2826 81.1103 47.3373C80.9302 47.1055 80.716 46.9212 80.4787 46.7716V22.8532C80.4787 22.738 80.4616 22.6267 80.4324 22.5198L84.867 18.2527C85.0544 18.628 85.162 19.0448 85.162 19.4855V65.924C85.162 66.3203 85.0765 66.6981 84.9233 67.0433L81.5089 64.4355ZM58.2841 64.5864C57.5741 64.4971 56.6905 64.386 56.4705 64.103C56.257 63.8283 56.4147 63.0139 56.5413 62.3595C56.7107 61.4837 56.886 60.5779 56.5977 59.7464C56.3198 58.945 55.624 58.3261 54.9509 57.7279C54.4208 57.2565 53.7611 56.6701 53.7611 56.2909C53.7611 55.9116 54.4207 55.3252 54.9509 54.8538C55.624 54.2554 56.3198 53.6367 56.5977 52.8351C56.886 52.0038 56.7109 51.0978 56.5414 50.222C56.4148 49.5676 56.2573 48.7531 56.4706 48.4786C56.6907 48.1955 57.5743 48.0846 58.2843 47.9953C59.2216 47.8774 60.1909 47.7556 60.9382 47.2461C61.6769 46.7426 62.0953 45.9229 62.4999 45.13C62.8117 44.5193 63.1996 43.7592 63.5663 43.6478C63.8951 43.5487 64.6948 43.9511 65.2787 44.2453C66.1257 44.6721 67.0016 45.1134 67.9531 45.1134C68.9045 45.1134 69.7804 44.6721 70.6274 44.2453C71.2115 43.9509 72.0115 43.5477 72.3398 43.6478C72.7065 43.7594 73.0944 44.5194 73.4062 45.13C73.8109 45.9229 74.2292 46.7428 74.9681 47.2463C75.7154 47.7556 76.6847 47.8774 77.622 47.9953C78.332 48.0846 79.2158 48.1957 79.4357 48.4787C79.6491 48.7534 79.4915 49.5678 79.3649 50.2222C79.1954 51.098 79.0203 52.0039 79.3086 52.8353C79.5865 53.6369 80.2823 54.2556 80.9554 54.854C81.4855 55.3253 82.145 55.9118 82.145 56.2909C82.145 56.6701 81.4855 57.2565 80.9552 57.7279C80.2821 58.3261 79.5863 58.945 79.3084 59.7466C79.0201 60.5779 79.1953 61.4838 79.3647 62.3597C79.4913 63.0141 79.6488 63.8286 79.4353 64.1033C79.2155 64.3863 78.3318 64.4974 77.6218 64.5867C76.6845 64.7046 75.7154 64.8264 74.9679 65.3358C74.2292 65.8393 73.8107 66.6591 73.406 67.452C73.0943 68.0626 72.7065 68.8226 72.3398 68.9342C72.0112 69.0345 71.2113 68.6309 70.6272 68.3367C69.7802 67.9101 68.9045 67.4687 67.9531 67.4687C67.0016 67.4687 66.1259 67.9099 65.2789 68.3367C64.6948 68.6311 63.8944 69.0345 63.5663 68.9342C63.1996 68.8226 62.8117 68.0626 62.4999 67.452C62.0953 66.6591 61.6769 65.8393 60.9381 65.3358C60.1907 64.8261 59.2216 64.7043 58.2841 64.5864V64.5864ZM4.18617 66.9755C4.05111 66.6486 3.97391 66.2949 3.97391 65.9239V19.4855C3.97391 19.1132 4.05146 18.7582 4.18756 18.4301L8.69663 22.546C8.67193 22.6448 8.65759 22.7474 8.65759 22.8532V62.1916L4.18617 66.9755ZM10.7288 23.4424H78.4073V46.1399C78.2356 46.1157 78.0648 46.0938 77.8973 46.0728C77.2472 45.991 76.5102 45.8985 76.1866 45.6778C75.8717 45.4632 75.5546 44.8418 75.2748 44.2935C74.8665 43.4932 74.4135 42.6078 73.621 42.1001V33.4829C73.621 32.9474 73.1573 32.5131 72.5854 32.5131C70.378 32.5131 68.5821 30.8313 68.5821 28.7642C68.5821 28.2287 68.1183 27.7944 67.5465 27.7944H21.5895C21.0176 27.7944 20.5539 28.2287 20.5539 28.7642C20.5539 30.8315 18.758 32.5131 16.5507 32.5131C15.9788 32.5131 15.5151 32.9474 15.5151 33.4829V51.9266C15.5151 52.4622 15.9788 52.8964 16.5507 52.8964C18.7581 52.8964 20.5539 54.5782 20.5539 56.6455C20.5539 57.181 21.0176 57.6153 21.5895 57.6153H52.1025C52.4661 58.1911 53.0148 58.681 53.5246 59.1345C53.9875 59.546 54.512 60.0125 54.6276 60.3455C54.7516 60.7033 54.6276 61.3689 54.512 61.9673H10.7288V23.4424ZM54.5032 50.5677C54.6212 51.1776 54.7549 51.869 54.6278 52.2362C54.5124 52.5692 53.9877 53.0357 53.5246 53.4472C52.8175 54.0759 52.0343 54.7738 51.7774 55.6757H22.5368C22.1021 53.3145 20.1074 51.4469 17.5863 51.0395V34.3701C20.1074 33.9628 22.1019 32.0948 22.5368 29.734H66.5992C67.034 32.095 69.0284 33.963 71.5498 34.3701V41.7708C70.884 41.9146 70.2415 42.2368 69.6458 42.537C69.0538 42.8354 68.3826 43.1734 67.9531 43.1734C67.5235 43.1734 66.8524 42.8352 66.2603 42.537C65.2463 42.026 64.0969 41.447 62.9267 41.8028C61.7143 42.1714 61.1389 43.2988 60.6313 44.2935C60.3515 44.8416 60.0344 45.4632 59.7196 45.6777C59.3959 45.8983 58.6589 45.991 58.0088 46.0727C56.8503 46.2184 55.5373 46.3834 54.796 47.337C54.0612 48.2826 54.2961 49.4964 54.5032 50.5677V50.5677ZM82.039 16.5609C82.5345 16.5609 83.0017 16.6723 83.4183 16.8656L78.599 21.5026H10.5208L5.53871 16.9547C5.99795 16.7056 6.52923 16.5607 7.09711 16.5607H82.039V16.5609ZM7.09711 68.8487C6.53406 68.8487 6.00676 68.7063 5.55028 68.4613L9.83015 63.8823C9.91755 63.898 10.0075 63.9069 10.0999 63.9069H54.3074C54.3438 64.3807 54.4797 64.8376 54.7962 65.2445C55.1179 65.6586 55.5476 65.9237 56.0255 66.1034V68.8488H7.09711V68.8487ZM75.7268 79.3134C75.2805 79.5997 74.7354 79.6591 74.2314 79.4766H74.2313L68.5754 77.429C68.1748 77.2839 67.7311 77.2839 67.3306 77.429L61.6745 79.4768C61.17 79.6594 60.6251 79.5999 60.1792 79.3136C59.7332 79.0273 59.4774 78.5726 59.4774 78.0662V66.7877C59.5707 66.8225 59.655 66.86 59.7194 66.904C60.0343 67.1185 60.3515 67.7399 60.6313 68.2882C61.1389 69.2829 61.7143 70.4103 62.9267 70.7789C64.0972 71.1344 65.2463 70.5555 66.2603 70.0447C66.8524 69.7463 67.5235 69.4083 67.9531 69.4083C68.3826 69.4083 69.0536 69.7463 69.6457 70.0447C70.4415 70.4459 71.3208 70.8889 72.2281 70.8889C72.4768 70.8889 72.7276 70.8556 72.9794 70.7791C74.1917 70.4104 74.7672 69.2831 75.2748 68.2884C75.5546 67.7402 75.8717 67.1187 76.1866 66.9042C76.251 66.8603 76.3354 66.8227 76.4285 66.7879V78.0662C76.4285 78.5725 76.1727 79.0273 75.7268 79.3134V79.3134ZM79.8806 68.8487V66.1034C79.9973 66.0594 80.1106 66.0096 80.2207 65.9546L83.5382 68.4885C83.0929 68.7178 82.582 68.8488 82.0388 68.8488H79.8806V68.8487Z" fill="black"/>
<path d="M67.954 64.9552C73.0537 64.9552 77.2027 61.0698 77.2027 56.294C77.2027 51.5182 73.0537 47.6328 67.954 47.6328C62.8542 47.6328 58.7052 51.5182 58.7052 56.294C58.7051 61.0698 62.854 64.9552 67.954 64.9552ZM67.954 49.5724C71.9116 49.5724 75.1315 52.5876 75.1315 56.294C75.1315 60.0002 71.9117 63.0154 67.954 63.0154C63.9962 63.0154 60.7764 60.0002 60.7764 56.294C60.7764 52.5876 63.9962 49.5724 67.954 49.5724Z" fill="black"/>
<path d="M59.7588 37.9993C59.7588 37.1066 58.986 36.3828 58.0328 36.3828H31.1085C30.1552 36.3828 29.3825 37.1065 29.3825 37.9993C29.3825 38.8919 30.1552 39.6156 31.1085 39.6156H58.0326C58.986 39.6157 59.7588 38.8921 59.7588 37.9993Z" fill="black"/>
<path d="M40.0164 47.8047H31.1085C30.1552 47.8047 29.3825 48.5283 29.3825 49.4211C29.3825 50.3138 30.1552 51.0374 31.1085 51.0374H40.0164C40.9696 51.0374 41.7425 50.3138 41.7425 49.4211C41.7425 48.5283 40.9698 47.8047 40.0164 47.8047V47.8047Z" fill="black"/>
<path d="M66.7352 54.53C66.1281 54.53 65.5393 54.2294 65.2241 53.6972C64.7858 52.9567 65.0338 52.034 65.7715 51.5712C65.8934 51.4831 66.0293 51.409 66.1779 51.3524C66.3331 51.2932 66.4927 51.2565 66.6521 51.2406C67.5147 51.1065 68.3682 51.601 68.6038 52.4079C68.8468 53.2406 68.3537 54.098 67.4895 54.3664C67.2473 54.4771 66.9896 54.53 66.7352 54.53V54.53Z" fill="black"/>
<path d="M64.8672 60.0235C64.335 60.0235 63.8102 59.7939 63.4722 59.3609C62.8115 58.5145 62.5295 57.7413 62.4982 56.6924C62.4716 55.8001 63.2224 55.0566 64.1755 55.0317C65.1311 55.0119 65.9225 55.71 65.9489 56.6023C65.9606 56.9988 66.01 57.134 66.2593 57.4533C66.8218 58.174 66.6537 59.1852 65.8841 59.7122C65.5772 59.9223 65.2206 60.0235 64.8672 60.0235V60.0235Z" fill="black"/>
<path d="M53.8989 6.76353C53.8989 8.41913 52.4657 9.76144 50.6976 9.76144C48.9295 9.76144 47.4963 8.41929 47.4963 6.76353C47.4963 5.10777 48.9295 3.76562 50.6976 3.76562C52.4657 3.76562 53.8989 5.10793 53.8989 6.76353V6.76353Z" fill="black"/>
<path d="M80.7999 8.02733C80.7999 8.72849 80.1929 9.29685 79.4442 9.29685C78.6955 9.29685 78.0886 8.72849 78.0886 8.02733C78.0886 7.32618 78.6955 6.75781 79.4442 6.75781C80.1929 6.75765 80.7999 7.32602 80.7999 8.02733Z" fill="black"/>
<path d="M5.75447 0.303389L6.84206 3.16705C6.88852 3.28965 6.98075 3.38686 7.09716 3.43586L9.81397 4.58214C10.1977 4.74404 10.1977 5.31677 9.81397 5.47868L7.09716 6.62495C6.98075 6.67396 6.88869 6.77117 6.84206 6.89377L5.75447 9.75743C5.60076 10.1619 5.0574 10.1619 4.90385 9.75743L3.81627 6.89377C3.76981 6.77117 3.67758 6.67396 3.56117 6.62495L0.844359 5.47868C0.460587 5.31677 0.460587 4.74404 0.844359 4.58214L3.56117 3.43586C3.67758 3.3867 3.76963 3.28965 3.81627 3.16705L4.90385 0.303389C5.0574 -0.10113 5.60076 -0.10113 5.75447 0.303389V0.303389Z" fill="black"/>
<path d="M68.4559 0.303389L69.5435 3.16705C69.5901 3.28965 69.6822 3.38686 69.7986 3.43586L72.5154 4.58214C72.8992 4.74404 72.8992 5.31677 72.5154 5.47868L69.7986 6.62495C69.6822 6.67396 69.5901 6.77117 69.5435 6.89377L68.4559 9.75743C68.3022 10.1619 67.759 10.1619 67.6053 9.75743L66.5177 6.89377C66.4711 6.77117 66.379 6.67396 66.2626 6.62495L63.5458 5.47868C63.162 5.31677 63.162 4.74404 63.5458 4.58214L66.2626 3.43586C66.379 3.3867 66.4711 3.28965 66.5177 3.16705L67.6053 0.303389C67.7588 -0.10113 68.3022 -0.10113 68.4559 0.303389V0.303389Z" fill="black"/>
</svg>
