<svg width="98" height="98" viewBox="0 0 98 98" fill="none" xmlns="http://www.w3.org/2000/svg">
<path d="M20.0838 40.9301V48.8304H19.7031L17.5138 47.9738L15.9909 45.499L12.7546 45.9749L9.4232 47.9738L5.42547 43.5001L6.66286 42.2627L7.70988 40.1687L7.42433 37.3131L5.42547 35.5998L2.56994 34.8383L1.42773 32.9347L1.80847 28.5562L4.28326 28.1755L6.66286 26.8429L7.42433 24.7488V21.8933L5.42547 18.9426L9.13765 15.8015L11.898 17.0389H15.4198L18.0849 15.4208L18.9416 11.4231L21.226 10.5664L24.9382 11.899L25.5093 14.6593L27.413 17.0389L30.6493 17.3245L34.0759 14.6593L35.694 16.4678L37.0266 19.6089L39.5966 21.3222V25.1296L41.2147 27.6044L38.264 29.0321C37.6929 29.1908 35.4275 29.4129 30.9348 29.0321C31.2394 24.7679 26.2391 22.4961 23.7008 21.8933C21.0674 21.5126 15.1914 22.236 12.7546 28.1755C10.3179 34.1149 16.6255 39.1533 20.0838 40.9301Z" fill="#F32478"/>
<path d="M77.099 50.1621V59.4901L79.7641 61.1083L82.81 64.059L84.6185 68.9134L83.9522 73.4822L80.9063 76.6233L77.099 78.6221L71.5783 77.5751L69.865 79.4788L69.1035 83.4765L71.5783 85.4754L72.7205 88.8068H78.0508L79.7641 85.4754L81.3823 83.4765H84.6185L87.5692 85.4754L91.567 81.1921L90.1392 79.4788L89.5681 77.004L90.1392 74.5292L92.4236 72.4352L95.5647 71.7689V67.0097L94.6128 65.8675L91.567 65.106L89.5681 62.7264V59.4901L91.567 56.825L87.5692 52.7321L85.9511 53.9695L82.81 55.302L79.7641 53.9695L77.099 50.1621Z" fill="#F32478"/>
<path d="M94.2423 6.28282H83.7233L81.9185 5.07809C76.9331 1.75605 71.1325 0 65.1418 0H53.404C51.6715 0 50.2625 1.40892 50.2625 3.14141C50.2625 4.29116 50.5955 5.3561 51.1359 6.28439L42.409 6.28282C39.8111 6.28282 37.6969 8.39699 37.6969 10.9949C37.6969 11.6154 37.8241 12.2044 38.0425 12.7478C37.166 12.985 36.3932 13.4625 35.7979 14.1159L34.2099 12.5279L31.9214 14.8149C31.056 15.6819 29.7601 15.9332 28.5585 15.4306C27.4308 14.9641 26.702 13.874 26.702 12.652V9.42423H17.2778V12.652C17.2778 13.874 16.5489 14.9657 15.3568 15.4557C14.218 15.9364 12.9222 15.6819 12.0552 14.8149L9.76978 12.5279L3.10371 19.194L5.38909 21.481C6.25455 22.348 6.50743 23.6438 6.00637 24.8438C5.53987 25.9716 4.44981 26.702 3.2278 26.702H0V36.1262H3.2278C4.44981 36.1262 5.54145 36.8566 6.03308 38.0456C6.509 39.1859 6.25612 40.4818 5.39066 41.3488L3.10371 43.6342L9.76978 50.3002L12.0583 48.0133C12.9238 47.1463 14.218 46.895 15.4196 47.3944C16.5474 47.8641 17.2778 48.9541 17.2778 50.1762V53.404H18.8485V56.5862C18.8485 59.5925 19.183 62.5879 19.805 65.5157C18.3066 66.1926 16.8521 66.9827 15.4667 67.9063L13.6604 69.111H3.14141C1.40892 69.111 0 70.5199 0 72.2524V91.1009C0 92.8334 1.40892 94.2423 3.14141 94.2423H12.5656C13.8363 94.2423 14.928 93.4805 15.4227 92.392C20.3375 95.6214 26.1412 97.3837 32.0471 97.3837H45.5504C46.1976 97.3837 46.8149 97.2517 47.3772 97.0146C47.6489 97.1104 47.9191 97.2109 48.1939 97.302L48.6918 97.4685L49.1898 97.3036C56.6098 94.8313 62.9821 90.4647 67.8874 84.8683C68.1937 84.8997 68.5047 84.9626 68.8236 85.0945C69.9513 85.561 70.6817 86.6511 70.6817 87.8731V91.1009H80.1059V87.8731C80.1059 86.6511 80.8363 85.5594 82.0253 85.0678C83.1657 84.5934 84.4599 84.8432 85.327 85.7102L87.6139 87.9972L94.28 81.3311L91.9946 79.0441C91.1291 78.1771 90.8763 76.8813 91.3773 75.6813C91.8438 74.5535 92.9339 73.8231 94.1559 73.8231H97.3837V64.3989H94.1559C92.9339 64.3989 91.8422 63.6685 91.3506 62.4795C90.8747 61.3392 91.1276 60.0433 91.993 59.1763L94.2784 56.8894L87.6123 50.2233L85.3238 52.5102C84.4584 53.3773 83.1641 53.6286 81.9609 53.1259C80.8347 52.661 80.1059 51.5709 80.1059 50.3489V47.1211H78.5352V31.5068C79.718 30.9319 80.8614 30.2816 81.9594 29.5591C82.4526 30.6492 83.5458 31.4141 84.818 31.4141H94.2423C95.9748 31.4141 97.3837 30.0052 97.3837 28.2727V9.42423C97.3837 7.69174 95.9748 6.28282 94.2423 6.28282V6.28282ZM42.409 9.42423L56.5454 9.4258V9.42423H61.5245C62.4716 9.42423 63.3277 9.86245 63.9135 10.5913C63.2287 11.1818 62.6287 11.8494 62.0978 12.5656H42.409C41.5436 12.5656 40.8383 11.862 40.8383 10.9949C40.8383 10.1279 41.5436 9.42423 42.409 9.42423V9.42423ZM52.094 23.9407L49.1678 21.9899H59.6868V25.1313H54.0888C53.4087 24.7637 52.7395 24.3726 52.094 23.9407ZM43.2949 25.1313H42.409C41.5436 25.1313 40.8383 24.4276 40.8383 23.5606C40.8383 22.6935 41.5436 21.9899 42.409 21.9899H48.2159L45.2913 23.9407C44.6441 24.3726 43.975 24.7637 43.2949 25.1313V25.1313ZM39.2676 15.707H60.4172C60.0575 16.7107 59.8344 17.7647 59.748 18.8485H39.2676C38.4022 18.8485 37.6969 18.1448 37.6969 17.2778C37.6969 16.4107 38.4022 15.707 39.2676 15.707V15.707ZM16.5678 44.4714C14.2463 43.5038 11.6028 44.0221 9.83418 45.7923L9.76978 45.8583L7.54566 43.6342L7.61163 43.5682C9.38025 41.798 9.89858 39.1545 8.91061 36.7859C7.95719 34.477 5.72679 32.9848 3.2278 32.9848H3.14141V29.8434H3.2278C5.72679 29.8434 7.95719 28.3512 8.93103 25.992C9.89858 23.6721 9.38025 21.0302 7.61163 19.26L7.54566 19.194L9.76978 16.9699L9.83575 17.0359C11.6075 18.8092 14.251 19.3244 16.6181 18.3348C18.927 17.3814 20.4192 15.151 20.4192 12.652V12.5656H23.5606V12.652C23.5606 15.151 25.0527 17.383 27.4104 18.3553C29.7287 19.3259 32.3738 18.8076 34.144 17.0359L34.2099 16.9699L34.5586 17.3202C34.5775 19.4736 36.0524 21.2689 38.0425 21.8092C37.8241 22.3511 37.6969 22.9401 37.6969 23.5606C37.6969 24.8768 38.2419 26.0658 39.1153 26.9219C36.9728 27.6318 34.7471 28.0559 32.4947 28.191C31.1015 23.6155 26.8936 20.4192 21.9899 20.4192C15.9269 20.4192 10.9949 25.3527 10.9949 31.4141C10.9949 36.3477 14.229 40.576 18.8485 41.9441V46.0782C18.2359 45.3981 17.4662 44.8436 16.5678 44.4714V44.4714ZM18.8485 26.3564V38.5859C16.0416 37.3623 14.1363 34.6026 14.1363 31.4125C14.1363 27.0821 17.6594 23.559 21.9899 23.559C25.1438 23.559 27.8753 25.4234 29.1177 28.1769C28.0481 28.1015 26.9816 27.9821 25.9229 27.7716L18.8485 26.3564ZM12.5656 91.1009H3.14141V72.2524H12.5656V91.1009ZM45.5504 94.2423H32.0471C26.1617 94.2423 20.3956 92.2805 15.707 88.7354V71.522L17.2086 70.5199C21.6742 67.5434 26.8732 65.9696 32.2419 65.9696H40.8383C40.8383 67.7021 39.431 69.111 37.7032 69.111H37.6969H32.9754V72.2524H37.6969H37.7032H51.8333C52.6987 72.2524 53.404 72.9561 53.404 73.8231C53.404 74.6901 52.6987 75.3938 51.8333 75.3938H32.9848V78.5352H54.9747C55.8401 78.5352 56.5454 79.2389 56.5454 80.1059C56.5454 80.973 55.8401 81.6766 54.9747 81.6766H32.9848V84.818H51.8333C52.6987 84.818 53.404 85.5217 53.404 86.3888C53.404 87.2558 52.6987 87.9595 51.8333 87.9595H32.9848V91.1009H45.5504C46.4159 91.1009 47.1211 91.8045 47.1211 92.6716C47.1211 93.5386 46.4159 94.2423 45.5504 94.2423V94.2423ZM28.2727 56.5862V37.5932C29.1774 37.6624 30.0837 37.6969 30.9821 37.6969C36.9555 37.6969 42.3666 36.4733 47.1211 34.078V69.111H43.1064C43.6467 68.1827 43.9797 67.1193 43.9797 65.9696C43.9797 64.2371 42.5708 62.8282 40.8383 62.8282H32.2419C31.1204 62.8282 30.0099 62.9099 28.9057 63.0324C28.4926 60.9151 28.2727 58.7538 28.2727 56.5862V56.5862ZM59.6664 79.9002C59.5737 77.8206 58.1365 76.1022 56.1998 75.576C56.4181 75.0326 56.5454 74.4435 56.5454 73.8231C56.5454 71.2252 54.4312 69.111 51.8333 69.111H50.2625V34.078C55.0171 36.4749 60.4281 37.6969 66.4015 37.6969C67.3 37.6969 68.2063 37.6624 69.111 37.5932V56.5878C69.111 65.4214 65.6633 73.7257 59.6664 79.9002ZM50.1714 93.5732C50.228 93.281 50.2625 92.9794 50.2625 92.6716C50.2625 92.1187 50.1495 91.5941 49.9735 91.1009H51.8333C54.337 91.1009 56.3726 89.1312 56.5171 86.6636C66.3795 79.8232 72.2524 68.6555 72.2524 56.5862V34.0686L70.4838 34.2948C69.1283 34.4675 67.7539 34.5555 66.4015 34.5555C59.9946 34.5555 54.315 33.0492 49.518 30.0774L48.6918 29.5654L47.8657 30.0774C43.0687 33.0492 37.3891 34.5555 30.9821 34.5555C29.6298 34.5555 28.257 34.4675 26.8999 34.2948L25.1313 34.0686V56.5862C25.1313 58.9187 25.3637 61.2433 25.8004 63.524C24.7747 63.747 23.7663 64.0345 22.7689 64.3643C22.2616 61.8088 21.9899 59.203 21.9899 56.5862V30.1889L25.3088 30.8533C27.1732 31.2256 29.0832 31.4141 30.9821 31.4141C36.7121 31.4141 42.2629 29.735 47.0332 26.5543L48.6918 25.4486L50.3505 26.5543C55.1207 29.735 60.67 31.4141 66.4015 31.4141C68.3005 31.4141 70.2105 31.2256 72.0765 30.8533L75.3938 30.1889V56.5878C75.3938 73.0268 65.335 87.6139 50.1714 93.5732ZM78.1881 61.7915C81.1552 62.9366 83.2473 65.8329 83.2473 69.111C83.2473 73.4414 79.7243 76.9645 75.3938 76.9645C74.7467 76.9645 74.1168 76.8829 73.5027 76.7305C75.9389 72.1456 77.5425 67.0974 78.1881 61.7915V61.7915ZM80.8143 56.0522C83.1327 57.0229 85.7777 56.5045 87.5479 54.7328L87.6139 54.6668L89.838 56.8909L89.772 56.9569C88.0034 58.7271 87.4851 61.3706 88.4731 63.7392C89.4265 66.0481 91.6569 67.5403 94.1559 67.5403H94.2423V70.6817H94.1559C91.6569 70.6817 89.4265 72.1739 88.4527 74.5331C87.4851 76.853 88.0034 79.4949 89.772 81.2651L89.838 81.3311L87.6139 83.5552L87.5479 83.4892C85.7762 81.7175 83.1327 81.1976 80.7641 82.1903C78.4567 83.1452 76.9645 85.3741 76.9645 87.8731V87.9595H73.8231V87.8731C73.8231 85.4008 72.3608 83.1971 70.0424 82.2044C70.6896 81.3342 71.3021 80.4405 71.8833 79.5232C73.0079 79.9049 74.1828 80.1059 75.3938 80.1059C81.4567 80.1059 86.3888 75.1724 86.3888 69.111C86.3888 64.2135 83.062 59.9114 78.4567 58.5622C78.4865 57.904 78.5352 57.2506 78.5352 56.5862V54.4453C79.1478 55.127 79.9174 55.6815 80.8143 56.0522V56.0522ZM71.4608 27.7732C68.6021 28.3434 65.6822 28.3858 62.8282 27.9837V19.8301C62.8282 17.2793 63.9025 14.8903 65.7403 13.1892C67.2591 14.774 69.3639 15.707 71.6445 15.707H72.2524V12.5656H71.6445C69.7126 12.5656 67.9785 11.4913 67.1021 9.73523C66.0403 7.60692 63.9041 6.28282 61.5245 6.28282H56.5391C54.8113 6.28282 53.404 4.8739 53.404 3.14141H65.1418C70.5105 3.14141 75.7095 4.71525 80.175 7.69174L81.6766 8.69385V25.9166C80.6777 26.6721 79.6284 27.357 78.5352 27.968V26.3564L71.4608 27.7732ZM94.2423 28.2727H84.818V9.42423H94.2423V28.2727Z" fill="white"/>
<path d="M73.5484 19.2628C70.008 20.1471 67.2043 22.7435 66.0498 26.2054L69.0294 27.1996C69.8431 24.7603 71.8159 22.9336 74.3101 22.31L75.774 21.944L75.0122 18.8984L73.5484 19.2628Z" fill="white"/>
<path d="M0 59.6875H3.14141V62.8289H0V59.6875Z" fill="white"/>
<path d="M6.28271 59.6875H9.42412V62.8289H6.28271V59.6875Z" fill="white"/>
<path d="M12.5657 59.6875H15.7071V62.8289H12.5657V59.6875Z" fill="white"/>
<path d="M81.6768 37.6973H84.8182V40.8387H81.6768V37.6973Z" fill="white"/>
<path d="M87.9595 37.6973H91.1009V40.8387H87.9595V37.6973Z" fill="white"/>
<path d="M94.2422 37.6973H97.3836V40.8387H94.2422V37.6973Z" fill="white"/>
</svg>
