<svg width="1920" height="533" viewBox="0 0 1920 533" fill="none" xmlns="http://www.w3.org/2000/svg">
<g opacity="0.3">
<path d="M278.439 242.56L282.316 228.407C279.925 224.265 278.667 219.565 278.668 214.751C278.675 199.692 290.931 187.439 305.992 187.439C313.301 187.442 320.159 190.287 325.318 195.449C330.476 200.613 333.317 207.474 333.314 214.773C333.308 229.833 321.05 242.086 305.992 242.086C305.99 242.086 305.992 242.086 305.992 242.086H305.98C301.408 242.085 296.914 240.938 292.924 238.761L278.439 242.56Z" fill="white"/>
<path d="M278.44 243.278C278.25 243.278 278.065 243.203 277.929 243.065C277.749 242.883 277.678 242.616 277.746 242.37L281.544 228.503C279.189 224.321 277.947 219.573 277.95 214.752C277.956 199.293 290.535 186.719 305.992 186.719C313.489 186.722 320.534 189.641 325.828 194.94C331.122 200.24 334.036 207.283 334.033 214.772C334.028 230.229 321.447 242.805 305.992 242.805C301.403 242.803 296.862 241.671 292.833 239.528L278.622 243.254C278.562 243.271 278.501 243.278 278.44 243.278Z" fill="white"/>
<path d="M305.992 187.439C313.301 187.442 320.16 190.287 325.319 195.449C330.476 200.612 333.317 207.474 333.314 214.773C333.308 229.832 321.05 242.086 305.992 242.086H305.98C301.409 242.085 296.914 240.938 292.924 238.76L278.44 242.559L282.316 228.406C279.925 224.265 278.667 219.565 278.668 214.751C278.676 199.691 290.931 187.439 305.992 187.439ZM305.992 186C290.139 186 277.237 198.897 277.229 214.751C277.228 219.596 278.451 224.371 280.771 228.598L277.051 242.181C276.916 242.678 277.054 243.207 277.416 243.573C277.69 243.849 278.06 244 278.44 244C278.562 244 278.684 243.984 278.805 243.953L292.745 240.297C296.815 242.41 301.377 243.525 305.98 243.527C321.845 243.527 334.747 230.628 334.755 214.774C334.757 207.091 331.768 199.867 326.339 194.433C320.906 188.998 313.681 186.003 305.992 186Z" fill="#CFD8DC"/>
<path d="M322.055 198.71C317.767 194.419 312.067 192.054 306 192.053C293.474 192.053 283.287 202.236 283.281 214.753C283.28 219.042 284.48 223.219 286.754 226.835L287.295 227.694L284.999 236.071L293.595 233.817L294.425 234.309C297.911 236.379 301.908 237.472 305.984 237.474H305.993C318.51 237.474 328.697 227.29 328.701 214.771C328.702 208.706 326.344 203.001 322.055 198.71Z" fill="#40C351"/>
<path fill-rule="evenodd" clip-rule="evenodd" d="M299.161 203.333C298.65 202.196 298.112 202.173 297.624 202.153C297.226 202.135 296.771 202.137 296.316 202.137C295.861 202.137 295.122 202.308 294.496 202.992C293.87 203.675 292.105 205.326 292.105 208.684C292.105 212.043 294.552 215.29 294.893 215.745C295.234 216.199 299.616 223.313 306.555 226.05C312.321 228.323 313.496 227.872 314.748 227.758C316 227.644 318.787 226.107 319.356 224.513C319.924 222.918 319.924 221.553 319.754 221.268C319.583 220.983 319.128 220.813 318.446 220.47C317.764 220.128 314.407 218.477 313.781 218.25C313.155 218.023 312.7 217.909 312.244 218.592C311.789 219.275 310.481 220.813 310.082 221.268C309.684 221.724 309.285 221.781 308.603 221.439C307.921 221.096 305.722 220.377 303.113 218.051C301.084 216.242 299.714 214.008 299.315 213.324C298.917 212.642 299.272 212.272 299.615 211.931C299.921 211.624 300.297 211.134 300.639 210.735C300.98 210.337 301.094 210.052 301.321 209.597C301.549 209.141 301.435 208.742 301.264 208.401C301.095 208.058 299.768 204.682 299.161 203.333Z" fill="white"/>
<path d="M263.2 511.651V468.151C263.2 465.748 261.253 463.801 258.85 463.801H215.35C212.947 463.801 211 465.748 211 468.151V511.651C211 514.053 212.947 516.001 215.35 516.001H258.85C261.253 516.001 263.2 514.053 263.2 511.651Z" fill="#1C9957"/>
<path d="M215.35 516.001H258.85C261.252 516.001 237.1 492.801 237.1 492.801C237.1 492.801 212.947 516.001 215.35 516.001Z" fill="#3E7BF1"/>
<path d="M263.2 511.65V468.15C263.2 465.748 240 489.9 240 489.9C240 489.9 263.2 514.053 263.2 511.65Z" fill="#CBCCC9"/>
<path d="M258.85 515.999C261.253 515.999 263.2 514.052 263.2 511.649V511.294L240.356 488.449L235.65 493.154L258.495 515.999H258.85Z" fill="#EFEFEF"/>
<path d="M263.2 468.151C263.2 465.748 261.253 463.801 258.85 463.801H258.495L211 511.296V511.651C211 514.053 212.947 516.001 215.35 516.001H215.705L263.2 468.506V468.151Z" fill="#FFD73D"/>
<path d="M254.5 458C246.492 458 240 464.492 240 472.5C240 482.379 251.116 485.978 253.533 501.284C253.688 502.27 253.7 502.95 254.5 502.95C255.3 502.95 255.312 502.27 255.467 501.284C257.884 485.978 269 482.379 269 472.5C269 464.492 262.508 458 254.5 458Z" fill="#D73F35"/>
<path d="M254.501 467.426C253.834 467.426 253.174 467.557 252.559 467.812C251.943 468.067 251.383 468.441 250.912 468.912C250.441 469.383 250.067 469.943 249.812 470.559C249.557 471.174 249.426 471.834 249.426 472.501C249.426 473.167 249.557 473.827 249.812 474.443C250.067 475.059 250.441 475.618 250.912 476.089C251.383 476.561 251.943 476.934 252.559 477.189C253.174 477.445 253.834 477.576 254.501 477.576C255.167 477.576 255.827 477.445 256.443 477.189C257.059 476.934 257.618 476.561 258.089 476.089C258.561 475.618 258.934 475.059 259.189 474.443C259.445 473.827 259.576 473.167 259.576 472.501C259.576 471.834 259.445 471.174 259.189 470.559C258.934 469.943 258.561 469.383 258.089 468.912C257.618 468.441 257.059 468.067 256.443 467.812C255.827 467.557 255.167 467.426 254.501 467.426Z" fill="#752622"/>
<path d="M223.314 473.269V476.316H227.656C227.087 478.163 225.546 479.484 223.314 479.484C220.656 479.484 218.503 477.331 218.503 474.673C218.503 472.015 220.658 469.862 223.314 469.862C224.509 469.862 225.6 470.3 226.441 471.02L228.685 468.777C227.268 467.487 225.383 466.699 223.314 466.699C218.909 466.699 215.338 470.271 215.338 474.674C215.338 479.078 218.909 482.649 223.314 482.649C230.289 482.649 231.488 476.39 230.831 473.281L223.314 473.269Z" fill="white"/>
<path d="M1627.47 210.051C1626.82 210.47 1625.91 210.857 1625.52 211.292C1625.37 211.437 1625.29 211.598 1625.33 211.759V213.418L1624.84 215.046L1624.36 216.657L1623.83 218.429L1622.73 222.054L1621.67 225.631L1620.86 228.321C1620.86 228.74 1620.85 229.159 1620.81 229.562C1620.7 231.108 1620.38 232.591 1619.86 233.976C1619.56 234.83 1619.19 235.652 1618.74 236.425C1618.57 236.731 1618.38 237.037 1618.19 237.327C1617.54 238.342 1616.77 239.277 1615.92 240.098C1615.26 240.759 1614.53 241.371 1613.74 241.887C1613.74 241.887 1613.74 241.887 1613.73 241.887C1613.6 241.999 1613.45 242.096 1613.29 242.177C1612.79 242.515 1612.26 242.805 1611.71 243.063C1611.34 243.256 1610.97 243.417 1610.58 243.562C1610.5 243.611 1610.41 243.643 1610.33 243.675C1609.41 244.11 1608.34 244.4 1607.28 244.545C1607.22 244.561 1607.17 244.561 1607.1 244.577C1606.46 244.69 1605.83 244.787 1605.19 244.835C1604.9 244.867 1604.59 244.883 1604.3 244.883L1603.16 244.819L1597.65 244.529C1597.65 244.513 1597.63 244.529 1597.63 244.529L1594.86 244.384C1594.65 244.384 1594.42 244.384 1594.21 244.368C1593.34 244.336 1592.51 244.239 1591.67 244.062C1591.65 244.062 1591.65 244.062 1591.65 244.062C1590.12 243.772 1588.66 243.256 1587.29 242.563C1586.53 242.177 1585.79 241.742 1585.1 241.242C1584.81 241.033 1584.53 240.807 1584.26 240.566C1583.48 239.921 1582.79 239.228 1582.15 238.519C1582.05 238.423 1581.97 238.326 1581.89 238.229C1581.79 238.133 1581.7 238.02 1581.62 237.923C1581 237.15 1580.49 236.361 1580.07 235.523C1579.68 234.782 1579.38 233.992 1579.13 233.122C1579.04 232.816 1578.96 232.526 1578.89 232.204C1578.88 232.188 1578.86 232.156 1578.86 232.123C1578.7 231.463 1578.55 230.77 1578.47 230.077C1578.38 229.546 1578.33 229.014 1578.33 228.466C1578.3 228.257 1578.3 228.031 1578.3 227.822L1581.37 223.069L1584.39 218.429L1585.76 216.318L1587 214.417L1587.42 213.757V212.097C1587.45 211.727 1587.46 211.34 1587.45 210.986C1587.43 209.858 1587.21 208.762 1586.84 207.715C1586.48 206.603 1585.98 205.556 1585.47 204.589C1584.85 203.478 1584.21 202.479 1583.68 201.577C1582.89 200.256 1582.34 199.176 1582.49 198.419C1583.65 198.145 1584.87 198 1586.11 198H1611.89C1618.62 198 1624.42 202.189 1626.82 208.086C1627.08 208.714 1627.31 209.374 1627.47 210.051Z" fill="#304FFE"/>
<path d="M1628 214.111V214.546L1625.78 215.835L1624.36 216.657L1622.8 217.559L1619.67 219.379L1616.61 221.152L1613.48 222.956L1612.24 223.681C1612.24 224.454 1612.05 225.163 1611.7 225.808C1611.2 226.742 1610.36 227.516 1609.3 228.176C1608.22 228.837 1606.89 229.368 1605.41 229.755C1605.41 229.755 1605.41 229.739 1605.4 229.755C1599.66 231.237 1591.83 230.561 1588.03 227.725C1586.97 226.936 1586.22 225.969 1585.9 224.857C1585.81 224.487 1585.76 224.084 1585.76 223.681V212.097C1585.77 211.856 1585.61 211.614 1585.32 211.372C1584.45 210.679 1582.41 210.019 1580.12 209.358C1578.33 208.859 1576.41 208.359 1574.8 207.876C1573.53 207.489 1572.45 207.103 1571.8 206.732C1572.09 206.168 1572.43 205.604 1572.79 205.073C1575.04 201.77 1578.49 199.337 1582.49 198.419C1583.65 198.145 1584.87 198 1586.11 198H1603.51C1612.16 199.514 1620.14 203.043 1626.82 208.086C1627.08 208.714 1627.31 209.374 1627.47 210.051C1627.76 211.114 1627.94 212.21 1627.98 213.354C1628 213.596 1628 213.853 1628 214.111Z" fill="#4928F4"/>
<path d="M1628 214.111V221.216L1627.65 222.312L1626.44 226.066L1625.18 229.933L1624.52 231.995L1623.91 233.912L1623.31 235.733L1622.73 237.537L1622.43 238.488L1622.02 239.744C1622.02 240.969 1621.99 242.048 1621.91 242.966C1621.89 243.063 1621.88 243.16 1621.88 243.256C1621.78 244.11 1621.65 244.835 1621.44 245.448C1621.43 245.544 1621.39 245.641 1621.36 245.721C1620.94 246.881 1620.31 247.623 1619.38 248.106C1619.15 248.235 1618.9 248.331 1618.62 248.428C1617.77 248.718 1616.69 248.863 1615.37 248.944C1614.4 249.008 1613.29 249.024 1612.03 249.024H1610.92L1609 248.944L1608.67 248.928L1605.17 248.783L1601.63 248.638L1589.95 248.154L1586.92 248.025H1586.5C1585.24 248.009 1584.16 247.929 1583.23 247.8C1581.87 247.59 1580.83 247.236 1580.04 246.704C1578.91 245.979 1578.25 244.916 1577.86 243.434C1577.77 243.079 1577.68 242.709 1577.64 242.306C1577.48 241.371 1577.39 240.292 1577.35 239.084C1577.35 238.842 1577.35 238.6 1577.33 238.343C1577.31 238.326 1577.33 238.326 1577.33 238.326V237.392C1577.31 236.925 1577.31 236.441 1577.31 235.942L1577.39 233.348L1577.44 231.495L1577.51 229.336V229.03L1577.62 225.067L1577.73 221.104L1577.85 217.382L1577.94 213.725L1577.97 212.758C1577.97 212.259 1576.28 211.969 1574.4 211.727C1572.9 211.534 1571.26 211.356 1570.27 211.131C1570.35 210.76 1570.43 210.39 1570.53 210.035C1570.82 208.875 1571.26 207.78 1571.8 206.733C1572.09 206.169 1572.43 205.605 1572.79 205.073C1576.27 203.543 1579.89 202.35 1583.68 201.577C1587 200.884 1590.46 200.514 1594.04 200.514C1605.9 200.514 1616.85 204.525 1625.52 211.292C1626.36 211.936 1627.18 212.629 1627.98 213.354C1628 213.596 1628 213.854 1628 214.111Z" fill="#6200EA"/>
<path d="M1628 217.93V225.244L1627.11 226.952L1625.42 230.255L1624.52 231.995L1623.7 233.59L1623.34 234.283C1623.34 234.782 1623.34 235.265 1623.31 235.733C1623.31 236.425 1623.28 237.086 1623.23 237.698C1623.17 238.423 1623.07 239.084 1622.97 239.696C1622.73 240.969 1622.39 242.064 1621.91 242.966C1621.85 243.079 1621.78 243.192 1621.72 243.289C1621.54 243.579 1621.33 243.852 1621.1 244.11C1620.81 244.465 1620.49 244.771 1620.12 245.029C1619.57 245.447 1618.93 245.786 1618.19 246.044C1617.27 246.382 1616.21 246.607 1614.95 246.736C1614.13 246.817 1613.23 246.865 1612.24 246.865L1611.57 246.897L1608.22 247.091H1608.2L1604.64 247.3L1601.01 247.51L1596.02 247.8L1589.95 248.154L1589.06 248.202C1588.24 248.202 1587.46 248.154 1586.72 248.057C1586.64 248.041 1586.58 248.025 1586.5 248.025C1585.4 247.848 1584.4 247.558 1583.5 247.155C1582.41 246.672 1581.45 246.028 1580.65 245.254C1579.94 244.561 1579.33 243.772 1578.83 242.886C1578.72 242.676 1578.6 242.483 1578.51 242.257C1578.02 241.307 1577.64 240.244 1577.35 239.084C1577.3 238.89 1577.25 238.681 1577.22 238.471C1577.12 238.101 1577.04 237.714 1576.99 237.311C1576.81 236.28 1576.72 235.185 1576.67 234.041V234.025C1576.65 233.558 1576.64 233.106 1576.64 232.623L1575.85 230.738L1575.74 230.448L1575.64 230.206L1574.43 227.323L1574.24 226.855L1573.08 224.068L1571.79 220.959C1571.79 220.959 1571.79 220.959 1571.77 220.959L1570.47 217.817L1570 216.673V214.111C1570 213.096 1570.1 212.098 1570.27 211.131C1570.35 210.76 1570.43 210.39 1570.53 210.035C1571.9 209.246 1573.33 208.521 1574.8 207.876C1578.15 206.378 1581.74 205.266 1585.47 204.59C1588.24 204.09 1591.12 203.816 1594.04 203.816C1605.81 203.816 1616.5 208.086 1624.84 215.046C1625.16 215.304 1625.47 215.561 1625.78 215.835C1626.53 216.496 1627.27 217.189 1628 217.93Z" fill="#673AB7"/>
<path d="M1628 222.73V231.011L1627.08 232.929L1625.34 236.554L1625.33 236.602C1625.33 237.295 1625.29 237.923 1625.24 238.487C1625.08 240.34 1624.63 241.516 1623.89 242.241C1623.36 242.789 1622.7 243.095 1621.88 243.256C1621.83 243.272 1621.76 243.272 1621.72 243.288C1621.46 243.336 1621.18 243.369 1620.89 243.369C1619.9 243.465 1618.72 243.401 1617.37 243.304C1617.22 243.304 1617.06 243.288 1616.9 243.272C1615.92 243.208 1614.87 243.143 1613.71 243.095C1613.08 243.079 1612.42 243.063 1611.74 243.063H1611.71L1610.08 243.191H1610.07L1606.41 243.449L1602.24 243.771L1601.63 243.82L1596.74 244.174L1594.21 244.368L1591.72 244.545C1591.28 244.545 1590.86 244.545 1590.44 244.529C1590.44 244.529 1590.43 244.513 1590.43 244.529C1588.61 244.496 1586.98 244.384 1585.53 244.11C1584.19 243.884 1583.02 243.53 1582.02 242.998C1580.99 242.499 1580.13 241.79 1579.44 240.888C1578.78 240.001 1578.3 238.89 1577.99 237.553C1577.99 237.536 1577.99 237.536 1577.99 237.536C1577.77 236.457 1577.64 235.2 1577.64 233.783L1577.39 233.348L1575.96 230.786L1575.75 230.431L1575.64 230.206L1574.14 227.548L1573.4 226.21L1572.46 224.551L1570.85 221.667L1570 220.153V214.224C1571.42 213.289 1572.88 212.468 1574.4 211.726C1576.23 210.792 1578.14 210.003 1580.12 209.358C1582.28 208.649 1584.53 208.085 1586.84 207.715C1589.17 207.328 1591.57 207.135 1594.04 207.135C1604.99 207.135 1615.05 211.05 1622.8 217.559C1623.15 217.833 1623.49 218.139 1623.83 218.429C1625.18 219.637 1626.47 220.942 1627.65 222.311C1627.77 222.456 1627.9 222.585 1628 222.73Z" fill="#8E24AA"/>
<path d="M1628 228.144V239.792C1627.61 239.566 1627.08 239.292 1626.42 239.002C1626.07 238.825 1625.66 238.648 1625.24 238.487C1624.63 238.213 1623.97 237.955 1623.23 237.697C1623.07 237.633 1622.91 237.585 1622.73 237.536C1622.44 237.424 1622.14 237.327 1621.83 237.23C1620.88 236.94 1619.83 236.666 1618.74 236.425C1618.32 236.344 1617.88 236.264 1617.45 236.199C1616.05 235.957 1614.55 235.812 1612.98 235.796C1612.86 235.78 1612.71 235.78 1612.58 235.78L1608.44 235.812L1602.8 235.845H1602.79L1590.72 235.941C1586.88 235.941 1584.53 236.86 1583.11 237.23C1583.11 237.23 1583.1 237.23 1583.1 237.246C1581.6 237.633 1581.13 237.391 1581 234.765C1580.97 234.04 1580.96 233.106 1580.96 231.962L1580.05 231.269L1578.47 230.077L1577.51 229.336L1577.31 229.191L1574.64 227.161L1574.24 226.855L1573.4 226.21L1571.85 225.05L1570 223.632V218.155C1570.16 218.026 1570.31 217.913 1570.47 217.816C1572.8 216.205 1575.3 214.836 1577.94 213.724C1580.29 212.725 1582.78 211.936 1585.32 211.372C1586.01 211.227 1586.72 211.082 1587.45 210.985C1589.59 210.615 1591.8 210.438 1594.04 210.438C1603.72 210.438 1612.61 213.805 1619.67 219.379C1620.73 220.217 1621.76 221.103 1622.73 222.054C1624.05 223.31 1625.29 224.647 1626.44 226.065C1626.66 226.355 1626.89 226.645 1627.11 226.951C1627.42 227.338 1627.71 227.741 1628 228.144Z" fill="#C2185B"/>
<path d="M1628 234.604V239.888C1628 240.935 1627.9 241.966 1627.71 242.965C1627.42 244.448 1626.92 245.865 1626.24 247.186C1625.89 247.267 1625.49 247.267 1625.04 247.203C1624.02 247.025 1622.83 246.494 1621.54 245.801C1621.47 245.785 1621.41 245.753 1621.36 245.72C1620.96 245.511 1620.54 245.285 1620.12 245.028C1619.27 244.56 1618.37 244.045 1617.46 243.561C1617.27 243.465 1617.08 243.368 1616.9 243.271C1615.87 242.74 1614.8 242.256 1613.74 241.886C1613.74 241.886 1613.74 241.886 1613.73 241.886C1613.5 241.805 1613.26 241.725 1613.02 241.66C1612.1 241.403 1611.16 241.241 1610.26 241.241L1608.49 240.726L1600.64 238.454C1600.64 238.454 1600.64 238.454 1600.63 238.454L1595.81 237.053H1595.79L1593.7 236.44C1587.64 236.44 1583.92 239.018 1582.12 238.035C1581.41 237.665 1580.99 236.73 1580.84 234.894C1580.79 234.378 1580.78 233.798 1580.78 233.121L1578.89 232.203L1578.81 232.171H1578.8L1577.44 231.494L1575.96 230.785L1575.85 230.737L1575.57 230.592L1572.42 229.061L1570 227.885V222.359C1570.27 222.118 1570.56 221.892 1570.85 221.666C1571.16 221.425 1571.47 221.199 1571.77 220.958C1571.79 220.958 1571.79 220.958 1571.79 220.958C1573.69 219.588 1575.7 218.38 1577.85 217.381C1580.34 216.189 1583 215.27 1585.76 214.674C1586.16 214.578 1586.58 214.481 1587 214.416C1589.28 213.981 1591.64 213.756 1594.04 213.756C1602.53 213.756 1610.33 216.511 1616.61 221.151C1618.43 222.504 1620.12 224.003 1621.67 225.63C1622.94 226.967 1624.12 228.417 1625.18 229.931C1625.26 230.044 1625.34 230.157 1625.42 230.254C1626.02 231.124 1626.57 232.01 1627.08 232.928C1627.42 233.476 1627.71 234.04 1628 234.604Z" fill="#D81B60"/>
<path d="M1627.71 242.965C1627.42 244.447 1626.92 245.865 1626.24 247.186C1625.94 247.782 1625.6 248.346 1625.23 248.894C1625 249.232 1624.76 249.555 1624.52 249.861C1623.94 249.635 1623.09 249.313 1622.04 248.959C1622.04 248.959 1622.04 248.959 1622.04 248.942C1621.25 248.669 1620.35 248.379 1619.38 248.105C1619.11 248.024 1618.83 247.944 1618.54 247.863C1617.4 247.557 1616.21 247.283 1615.05 247.122C1614.08 246.961 1613.13 246.864 1612.24 246.864L1611.5 246.655H1611.49L1607.59 245.527L1605.19 244.834L1602.51 244.061H1602.5L1601.63 243.819L1591.11 240.79L1588.08 239.92L1585.82 239.389L1582.15 238.519L1581.7 238.406C1581.7 238.406 1581.7 238.406 1581.68 238.406L1577.99 237.552C1577.99 237.536 1577.99 237.536 1577.99 237.536L1577.33 237.391L1576.99 237.31L1574.3 236.682L1574 236.601L1571.71 234.716L1570 233.282V226.709C1570.6 226.129 1571.21 225.581 1571.85 225.05C1572.05 224.872 1572.26 224.711 1572.46 224.55C1572.66 224.389 1572.87 224.228 1573.08 224.067C1574.54 222.955 1576.09 221.956 1577.73 221.102C1579.83 219.975 1582.05 219.072 1584.39 218.428C1584.84 218.283 1585.29 218.154 1585.76 218.057C1588.4 217.397 1591.17 217.059 1594.04 217.059C1601.24 217.059 1607.94 219.234 1613.48 222.955C1616.24 224.808 1618.72 227.031 1620.81 229.561C1621.88 230.834 1622.84 232.171 1623.7 233.589C1623.78 233.701 1623.84 233.798 1623.91 233.911C1624.42 234.765 1624.91 235.651 1625.34 236.553C1625.74 237.359 1626.1 238.164 1626.42 239.002C1626.94 240.291 1627.36 241.612 1627.71 242.965Z" fill="#F50057"/>
<path d="M1625.23 248.896C1625 249.234 1624.76 249.556 1624.52 249.862C1623.81 250.748 1623.04 251.554 1622.17 252.263C1621.41 252.891 1620.6 253.455 1619.75 253.938C1619.43 253.858 1619.11 253.761 1618.77 253.632C1617.7 253.262 1616.59 252.649 1615.56 252.005C1614.02 251.022 1612.68 249.959 1612.08 249.476C1611.86 249.282 1611.74 249.186 1611.74 249.186L1609 248.944L1608.67 248.912L1605.12 248.606L1601.45 248.283L1596.02 247.8L1587.42 247.043L1587.38 247.027L1584.35 245.561L1581.29 244.078L1578.83 242.886L1578.3 242.628L1577.64 242.306L1575.35 241.194L1572.3 239.728L1571.35 239.261L1570 238.842V231.641C1570.76 230.738 1571.56 229.884 1572.42 229.063C1572.96 228.547 1573.54 228.032 1574.14 227.548C1574.24 227.468 1574.33 227.387 1574.43 227.323C1574.49 227.242 1574.58 227.194 1574.64 227.162C1575.59 226.388 1576.59 225.696 1577.62 225.067C1578.81 224.31 1580.07 223.633 1581.37 223.069C1582.78 222.441 1584.24 221.909 1585.76 221.507C1588.38 220.766 1591.17 220.379 1594.04 220.379C1600.61 220.379 1606.68 222.377 1611.7 225.808C1614.9 227.999 1617.67 230.771 1619.86 233.977C1620.59 235.008 1621.23 236.103 1621.83 237.231C1622.04 237.65 1622.25 238.069 1622.43 238.488C1622.62 238.891 1622.8 239.293 1622.97 239.696C1623.31 240.534 1623.62 241.372 1623.89 242.242C1624.41 243.853 1624.79 245.496 1625.04 247.204C1625.12 247.768 1625.18 248.332 1625.23 248.896Z" fill="#FF1744"/>
<path d="M1622.18 251.844C1622.18 251.973 1622.18 252.118 1622.17 252.263C1621.41 252.891 1620.6 253.455 1619.75 253.938C1619.4 254.132 1619.04 254.325 1618.67 254.486C1618.3 254.663 1617.93 254.824 1617.54 254.969C1617 254.679 1616.25 254.325 1615.47 253.987C1614.35 253.487 1613.15 253.036 1612.21 252.891C1611.99 252.843 1611.78 252.827 1611.58 252.827L1608.94 252.488H1608.91L1605.62 252.053L1602.3 251.618L1600.76 251.425L1588.58 249.846C1587.79 249.846 1586.95 249.798 1586.08 249.685C1585.02 249.588 1583.9 249.427 1582.79 249.202C1581.7 249.008 1580.58 248.751 1579.52 248.477C1578.41 248.219 1577.31 247.913 1576.3 247.623C1575.12 247.268 1574.03 246.93 1573.11 246.624C1572.35 246.382 1571.71 246.157 1571.21 245.979C1570.92 245.287 1570.68 244.562 1570.5 243.821C1570.16 242.564 1570 241.243 1570 239.889V237.199C1570.52 236.345 1571.08 235.507 1571.71 234.718C1572.85 233.203 1574.16 231.818 1575.57 230.593C1575.62 230.529 1575.69 230.481 1575.74 230.448L1575.75 230.432C1576.25 229.981 1576.77 229.578 1577.31 229.192C1577.38 229.127 1577.44 229.079 1577.51 229.031C1577.77 228.837 1578.04 228.644 1578.33 228.467C1580.63 226.904 1583.18 225.679 1585.9 224.858C1588.48 224.084 1591.2 223.682 1594.04 223.682C1599.66 223.682 1604.91 225.341 1609.29 228.177C1612.53 230.255 1615.32 232.994 1617.45 236.2C1617.7 236.571 1617.95 236.941 1618.19 237.328C1619.3 239.213 1620.22 241.243 1620.89 243.369C1620.98 243.611 1621.04 243.853 1621.1 244.111C1621.23 244.546 1621.35 244.997 1621.44 245.448C1621.47 245.561 1621.51 245.673 1621.54 245.802C1621.76 246.817 1621.93 247.881 1622.04 248.944C1622.04 248.96 1622.04 248.96 1622.04 248.96C1622.14 249.911 1622.18 250.877 1622.18 251.844Z" fill="#FF5722"/>
<path d="M1618.87 251.843C1618.87 252.407 1618.83 253.019 1618.77 253.632C1618.74 253.922 1618.7 254.212 1618.67 254.486C1618.3 254.663 1617.93 254.824 1617.54 254.969C1616.82 255.243 1616.08 255.468 1615.32 255.629C1614.81 255.742 1614.27 255.839 1613.74 255.887H1613.73C1613.23 255.581 1612.65 255.211 1612.05 254.792C1610.97 254.034 1609.84 253.181 1608.94 252.488C1608.92 252.472 1608.92 252.472 1608.91 252.456C1607.96 251.731 1607.28 251.183 1607.28 251.183L1605.57 251.247L1602.29 251.36L1600.76 251.424L1594.6 251.65L1589.4 251.843C1589.06 251.859 1588.66 251.859 1588.16 251.843H1588.14C1587.46 251.827 1586.66 251.779 1585.77 251.698C1584.74 251.618 1583.61 251.521 1582.47 251.408C1581.36 251.279 1580.23 251.151 1579.15 251.022C1577.96 250.893 1576.83 250.748 1575.86 250.619C1575.11 250.522 1574.45 250.442 1573.92 250.377C1573.46 249.862 1573.06 249.33 1572.67 248.75C1572.09 247.88 1571.6 246.962 1571.21 245.979C1570.92 245.286 1570.68 244.561 1570.5 243.82C1570.97 242.386 1571.58 241.033 1572.3 239.728C1572.88 238.664 1573.56 237.649 1574.3 236.683C1575.03 235.732 1575.82 234.846 1576.67 234.041V234.024C1576.91 233.783 1577.15 233.557 1577.4 233.348C1577.85 232.929 1578.31 232.542 1578.8 232.172H1578.81C1578.83 232.139 1578.85 232.139 1578.86 232.123C1579.25 231.817 1579.65 231.543 1580.05 231.269C1582.44 229.642 1585.13 228.434 1588.03 227.725C1589.95 227.258 1591.96 227 1594.04 227C1598.13 227 1602 227.983 1605.4 229.755H1605.41C1608.33 231.253 1610.91 233.316 1612.98 235.797C1614.13 237.118 1615.11 238.568 1615.92 240.098C1616.48 241.129 1616.96 242.209 1617.37 243.304C1617.4 243.401 1617.43 243.482 1617.46 243.562C1617.74 244.368 1617.98 245.206 1618.19 246.043C1618.33 246.639 1618.45 247.252 1618.54 247.864C1618.58 248.057 1618.61 248.234 1618.62 248.428C1618.78 249.539 1618.87 250.683 1618.87 251.843Z" fill="#FF6F00"/>
<path d="M1615.56 251.843V252.004C1615.56 252.552 1615.51 253.244 1615.46 253.986C1615.42 254.533 1615.37 255.097 1615.32 255.629C1614.8 255.742 1614.27 255.838 1613.74 255.887H1613.72C1613.11 255.967 1612.52 255.999 1611.89 255.999H1609.07L1608.46 255.822L1605.28 254.856L1602.06 253.889L1594.6 251.649L1591.38 250.683C1591.38 250.683 1590.04 251.214 1588.16 251.843H1588.14C1587.42 252.084 1586.63 252.342 1585.79 252.6C1584.74 252.906 1583.63 253.212 1582.53 253.454C1581.41 253.712 1580.29 253.905 1579.3 253.986C1578.99 254.018 1578.68 254.034 1578.41 254.034C1577.51 253.534 1576.64 252.938 1575.85 252.278C1575.15 251.698 1574.51 251.069 1573.91 250.377C1573.46 249.861 1573.06 249.329 1572.67 248.749C1572.79 248.024 1572.92 247.316 1573.11 246.623C1573.59 244.706 1574.35 242.869 1575.35 241.193C1575.9 240.243 1576.51 239.324 1577.22 238.471C1577.23 238.422 1577.28 238.374 1577.33 238.342C1577.31 238.326 1577.33 238.326 1577.33 238.326C1577.54 238.052 1577.76 237.794 1577.99 237.552C1577.99 237.536 1577.99 237.536 1577.99 237.536C1578.65 236.827 1579.33 236.151 1580.07 235.522C1580.33 235.313 1580.57 235.103 1580.84 234.894C1580.89 234.846 1580.94 234.813 1581 234.765C1584.63 231.994 1589.16 230.318 1594.04 230.318C1599.58 230.318 1604.62 232.397 1608.44 235.812C1610.28 237.472 1611.84 239.453 1613.02 241.661C1613.11 241.822 1613.21 241.999 1613.29 242.176C1613.43 242.466 1613.58 242.772 1613.71 243.094C1614.24 244.254 1614.66 245.479 1614.95 246.736C1614.98 246.864 1615.01 246.993 1615.05 247.122C1615.17 247.718 1615.29 248.331 1615.37 248.943C1615.5 249.893 1615.56 250.86 1615.56 251.843Z" fill="#FF9800"/>
<path d="M1612.24 251.843C1612.24 252.165 1612.23 252.519 1612.21 252.89C1612.18 253.486 1612.13 254.131 1612.05 254.791C1612.02 255.194 1611.95 255.597 1611.89 255.999H1603.06L1601.35 255.726L1594.68 254.662L1593.73 254.517L1591.56 254.163C1590.61 254.163 1588.54 254.582 1586.37 254.984C1585.23 255.194 1584.07 255.419 1583.02 255.564C1582.89 255.581 1582.76 255.597 1582.65 255.613H1582.63C1581.5 255.371 1580.41 255.001 1579.38 254.517C1579.05 254.372 1578.73 254.211 1578.41 254.034C1577.51 253.534 1576.64 252.938 1575.85 252.278C1575.83 252.084 1575.82 251.923 1575.82 251.843C1575.82 251.424 1575.83 251.021 1575.86 250.618C1575.93 249.587 1576.07 248.588 1576.3 247.622C1576.65 246.156 1577.17 244.738 1577.86 243.433C1577.99 243.159 1578.14 242.885 1578.3 242.627C1578.36 242.498 1578.44 242.386 1578.51 242.257C1578.8 241.789 1579.12 241.338 1579.44 240.887C1580.12 240.001 1580.88 239.163 1581.68 238.406C1581.7 238.406 1581.7 238.406 1581.7 238.406C1581.76 238.342 1581.83 238.277 1581.89 238.229C1581.97 238.164 1582.04 238.084 1582.12 238.036C1582.44 237.746 1582.76 237.488 1583.1 237.246C1583.1 237.23 1583.11 237.23 1583.11 237.23C1586.16 234.958 1589.93 233.621 1594.04 233.621C1597.23 233.621 1600.19 234.427 1602.79 235.844H1602.8C1605.03 237.069 1606.96 238.728 1608.49 240.726C1609.09 241.499 1609.62 242.321 1610.07 243.191H1610.08C1610.17 243.352 1610.25 243.513 1610.33 243.674C1610.81 244.625 1611.2 245.624 1611.49 246.655H1611.5C1611.52 246.736 1611.55 246.816 1611.57 246.897C1611.76 247.589 1611.92 248.298 1612.03 249.023C1612.05 249.168 1612.07 249.329 1612.08 249.474C1612.2 250.248 1612.24 251.037 1612.24 251.843Z" fill="#FFC107"/>
<path d="M1608.94 251.667C1608.94 251.925 1608.94 252.199 1608.91 252.456V252.473C1608.91 252.489 1608.91 252.489 1608.91 252.489C1608.88 253.649 1608.71 254.793 1608.46 255.824C1608.46 255.888 1608.44 255.936 1608.41 256.001H1600.88L1594.68 254.664L1593.86 254.486L1593.73 254.519L1586.85 255.936L1586.55 256.001H1586.11C1585.08 256.001 1584.06 255.904 1583.08 255.711C1582.94 255.679 1582.79 255.646 1582.65 255.614H1582.63C1581.5 255.373 1580.41 255.002 1579.38 254.519C1579.34 254.341 1579.31 254.164 1579.3 253.987C1579.18 253.294 1579.13 252.569 1579.13 251.844C1579.13 251.57 1579.13 251.296 1579.15 251.023C1579.2 250.153 1579.33 249.299 1579.52 248.477C1579.65 247.865 1579.83 247.269 1580.04 246.705C1580.21 246.205 1580.42 245.722 1580.65 245.255C1580.84 244.852 1581.07 244.465 1581.29 244.079C1581.52 243.708 1581.76 243.354 1582.02 242.999C1582.66 242.113 1583.42 241.291 1584.26 240.566C1584.74 240.148 1585.27 239.745 1585.82 239.39C1588.17 237.844 1590.99 236.941 1594.04 236.941C1594.63 236.941 1595.21 236.974 1595.78 237.054H1595.81C1597.53 237.248 1599.14 237.731 1600.63 238.456C1600.64 238.456 1600.64 238.456 1600.64 238.456C1602.98 239.6 1604.96 241.324 1606.41 243.45C1606.65 243.805 1606.89 244.191 1607.1 244.578C1607.28 244.884 1607.44 245.206 1607.59 245.529C1607.81 246.028 1608.02 246.56 1608.2 247.091H1608.22C1608.39 247.688 1608.55 248.284 1608.67 248.912V248.928C1608.84 249.814 1608.94 250.733 1608.94 251.667Z" fill="#FFD54F"/>
<path d="M1605.62 252.004V252.053C1605.62 253.003 1605.51 253.938 1605.28 254.856C1605.2 255.243 1605.09 255.629 1604.94 256H1597.73L1594.04 254.985L1590.35 256H1586.11C1585.08 256 1584.06 255.903 1583.08 255.71C1583.05 255.662 1583.03 255.613 1583.02 255.565C1582.79 254.872 1582.61 254.179 1582.53 253.454C1582.47 252.987 1582.44 252.504 1582.44 252.004C1582.44 251.811 1582.44 251.602 1582.47 251.408C1582.49 250.651 1582.6 249.91 1582.79 249.201C1582.89 248.718 1583.03 248.25 1583.23 247.799C1583.29 247.574 1583.39 247.364 1583.5 247.155C1583.74 246.607 1584.03 246.075 1584.35 245.56C1584.71 245.044 1585.1 244.561 1585.53 244.11C1586.05 243.53 1586.63 242.998 1587.29 242.563C1588.41 241.742 1589.7 241.129 1591.11 240.791C1592.04 240.533 1593.02 240.404 1594.04 240.404C1597.26 240.404 1600.14 241.693 1602.24 243.772C1602.32 243.852 1602.42 243.949 1602.5 244.062H1602.51C1602.74 244.303 1602.95 244.545 1603.16 244.819C1603.75 245.576 1604.25 246.398 1604.64 247.3C1604.83 247.719 1604.99 248.154 1605.12 248.605C1605.14 248.669 1605.15 248.718 1605.17 248.782C1605.4 249.572 1605.54 250.393 1605.57 251.247C1605.61 251.489 1605.62 251.747 1605.62 252.004Z" fill="#FFE082"/>
<path d="M1602.32 252.004C1602.32 252.664 1602.24 253.293 1602.06 253.889C1601.9 254.533 1601.66 255.145 1601.35 255.725C1601.3 255.822 1601.19 255.999 1601.19 255.999H1586.88C1586.87 255.983 1586.85 255.951 1586.85 255.935C1586.66 255.629 1586.5 255.323 1586.37 254.984C1586.05 254.243 1585.85 253.438 1585.79 252.6C1585.76 252.407 1585.76 252.197 1585.76 252.004C1585.76 251.907 1585.76 251.794 1585.77 251.698C1585.79 250.989 1585.88 250.312 1586.08 249.684C1586.24 249.104 1586.45 248.572 1586.72 248.057C1586.72 248.057 1586.74 248.04 1586.74 248.024C1586.93 247.686 1587.14 247.348 1587.38 247.025C1588.17 245.962 1589.22 245.092 1590.43 244.528C1590.44 244.528 1590.44 244.528 1590.44 244.528C1590.83 244.335 1591.23 244.174 1591.65 244.061C1591.65 244.061 1591.65 244.061 1591.67 244.061C1592.41 243.835 1593.22 243.723 1594.04 243.723C1594.99 243.723 1595.91 243.868 1596.74 244.174C1597.05 244.254 1597.34 244.383 1597.63 244.528C1597.63 244.528 1597.63 244.528 1597.65 244.528C1599.03 245.189 1600.21 246.22 1601.01 247.509C1601.17 247.75 1601.32 248.008 1601.45 248.282C1601.51 248.395 1601.58 248.524 1601.63 248.637C1602 249.474 1602.22 250.393 1602.29 251.359C1602.3 251.44 1602.3 251.52 1602.3 251.617C1602.32 251.746 1602.32 251.875 1602.32 252.004Z" fill="#FFECB3"/>
<path d="M1608.67 206.055H1589.33C1583.05 206.055 1578.05 211.049 1578.05 217.332V236.666C1578.05 242.949 1583.05 247.944 1589.33 247.944H1608.67C1614.95 247.944 1619.94 242.949 1619.94 236.666V217.332C1619.94 211.049 1614.95 206.055 1608.67 206.055Z" stroke="white" stroke-width="2" stroke-miterlimit="10" stroke-linecap="round" stroke-linejoin="round"/>
<path d="M1610.28 215.722C1611.17 215.722 1611.89 215.001 1611.89 214.111C1611.89 213.221 1611.17 212.5 1610.28 212.5C1609.39 212.5 1608.67 213.221 1608.67 214.111C1608.67 215.001 1609.39 215.722 1610.28 215.722Z" fill="white"/>
<path d="M1599 236.667C1604.34 236.667 1608.67 232.339 1608.67 227.001C1608.67 221.662 1604.34 217.334 1599 217.334C1593.66 217.334 1589.33 221.662 1589.33 227.001C1589.33 232.339 1593.66 236.667 1599 236.667Z" stroke="white" stroke-width="2" stroke-miterlimit="10" stroke-linecap="round" stroke-linejoin="round"/>
<path fill-rule="evenodd" clip-rule="evenodd" d="M150.62 57.9388C154.345 59.0076 149.554 45.7277 149.554 45.7277C151.687 39.3477 153.8 17.5667 152.474 10.9278C151.149 4.28678 146.177 4.51671 137.042 2.70007C127.744 0.835789 104.357 -0.230995 99.2822 0.042433C94.2383 0.305504 90.5304 3.75028 91.0483 10.6688C91.5806 17.5667 99.6716 43.2731 103.684 49.6531C107.682 56.0331 113.592 54.9186 117.117 54.4919C121.952 53.8954 140.151 49.6531 140.151 49.6531C138.523 47.5609 146.896 56.8699 150.618 57.9388H150.62ZM126.211 17.7945L129.45 10.9091H139.145L128.547 31.089V42.9789H117.424V31.089L111.499 19.808L106.812 10.9091H116.506L122.977 24.6323L126.211 17.7945Z" fill="#ED484A"/>
<path d="M1949 298.375C1949 300.375 1947.37 302 1945.37 302H1894.62C1892.63 302 1891 300.375 1891 298.375V247.625C1891 245.626 1892.63 244 1894.62 244H1945.37C1947.37 244 1949 245.626 1949 247.625V298.375Z" fill="#ED1F24"/>
<path d="M1926.55 255.848H1921.35C1916.24 255.848 1911.91 259.735 1911.91 267.283C1911.91 271.81 1914.01 275.149 1917.74 276.796L1910.77 289.42C1910.54 289.832 1910.77 290.151 1911.13 290.151H1914.37C1914.64 290.151 1914.83 290.06 1914.92 289.832L1921.26 277.436H1923.54V289.832C1923.54 289.968 1923.67 290.151 1923.85 290.151H1926.68C1926.96 290.151 1927.05 290.014 1927.05 289.786V256.305C1927.05 255.985 1926.86 255.848 1926.55 255.848ZM1923.54 274.509H1921.62C1918.61 274.509 1915.69 272.314 1915.69 266.825C1915.69 261.107 1918.43 258.775 1921.21 258.775H1923.54V274.509H1923.54Z" fill="white"/>
<path d="M46 430.944C46 435.394 42.3943 439 37.9444 439H-3.94444C-8.39272 439 -12 435.394 -12 430.944V389.056C-12 384.606 -8.39272 381 -3.94444 381H37.9444C42.3943 381 46 384.606 46 389.056V430.944Z" fill="#3F51B5"/>
<path d="M33.7038 411.611H28.2776V432.555H20.222V411.611H15.3887V405.166H20.222V401.283C20.2252 395.632 22.5726 392.277 29.2313 392.277H34.722V398.722H31.0374C28.4451 398.722 28.2776 399.688 28.2776 401.498V405.166H34.722L33.7038 411.611Z" fill="white"/>
<path d="M1772.55 12H1795.11L1817.67 50.6667H1795.11L1772.55 12Z" fill="#FFC107"/>
<path d="M1761.08 69.9993L1772.46 50.666H1817.67L1806.39 69.9993H1761.08Z" fill="#1976D2"/>
<path d="M1750 50.8681L1761.08 70L1783.83 31.3333L1772.56 12L1750 50.8681Z" fill="#4CAF50"/>
<path d="M1750 524.944C1750 529.394 1746.39 533 1741.94 533H1700.06C1695.61 533 1692 529.394 1692 524.944V483.056C1692 478.606 1695.61 475 1700.06 475H1741.94C1746.39 475 1750 478.606 1750 483.056V524.944Z" fill="#1976D2"/>
<path d="M1740.23 494.4C1740.31 494.157 1740.34 493.931 1740.33 493.73C1740.31 493.146 1739.91 492.723 1738.96 492.723H1734.74C1733.68 492.723 1733.19 493.367 1732.9 494.013C1732.9 494.013 1730.27 499.425 1727.24 502.993C1726.26 504.026 1725.76 504 1725.23 504C1724.94 504 1724.22 503.656 1724.22 502.71V494.356C1724.22 493.238 1723.94 492.723 1723.04 492.723H1715.55C1714.9 492.723 1714.55 493.238 1714.55 493.755C1714.55 494.83 1716 495.088 1716.17 498.099V503.936C1716.17 505.354 1715.92 505.612 1715.39 505.612C1713.95 505.612 1711.13 500.778 1709.24 494.443C1708.83 493.196 1708.42 492.723 1707.36 492.723H1703.1C1701.87 492.723 1701.67 493.325 1701.67 493.97C1701.67 495.131 1702.63 501.411 1707.91 508.632C1711.74 513.868 1716.78 516.889 1721.24 516.889C1723.94 516.889 1724.22 516.201 1724.22 515.127V510.339C1724.22 509.048 1724.52 508.834 1725.38 508.834C1725.99 508.834 1727.24 509.237 1729.66 512.056C1732.45 515.307 1732.95 516.889 1734.55 516.889H1738.77C1739.75 516.889 1740.31 516.478 1740.33 515.681C1740.34 515.478 1740.31 515.251 1740.24 514.998C1739.93 514.07 1738.5 511.801 1736.71 509.639C1735.72 508.442 1734.74 507.256 1734.29 506.612C1733.99 506.192 1733.87 505.895 1733.89 505.612C1733.9 505.313 1734.06 505.03 1734.29 504.634C1734.25 504.634 1739.7 496.979 1740.23 494.4Z" fill="white"/>
</g>
</svg>
