<svg width="184" height="33" viewBox="0 0 184 33" fill="none" xmlns="http://www.w3.org/2000/svg">
<path fill-rule="evenodd" clip-rule="evenodd" d="M131.692 32.237C131.379 32.1743 131.159 32.0331 131.002 31.6098C132.022 31.1394 133.01 30.3083 133.26 29.1793C132.947 29.1009 132.57 29.1166 132.414 28.8187C131.645 27.4858 131.379 25.6826 130.783 24.1929C130.501 24.1459 130.046 24.287 129.92 24.0832C129.842 24.4752 129.826 24.9299 129.654 25.2121C129.45 25.1337 129.199 25.0867 128.964 25.0553C128.964 24.7888 128.964 24.5222 128.964 24.2556C128.541 24.2556 128.102 24.2556 127.678 24.2556C127.71 25.9021 127.459 27.721 127.725 29.1323C125.389 29.6811 126.675 25.9334 126.486 24.2556C126.079 24.2556 125.671 24.2556 125.248 24.2556C125.185 24.5849 125.154 24.9456 125.028 25.2278C124.824 25.1337 124.495 25.1651 124.323 25.0083C124.338 24.6006 124.276 24.0988 124.37 23.7695C125.671 22.9542 128.447 23.0482 129.842 23.7225C130.25 23.3619 130.893 23.111 131.551 23.1737C132.022 23.6441 132.257 24.7574 132.555 25.6512C132.79 26.5607 133.104 27.4388 133.417 28.2855C133.558 27.674 133.794 26.4979 134.044 25.3533C134.28 24.2556 134.499 23.3148 134.907 23.1894C135.33 23.2207 135.565 23.3305 135.707 23.6127C134.687 26.5293 134.719 30.4965 132.382 32.0959C132.147 32.2213 131.912 32.284 131.692 32.237Z" fill="black"/>
<path fill-rule="evenodd" clip-rule="evenodd" d="M141.634 28.0971C141.948 28.1127 142.497 28.1441 142.716 28.2382C142.779 29.1006 142.45 30.4334 142.324 30.9039C141.995 30.8411 141.791 30.8725 141.572 30.7471C141.572 30.1355 141.572 29.571 141.572 28.9752C140.411 29.2731 138.498 29.2261 137.322 29.0379C137.322 29.5397 137.228 30.2453 137.009 30.9352C136.742 30.8568 136.46 30.8568 136.193 30.7627C136.193 29.9003 136.193 29.0379 136.193 28.1911C137.793 27.9403 137.683 25.8548 137.918 24.2553C137.699 24.2397 137.401 24.2553 137.15 24.2397C137.056 24.0985 137.103 23.8163 136.993 23.7065C137.981 23.142 140.333 22.9382 141.18 23.7536C141.682 24.6787 141.478 26.6388 141.634 28.0971ZM138.937 24.1926C138.781 25.5725 138.796 27.219 138.138 28.0971C138.906 28.0971 139.674 28.0971 140.443 28.0971C140.38 26.874 140.458 25.5255 140.286 24.3024C139.863 24.2397 139.439 24.1769 138.937 24.1926Z" fill="black"/>
<path fill-rule="evenodd" clip-rule="evenodd" d="M121.658 20C119.4 20 116.766 21.7405 117.017 25.0648C117.268 28.2793 120.074 29.424 122.003 29.126C123.493 28.8908 124.057 28.0127 124.057 28.0127C124.057 28.0127 123.916 27.6677 123.791 27.4639C122.097 28.4518 119.039 28.2636 118.491 25.3C117.957 22.4618 120.121 20.6743 122.771 21.1917C122.771 21.6308 122.771 22.1012 122.771 22.1012L123.571 22.258C123.571 22.258 123.744 21.5524 123.838 20.8154C123.493 20.4391 122.85 20 121.658 20Z" fill="black"/>
<path fill-rule="evenodd" clip-rule="evenodd" d="M148.014 27.7326C147.152 28.203 144.863 28.6264 144.518 26.4939C144.157 24.2516 146.368 23.8909 147.356 24.2986C147.356 24.6593 147.356 25.0983 147.356 25.0983C147.356 25.0983 147.842 25.1767 148.171 25.1453C148.234 24.7533 148.406 24.0634 148.375 23.7655C146.525 22.464 143.075 23.3891 143.31 26.5566C143.545 29.724 147.215 29.6613 148.375 28.2814C148.218 28.0306 148.093 27.8424 148.014 27.7326Z" fill="#008BD2"/>
<path fill-rule="evenodd" clip-rule="evenodd" d="M150.337 26.9792C150.744 26.9635 152.516 26.8224 153.535 26.2579C154.696 25.615 154.461 24.1881 153.88 23.7491C152.156 22.3692 148.769 23.5295 148.957 26.5245C149.145 29.6606 152.861 29.6292 154.022 28.2493C153.865 28.0141 153.739 27.826 153.645 27.7162C152.861 28.1396 150.885 28.61 150.337 26.9792ZM152.642 24.392C153.112 24.6115 153.143 24.9094 153.159 25.0035C153.175 25.0976 153.096 25.3328 152.893 25.4739C152.406 25.8189 151.497 26.0698 150.211 26.1325C150.196 24.486 151.905 24.047 152.642 24.392Z" fill="#008BD2"/>
<path fill-rule="evenodd" clip-rule="evenodd" d="M166.531 25.807C166.86 25.9795 167.126 26.1834 167.315 26.4656C167.518 26.7479 167.738 27.2967 167.315 28.0807C166.907 28.7236 166.217 29.0842 165.276 29.1783C164.382 29.241 163.473 29.2881 162.908 28.9274C162.36 28.0337 162.767 25.7443 162.736 24.3174C162.391 24.3174 162.093 24.3174 161.858 24.3174C161.858 24.1919 161.811 23.9254 161.764 23.7842C163.598 23.0943 167.754 22.4984 167.142 25.1328C167.064 25.368 166.891 25.6502 166.531 25.807ZM163.881 25.6973C164.367 25.5875 165.104 25.5875 165.652 25.6502C166.593 24.4428 165.307 23.9254 163.928 24.3017C163.896 24.8035 163.896 25.1798 163.881 25.6973ZM163.849 26.4342C163.833 26.9674 163.818 27.4535 163.802 27.9553C164.806 28.1121 166.468 28.1121 166.233 27.0458C165.982 26.3088 164.79 26.3402 163.849 26.4342Z" fill="#008BD2"/>
<path fill-rule="evenodd" clip-rule="evenodd" d="M170.36 23.5639C170.375 24.787 170.266 26.1826 170.234 27.4841C170.469 27.0607 171.097 25.9474 171.708 24.9438C172.21 24.1128 172.712 23.3287 173.088 23.1719C173.339 23.1249 173.794 23.266 173.982 23.3915C174.154 23.9716 173.794 26.6373 173.872 28.174C174.092 28.174 174.452 28.174 174.781 28.174C174.781 28.3778 174.86 28.566 174.891 28.7699C174.311 29.0521 173.449 29.4598 172.759 29.0678C172.633 27.8133 172.837 26.1826 172.868 24.8341C171.99 26.2923 171.253 27.9074 170.187 29.1775C169.748 29.303 169.325 29.1619 169.121 28.911C168.917 27.4841 169.199 25.8533 169.168 24.3009C168.839 24.3009 168.525 24.3009 168.196 24.3009C168.18 24.1755 168.133 23.9246 168.086 23.7678C168.494 23.5639 169.168 23.1719 169.764 23.1562C169.968 23.1562 170.36 23.219 170.36 23.5639Z" fill="#008BD2"/>
<path d="M179.576 30.7813C177.13 30.7813 175.154 28.7899 175.154 26.3594C175.154 23.9132 177.146 21.9375 179.576 21.9375C182.022 21.9375 183.998 23.9289 183.998 26.3594C183.998 28.7899 182.007 30.7813 179.576 30.7813ZM179.576 22.2825C177.334 22.2825 175.499 24.1171 175.499 26.3594C175.499 28.6017 177.318 30.4363 179.576 30.4363C181.818 30.4363 183.653 28.6174 183.653 26.3594C183.637 24.1014 181.818 22.2825 179.576 22.2825Z" fill="#008BD2"/>
<path fill-rule="evenodd" clip-rule="evenodd" d="M158.127 23.238C157.688 23.3321 157.359 23.5046 157.108 23.7712C156.81 22.6108 155.242 23.4419 154.74 23.7712C154.787 23.9123 154.834 24.0848 154.85 24.3043C155.179 24.3043 155.634 24.3043 155.807 24.3043C155.807 24.4925 155.556 31.486 155.556 31.486L155.54 31.8153C155.524 32.0034 155.728 32.3641 156.293 32.2386C156.857 32.1289 157.798 31.7525 157.845 31.7055C157.767 31.4546 157.735 31.1096 157.735 31.1096C157.735 31.1096 157.218 31.1096 156.779 31.1096L156.857 28.836C157.453 29.2437 158.613 29.2437 159.382 28.9771C161.765 28.146 161.702 22.5011 158.127 23.238ZM158.88 27.8951C158.362 28.1303 157.61 28.146 156.904 27.9892C156.904 27.9579 156.888 27.9265 156.888 27.9108L156.998 24.5238C157.751 24.1475 158.974 24.1632 159.366 24.8531C159.93 25.6685 159.789 27.4874 158.88 27.8951Z" fill="#008BD2"/>
<path fill-rule="evenodd" clip-rule="evenodd" d="M181.413 27.7326C180.55 28.203 178.261 28.6264 177.916 26.4939C177.555 24.2516 179.766 23.8909 180.77 24.2986C180.77 24.6593 180.77 25.0983 180.77 25.0983C180.77 25.0983 181.256 25.1767 181.585 25.1453C181.648 24.7533 181.82 24.0634 181.789 23.7655C179.939 22.464 176.489 23.3891 176.724 26.5566C176.96 29.724 180.629 29.6613 181.789 28.2814C181.632 28.0306 181.507 27.8424 181.413 27.7326Z" fill="#008BD2"/>
<path d="M0.488281 17.9999V1.19994H5.14428V8.01594L10.9283 1.19994H16.4483L10.0883 8.42394L16.6643 17.9999H11.0723L6.84828 11.7599L5.14428 13.6559V17.9999H0.488281Z" fill="black"/>
<path d="M21.4755 18.2879C19.0035 18.2879 17.1075 16.8719 17.1075 14.2319C17.1075 11.5439 19.1475 10.1519 22.1955 10.1519C23.3955 10.1519 24.5715 10.3919 25.3155 10.6559V10.4399C25.3155 9.09594 24.4755 8.32794 22.7235 8.32794C21.3555 8.32794 20.2995 8.59194 19.1475 9.04794L18.2115 5.83194C19.6755 5.23194 21.2355 4.82394 23.4675 4.82394C25.7955 4.82394 27.3795 5.37594 28.4115 6.40794C29.3955 7.36794 29.8035 8.71194 29.8035 10.5359V17.9999H25.2915V16.6559C24.4035 17.6399 23.1795 18.2879 21.4755 18.2879ZM23.1075 15.4319C24.4275 15.4319 25.3635 14.5919 25.3635 13.2959V12.6959C24.9075 12.5039 24.2595 12.3599 23.5875 12.3599C22.2675 12.3599 21.4995 13.0079 21.4995 14.0159C21.4995 14.9039 22.1715 15.4319 23.1075 15.4319Z" fill="black"/>
<path d="M34.9307 17.9999V8.68794H31.1387V5.01594H43.2827V8.68794H39.4907V17.9999H34.9307Z" fill="black"/>
<path d="M48.4755 18.2879C46.0035 18.2879 44.1075 16.8719 44.1075 14.2319C44.1075 11.5439 46.1475 10.1519 49.1955 10.1519C50.3955 10.1519 51.5715 10.3919 52.3155 10.6559V10.4399C52.3155 9.09594 51.4755 8.32794 49.7235 8.32794C48.3555 8.32794 47.2995 8.59194 46.1475 9.04794L45.2115 5.83194C46.6755 5.23194 48.2355 4.82394 50.4675 4.82394C52.7955 4.82394 54.3795 5.37594 55.4115 6.40794C56.3955 7.36794 56.8035 8.71194 56.8035 10.5359V17.9999H52.2915V16.6559C51.4035 17.6399 50.1795 18.2879 48.4755 18.2879ZM50.1075 15.4319C51.4275 15.4319 52.3635 14.5919 52.3635 13.2959V12.6959C51.9075 12.5039 51.2595 12.3599 50.5875 12.3599C49.2675 12.3599 48.4995 13.0079 48.4995 14.0159C48.4995 14.9039 49.1715 15.4319 50.1075 15.4319Z" fill="black"/>
<path d="M60.1547 18.1679C59.6747 18.1679 58.6907 18.0719 58.1387 17.9759L58.3307 14.4479C58.8347 14.5199 58.9547 14.5199 59.0747 14.5199C59.8907 14.5199 60.7787 14.1839 60.7787 7.51194V5.01594H71.9867V17.9999H67.4267V8.63994H65.0267V8.97594C65.0267 16.8239 62.9147 18.1679 60.1547 18.1679Z" fill="black"/>
<path d="M81.0514 18.3119C76.8994 18.3119 73.8994 15.2639 73.8994 11.5199C73.8994 7.82394 76.9234 4.72794 81.0994 4.72794C85.2514 4.72794 88.2514 7.77594 88.2514 11.5199C88.2514 15.2159 85.2274 18.3119 81.0514 18.3119ZM81.0994 14.4479C82.7554 14.4479 83.8114 13.1279 83.8114 11.5199C83.8114 9.93594 82.6594 8.59194 81.0514 8.59194C79.3954 8.59194 78.3394 9.91194 78.3394 11.5199C78.3394 13.1039 79.4914 14.4479 81.0994 14.4479Z" fill="black"/>
<path d="M90.1774 17.9999V5.01594H99.9694V8.68794H94.7374V17.9999H90.1774Z" fill="black"/>
<path d="M108.084 21.8399V5.01594H112.644V6.74394C113.532 5.66394 114.636 4.72794 116.58 4.72794C119.676 4.72794 122.34 7.29594 122.34 11.4959C122.34 15.7199 119.676 18.2879 116.604 18.2879C114.636 18.2879 113.484 17.3999 112.644 16.4159V21.8399H108.084ZM115.188 14.4719C116.676 14.4719 117.852 13.2719 117.852 11.4719C117.852 9.76794 116.676 8.54394 115.188 8.54394C113.724 8.54394 112.548 9.76794 112.548 11.5199C112.548 13.2479 113.724 14.4719 115.188 14.4719Z" fill="black"/>
<path d="M128.022 18.2879C125.55 18.2879 123.654 16.8719 123.654 14.2319C123.654 11.5439 125.694 10.1519 128.742 10.1519C129.942 10.1519 131.118 10.3919 131.862 10.6559V10.4399C131.862 9.09594 131.022 8.32794 129.27 8.32794C127.902 8.32794 126.846 8.59194 125.694 9.04794L124.758 5.83194C126.222 5.23194 127.782 4.82394 130.014 4.82394C132.342 4.82394 133.926 5.37594 134.958 6.40794C135.942 7.36794 136.35 8.71194 136.35 10.5359V17.9999H131.838V16.6559C130.95 17.6399 129.726 18.2879 128.022 18.2879ZM129.654 15.4319C130.974 15.4319 131.91 14.5919 131.91 13.2959V12.6959C131.454 12.5039 130.806 12.3599 130.134 12.3599C128.814 12.3599 128.046 13.0079 128.046 14.0159C128.046 14.9039 128.718 15.4319 129.654 15.4319Z" fill="black"/>
<path d="M145.534 18.3119C140.902 18.3119 138.598 15.5279 138.598 10.2719C138.598 6.47994 139.318 2.23194 144.382 1.41594L151.006 0.335938L151.558 3.86394L144.742 5.11194C142.414 5.54394 141.886 7.07994 141.838 7.72794C142.15 7.19994 143.662 5.80794 146.302 5.80794C149.59 5.80794 152.494 8.13594 152.494 11.7119C152.494 15.3359 149.566 18.3119 145.534 18.3119ZM145.582 14.4479C147.094 14.4479 148.054 13.2479 148.054 11.7599C148.054 10.2959 146.998 9.07194 145.534 9.07194C144.022 9.07194 143.062 10.2719 143.062 11.7599C143.062 13.2239 144.118 14.4479 145.582 14.4479Z" fill="black"/>
<path d="M161.044 18.3119C156.892 18.3119 153.892 15.2639 153.892 11.5199C153.892 7.82394 156.916 4.72794 161.092 4.72794C165.244 4.72794 168.244 7.77594 168.244 11.5199C168.244 15.2159 165.22 18.3119 161.044 18.3119ZM161.092 14.4479C162.748 14.4479 163.804 13.1279 163.804 11.5199C163.804 9.93594 162.652 8.59194 161.044 8.59194C159.388 8.59194 158.332 9.91194 158.332 11.5199C158.332 13.1039 159.484 14.4479 161.092 14.4479Z" fill="black"/>
<path d="M172.978 17.9999V8.68794H169.186V5.01594H181.33V8.68794H177.538V17.9999H172.978Z" fill="black"/>
<path d="M104.8 28.51C103.19 28.51 102 27.28 102 25.76C102 24.25 103.2 23 104.82 23C106.44 23 107.63 24.23 107.63 25.76C107.63 27.26 106.43 28.51 104.8 28.51ZM104.82 27.46C105.8 27.46 106.42 26.69 106.42 25.76C106.42 24.83 105.75 24.06 104.8 24.06C103.83 24.06 103.21 24.82 103.21 25.76C103.21 26.68 103.88 27.46 104.82 27.46Z" fill="black"/>
<path d="M109.805 28.39V24.15H108.086V23.11H112.667V24.15H111V28.39H109.805Z" fill="#008BD2"/>
<path d="M108.074 5H112.639V22H108.086L108.074 5Z" fill="#008BD2"/>
</svg>
