<svg width="105" height="139" viewBox="0 0 105 139" fill="none" xmlns="http://www.w3.org/2000/svg">
<path d="M8.48361 51.0589C10.1867 49.7731 12.3134 48.8819 14.6119 48.5755C15.7999 48.421 16.9884 48.4119 18.2387 48.5036C18.8784 48.558 19.5328 48.6211 20.1678 48.7211C20.8595 48.8223 21.2888 48.914 21.9401 49.0559C27.781 50.3366 33.3992 53.0659 38.3823 56.7912C38.3531 56.7741 38.272 56.7101 38.3969 56.7998C38.478 56.8638 38.5592 56.9277 38.6403 56.9916C38.788 57.1108 38.9275 57.2091 39.0752 57.3284C39.429 57.6013 39.7763 57.8865 40.1236 58.1717C40.7452 58.6991 41.3669 59.2265 41.9546 59.7822C42.5487 60.3257 43.13 60.8938 43.7048 61.4742C43.9809 61.7497 44.2505 62.0375 44.5055 62.3166C44.6549 62.4691 44.7832 62.6253 44.9326 62.7778C45.0073 62.8541 45.061 62.934 45.1357 63.0103C45.1503 63.0189 45.2932 63.1837 45.2104 63.0865C46.2419 64.2907 47.2057 65.5515 48.0513 66.8557C48.4351 67.4364 48.806 68.0418 49.1558 68.6509C49.2485 68.8022 49.3348 68.9659 49.4275 69.1172C49.4584 69.1677 49.4975 69.239 49.5284 69.2895C49.5366 69.3104 49.6765 69.5541 49.6065 69.4322C49.6928 69.5959 49.9126 70.0155 50.0542 70.2924C50.6779 71.5464 51.2045 72.84 51.6389 74.1275C51.856 74.7713 52.044 75.3979 52.2191 76.0491C52.2272 76.07 52.283 76.3286 52.2551 76.1993C52.2354 76.091 52.2813 76.2953 52.2813 76.2953C52.3255 76.4664 52.3615 76.6166 52.4057 76.7878C52.4795 77.1214 52.5533 77.455 52.6125 77.7801C52.8622 79.0556 52.9986 80.3288 53.0426 81.596C53.0849 82.8299 53.0474 83.8879 52.8665 85.1837C52.7775 85.7923 52.6739 86.3922 52.5412 86.9749C52.4707 87.2558 52.4002 87.5367 52.3234 87.8299C52.2817 87.9827 52.24 88.1355 52.1919 88.3006C52.1485 88.4201 52.1872 88.3461 52.1855 88.3129C52.1421 88.4324 52.0987 88.5519 52.0553 88.6715C51.9492 88.9475 51.8285 89.2149 51.6932 89.4737C51.6159 89.6216 51.5386 89.7695 51.4467 89.9088C51.3484 90.0605 51.3419 90.0728 51.2547 90.1665C51.1014 90.3503 50.7704 90.655 50.675 90.7278C50.5587 90.8043 50.4277 90.8722 50.2821 90.9315C50.2061 90.9674 50.1366 90.9909 50.067 91.0144C49.8794 91.0812 50.2984 90.9734 49.9554 91.0453C49.8227 91.08 49.6964 91.1024 49.5556 91.1161C49.4715 91.131 49.3937 91.1336 49.316 91.1362C49.1185 91.1488 49.4504 91.1348 49.2594 91.135C48.976 91.1293 48.5565 91.0918 48.3637 91.0588C47.8275 90.9525 47.2212 90.7243 46.7331 90.4529C45.4146 89.7245 44.4642 88.5843 43.6851 87.3355C42.2033 84.9473 41.4432 82.42 41.1465 79.9562C41.0719 79.3319 41.0248 78.6916 41.0068 78.0684C40.9914 77.7692 40.997 77.4662 41.0027 77.1632C41.0048 77.3418 41.007 76.9723 41.0117 76.9268C41.0096 76.7482 41.0285 76.5659 41.041 76.3959C41.133 75.1606 41.3256 73.9521 41.6478 72.7878C41.7071 72.5648 41.8274 72.1521 41.8707 72.0325C41.8274 72.1521 41.9077 71.9253 41.9206 71.9007C41.9382 71.8305 41.9768 71.7565 41.9944 71.6863C42.0572 71.5298 42.1117 71.3524 42.1744 71.1959C42.3866 70.6438 42.6344 70.0966 42.9114 69.5667C43.1885 69.0367 43.4882 68.5362 43.8026 68.0444C44.1638 67.4995 44.3557 67.2418 44.7964 66.7276C46.4166 64.7966 48.3215 63.3072 50.5462 62.1191C54.9746 59.7467 60.2941 58.7375 65.7727 59.031C68.4983 59.1858 71.0319 59.5982 73.6651 60.295C75.036 60.6674 76.3957 61.0976 77.7443 61.5858C78.4007 61.8274 79.0654 62.0899 79.7235 62.3648C79.9764 62.4654 80.4401 62.6741 80.5779 62.7392C80.4401 62.6741 80.7011 62.7956 80.7303 62.8128C80.8097 62.8435 80.8973 62.8951 80.9767 62.9258C81.1584 63.0166 81.3464 63.0952 81.5426 63.1946C84.1255 64.426 86.6005 65.9001 88.9515 67.5752C89.1056 67.6821 89.2597 67.789 89.4074 67.9083C89.4739 67.9636 89.5615 68.0152 89.6281 68.0705C89.5989 68.0533 89.4885 67.9722 89.6135 68.0619C89.9299 68.2967 90.2398 68.5437 90.5498 68.7908C91.1178 69.2382 91.6647 69.6894 92.2134 70.1738C93.3025 71.1217 94.3367 72.1017 95.3177 73.147C96.2303 74.1038 97.3276 75.0726 98.1076 76.0641C98.4717 76.5364 99.1007 76.7941 99.5906 76.5508C100.026 76.3395 100.191 75.6952 99.8265 75.2228C98.8563 73.9742 98.0188 72.691 96.9048 71.535C95.8655 70.4553 94.7794 69.4286 93.6318 68.4463C91.2702 66.4264 88.7067 64.61 86.0162 63.0734C80.6268 59.9792 74.7449 57.9005 68.8988 57.0682C62.881 56.1991 56.966 56.7769 51.8305 58.7489C46.6611 60.7493 42.309 64.3273 40.14 69.2075C38.0337 73.9312 37.8216 79.7062 40.1994 85.2015C41.4527 88.0999 43.4921 91.2841 46.6795 92.7104C48.1143 93.3622 49.757 93.6528 51.116 93.2444C52.6562 92.7815 53.6439 91.6223 54.2457 90.252C56.3211 85.4778 55.9544 79.4586 54.1498 73.9624C52.2439 68.1487 48.4929 62.6506 43.6486 58.1849C38.6258 53.5495 32.2877 49.8963 25.9072 47.8948C20.5623 46.2131 14.5522 45.7677 10.1805 48.1413C9.14089 48.7057 8.36275 49.5369 7.73231 50.4873C7.48408 50.8892 8.1637 51.3057 8.48361 51.0589Z" fill="#0A71CC" fill-opacity="0.45"/>
<path d="M92.0619 75.8836C92.0402 75.8873 92.0252 75.8783 92.0186 75.891C92.187 75.9083 92.3553 75.9255 92.5086 75.9338C92.4936 75.9249 92.4786 75.9159 92.4569 75.9196C92.6224 76.0182 92.7728 76.1079 92.9382 76.2065C93.0311 76.4446 93.124 76.6827 93.2084 76.8992C93.1358 77.0387 93.0566 77.1909 92.984 77.3304C92.9125 77.3542 92.8194 77.3817 92.7478 77.4056C92.6283 77.4838 92.5051 77.4935 92.3715 77.4471L92.5051 77.4935C92.7119 77.5503 92.932 77.5818 93.1371 77.6043C93.4521 77.6426 93.7823 77.6898 94.0973 77.728C94.7059 77.8083 95.2994 77.8795 95.9079 77.9598C97.1315 78.1075 98.3636 78.2769 99.5872 78.4247C100.196 78.5049 100.828 78.6158 101.424 78.6057C102.354 78.5615 103.05 77.9799 102.964 77.0478C102.916 76.4209 102.446 75.8087 102.095 75.2338C101.767 74.6896 101.424 74.1365 101.09 73.6049C100.715 72.9995 100.356 72.403 99.9811 71.7976C99.798 71.5057 99.6064 71.1921 99.4233 70.9002C99.0167 70.2426 98.5064 69.8221 97.7211 69.703C97.2442 69.6348 96.814 69.8934 96.6293 70.2485C96.1722 71.0893 96.9265 71.9875 97.4656 72.8072C97.8384 73.3783 98.2263 73.9583 98.6057 74.5168C98.9701 75.0662 99.3344 75.6157 99.6988 76.1652C99.8885 76.4444 100.063 76.7146 100.253 76.9938C100.285 77.0461 100.325 77.12 100.349 77.1506C100.248 77.0409 100.247 76.8909 100.242 76.7879C100.22 76.5259 100.253 76.3125 100.47 76.1597C100.527 76.1269 100.791 76.0353 100.581 76.0597C100.603 76.056 100.83 76.0748 100.683 76.0538C100.61 76.0433 100.551 76.0418 100.478 76.0313C100.325 76.023 100.178 76.002 100.024 75.9937C99.6878 75.9592 99.3444 75.9373 98.9927 75.8938C98.3493 75.8427 97.7126 75.7789 97.0542 75.7188C95.7524 75.6075 94.4422 75.4746 93.1404 75.3634C92.292 75.2897 91.2357 75.2749 91.0889 76.2009C91.0131 76.6874 91.3173 77.201 91.7854 77.5132C92.2686 77.8344 92.7597 77.7615 93.1165 77.4924C93.4102 77.2687 93.3826 76.7537 93.1459 76.4133C92.9356 76.0221 92.4598 75.8383 92.0619 75.8836Z" fill="#0A71CC" fill-opacity="0.45"/>
</svg>
