<svg width="20" height="20" viewBox="0 0 20 20" fill="none" xmlns="http://www.w3.org/2000/svg">
<path d="M17.0711 2.92891C15.1823 1.0402 12.6711 0 10 0C7.32891 0 4.8177 1.0402 2.92895 2.92891C1.04016 4.8177 0 7.32891 0 10C0 12.6711 1.04016 15.1823 2.92895 17.0711C4.8177 18.9598 7.32891 20 10 20C12.6711 20 15.1823 18.9598 17.0711 17.0711C18.9598 15.1823 20 12.6711 20 10C20 7.32891 18.9598 4.8177 17.0711 2.92891ZM10 19.2188C4.91676 19.2188 0.78125 15.0832 0.78125 10C0.78125 4.91676 4.91676 0.78125 10 0.78125C15.0832 0.78125 19.2188 4.91676 19.2188 10C19.2188 15.0832 15.0832 19.2188 10 19.2188Z" fill="black"/>
<path d="M10 2.43555C5.82895 2.43555 2.43555 5.82895 2.43555 10C2.43555 14.1711 5.82895 17.5645 10 17.5645C14.1711 17.5645 17.5645 14.1711 17.5645 10C17.5645 5.82895 14.1711 2.43555 10 2.43555ZM10 16.7832C6.25973 16.7832 3.2168 13.7403 3.2168 10C3.2168 6.25973 6.25973 3.2168 10 3.2168C13.7403 3.2168 16.7832 6.25973 16.7832 10C16.7832 13.7403 13.7403 16.7832 10 16.7832Z" fill="black"/>
<path d="M13.3734 9.60964H11.3734C11.2385 9.13581 10.8644 8.76167 10.3905 8.62675V5.05762C10.3905 4.84187 10.2156 4.66699 9.99988 4.66699C9.78413 4.66699 9.60925 4.84191 9.60925 5.05762V8.62675C9.0112 8.79706 8.57202 9.34835 8.57202 10.0003C8.57202 10.7876 9.21257 11.4281 9.99988 11.4281C10.6518 11.4281 11.2031 10.9889 11.3734 10.3909H13.3734C13.5891 10.3909 13.764 10.216 13.764 10.0003C13.764 9.78452 13.5891 9.60964 13.3734 9.60964ZM9.99988 10.6469C9.64335 10.6469 9.35327 10.3568 9.35327 10.0003C9.35327 9.64374 9.64335 9.35366 9.99988 9.35366C10.3564 9.35366 10.6465 9.64374 10.6465 10.0003C10.6465 10.3568 10.3564 10.6469 9.99988 10.6469Z" fill="black"/>
</svg>
