<svg width="17" height="20" viewBox="0 0 17 20" fill="none" xmlns="http://www.w3.org/2000/svg">
<path d="M8.19661 9.95957C10.9424 9.95957 13.1764 7.72565 13.1764 4.97976C13.1764 2.23387 10.9424 0 8.19661 0C5.45077 0 3.2168 2.23392 3.2168 4.97981C3.2168 7.7257 5.45072 9.95957 8.19661 9.95957ZM8.19661 1.94018C9.87263 1.94018 11.2362 3.30374 11.2362 4.97981C11.2362 6.65588 9.87268 8.01944 8.19661 8.01944C6.52053 8.01944 5.15698 6.65583 5.15698 4.97981C5.15698 3.30379 6.52053 1.94018 8.19661 1.94018Z" fill="#B3DA26"/>
<path d="M8.19726 10.832C3.67727 10.832 0 14.5093 0 19.0293V19.9994H16.3945V19.0293C16.3945 14.5093 12.7172 10.832 8.19726 10.832ZM2.01522 18.0592C2.48265 15.0679 5.07682 12.7722 8.19721 12.7722C11.3176 12.7722 13.9118 15.0679 14.3792 18.0592H2.01522Z" fill="#B3DA26"/>
</svg>
