<svg width="35" height="125" viewBox="0 0 35 125" fill="none" xmlns="http://www.w3.org/2000/svg">
<path d="M17.5 35H17.5138C27.1671 35 35 27.1671 35 17.5138V17.5C35 7.83295 27.1671 0 17.5 0C7.83294 0 0 7.83295 0 17.5V17.5138C0.0137904 27.1671 7.83294 35 17.5 35Z" fill="white"/>
<path fill-rule="evenodd" clip-rule="evenodd" d="M16.8511 24.3947H18.175C18.175 24.3947 18.5749 24.3533 18.7818 24.1327C18.9749 23.9258 18.9611 23.5535 18.9611 23.5535C18.9611 23.5535 18.9335 21.7745 19.7609 21.5125C20.5745 21.2505 21.6226 23.2363 22.7258 23.9947C23.5671 24.5739 24.2014 24.4498 24.2014 24.4498L27.1663 24.4085C27.1663 24.4085 28.7109 24.3119 27.98 23.0984C27.9248 23.0018 27.5525 22.202 25.7735 20.5472C23.9118 18.8234 24.16 19.0992 26.4079 16.1205C27.7731 14.3001 28.3109 13.1969 28.1455 12.7142C27.98 12.2591 26.9871 12.3832 26.9871 12.3832L23.6498 12.4108C23.6498 12.4108 23.4016 12.3833 23.2223 12.4936C23.043 12.6039 22.9327 12.8521 22.9327 12.8521C22.9327 12.8521 22.4087 14.2587 21.7053 15.4585C20.216 17.9822 19.623 18.1201 19.3886 17.9546C18.8232 17.596 18.9611 16.4928 18.9611 15.7067C18.9611 13.2658 19.3334 12.2454 18.244 11.9833C17.8854 11.9006 17.6096 11.8316 16.6857 11.8316C15.4997 11.8178 14.493 11.8316 13.9138 12.1212C13.5277 12.3005 13.2381 12.728 13.4173 12.7418C13.638 12.7694 14.1344 12.8797 14.3964 13.2383C14.7412 13.7071 14.7274 14.7414 14.7274 14.7414C14.7274 14.7414 14.9205 17.6236 14.2723 17.9822C13.8172 18.2304 13.2105 17.7201 11.8866 15.4309C11.2109 14.2588 10.7006 12.9625 10.7006 12.9625C10.7006 12.9625 10.6041 12.7142 10.4248 12.5901C10.218 12.4384 9.91457 12.3832 9.91457 12.3832L6.74278 12.397C6.74278 12.397 6.26011 12.4108 6.09463 12.6177C5.94293 12.797 6.08084 13.1831 6.08084 13.1831C6.08084 13.1831 8.56311 18.9889 11.3764 21.9124C13.9276 24.5602 16.8511 24.3947 16.8511 24.3947Z" fill="#313845"/>
</svg>
